<svg width="205" height="163" viewBox="0 0 205 163" fill="none" xmlns="http://www.w3.org/2000/svg">
<g filter="url(#filter0_d)">
<circle r="44.22" transform="matrix(0.866044 -0.499967 0.866044 0.499967 102.593 61.6357)" fill="#C8D3EF"/>
</g>
<circle r="44.22" transform="matrix(0.866044 -0.499967 0.866044 0.499967 102.593 57.4624)" fill="#F7FAFF"/>
<g clip-path="url(#clip0)">
<g filter="url(#filter1_d)">
<ellipse cx="94.5402" cy="66.1115" rx="10.5479" ry="6.18327" fill="#C4C4C4"/>
</g>
<g filter="url(#filter2_d)">
<ellipse cx="123.795" cy="57.2776" rx="4.32979" ry="3.14894" fill="#C4C4C4"/>
</g>
<path d="M105.633 64.8677L105.701 35.2561C105.701 35.3085 105.7 35.3608 105.698 35.4132C105.7 35.3609 105.701 35.3085 105.701 35.2561C105.7 34.9772 105.688 34.6052 105.67 34.3267C105.656 34.1041 105.624 33.8083 105.596 33.5872C105.56 33.3129 105.497 32.9495 105.443 32.6782C105.401 32.4632 105.325 32.1803 105.275 31.9669C105.211 31.6974 105.092 31.3469 105.003 31.0846C104.933 30.8803 104.823 30.6143 104.746 30.4128C104.645 30.1503 104.483 29.8113 104.353 29.5619C104.255 29.3737 104.123 29.1231 104.014 28.9409C103.865 28.6915 103.652 28.367 103.493 28.1241C103.322 27.8645 103.07 27.5332 102.865 27.2998C102.595 26.9925 102.238 26.577 101.935 26.3021C101.786 26.1666 101.593 25.9782 101.436 25.8515C101.13 25.604 100.719 25.2738 100.391 25.0561C99.9685 24.776 99.7006 24.617 99.3625 24.4383C99.4824 24.1887 99.5442 23.9316 99.5449 23.6742L99.5598 18.4307C99.5598 18.4366 99.5591 18.4427 99.559 18.4485C99.5689 17.722 99.1049 16.9922 98.1615 16.4283C96.259 15.291 93.13 15.2594 91.1727 16.3577C90.1547 16.929 89.6554 17.6933 89.6772 18.4555C89.6768 18.438 89.6752 18.4207 89.6752 18.4032L89.6606 23.6469C89.6599 23.9064 89.7207 24.1661 89.8412 24.4183C89.7468 24.4689 89.6526 24.5204 89.5714 24.563C89.2953 24.7249 88.9344 24.9528 88.6665 25.1277C88.5492 25.2042 88.3992 25.316 88.2876 25.4007C88.13 25.5204 87.9209 25.6821 87.7714 25.8118C87.5437 26.0096 87.2444 26.2786 87.0315 26.4919C85.9075 27.6181 85.298 28.674 85.0664 29.0761C84.9601 29.2607 84.8268 29.5115 84.7342 29.7031C84.6151 29.9493 84.4639 30.2813 84.3613 30.5347C84.0675 31.2616 83.9156 31.8366 83.851 32.0822C83.7949 32.2947 83.7295 32.5806 83.6887 32.7964C83.6375 33.0665 83.5798 33.4288 83.5449 33.7014C83.4879 34.1462 83.467 34.7452 83.4526 35.1935C83.4524 35.2948 83.4561 35.3963 83.4641 35.4975C83.4561 35.3962 83.4524 35.2948 83.4526 35.1935L83.3838 64.805C83.3838 64.8068 83.3839 64.8085 83.3839 64.8103C83.3839 64.8085 83.3838 64.8067 83.3838 64.805C83.3836 64.8671 83.3856 64.9291 83.3884 64.9913V64.9911C83.3903 65.0304 83.3921 65.0698 83.3953 65.1091C83.3922 65.0698 83.3902 65.0305 83.3884 64.9913C83.3946 65.167 83.4061 65.3597 83.4203 65.5145C83.4343 65.669 83.4716 65.8729 83.4952 66.0264C83.532 66.2663 83.621 66.5793 83.692 66.8113C83.769 67.0627 83.8961 67.3911 84.0101 67.6282C84.1497 67.9184 84.3649 68.2915 84.5354 68.5647C84.7079 68.841 84.9852 69.1782 85.1984 69.4245C85.3771 69.6309 85.6393 69.8849 85.8394 70.0707C85.9765 70.1978 86.1651 70.3618 86.3157 70.4726C86.6265 70.701 87.0472 70.9981 87.3758 71.2C87.5865 71.3296 87.8781 71.4838 88.0982 71.5961C88.2812 71.6895 88.5304 71.803 88.7187 71.8852C89.2861 72.1327 89.7938 72.292 90.0973 72.3871C90.1987 72.4189 90.7424 72.585 91.5034 72.7343C92.2665 72.884 92.9244 72.9426 92.9308 72.9432C93.1456 72.9619 93.4322 72.9912 93.6477 72.9983C93.8635 73.0052 94.1512 73.0193 94.367 73.0215C94.5833 73.0237 94.8716 73.0156 95.0877 73.0129C95.5135 73.0076 95.9614 72.9595 96.5287 72.8986C96.535 72.8979 97.2114 72.8197 97.9627 72.6493C98.396 72.5509 98.9088 72.4156 99.3844 72.2505C99.6193 72.169 99.93 72.0525 100.16 71.9585C100.352 71.8801 100.601 71.7618 100.79 71.6762C101.041 71.5622 101.366 71.3904 101.599 71.2438C101.929 71.0363 102.371 70.7598 102.674 70.5152C102.894 70.3375 103.18 70.0895 103.387 69.8968C103.517 69.7761 103.683 69.6065 103.797 69.4712C103.996 69.2358 104.25 68.9118 104.432 68.6622C104.529 68.5285 104.638 68.3361 104.724 68.1952C104.817 68.0447 104.921 67.8327 104.997 67.6729C105.064 67.5298 105.144 67.334 105.202 67.1869C105.261 67.0402 105.328 66.84 105.369 66.6875C105.432 66.4543 105.503 66.1402 105.547 65.9028C105.586 65.6923 105.605 65.43 105.618 65.1851C105.616 65.2113 105.612 65.2374 105.609 65.2636C105.612 65.2374 105.616 65.2113 105.618 65.1851C105.627 65.0798 105.632 64.9739 105.633 64.8677Z" fill="#97C7EF"/>
<path d="M105.701 35.256C105.701 35.3085 105.699 35.3608 105.697 35.4132C105.683 35.7274 105.63 36.0408 105.537 36.3511C105.63 36.0408 105.683 35.7272 105.697 35.4132C105.699 35.3609 105.701 35.3085 105.701 35.256C105.7 34.9771 105.687 34.6052 105.669 34.3267C105.655 34.1041 105.624 33.8082 105.595 33.5871C105.56 33.3129 105.496 32.9495 105.443 32.6782C105.4 32.4631 105.325 32.1803 105.274 31.9669C105.211 31.6974 105.092 31.3469 105.002 31.0846C104.933 30.8803 104.823 30.6143 104.745 30.4128C104.645 30.1503 104.482 29.8113 104.352 29.5619C104.254 29.3737 104.122 29.123 104.013 28.9409C103.864 28.6915 103.652 28.367 103.492 28.1241C103.321 27.8645 103.07 27.5331 102.864 27.2998C102.594 26.9925 102.237 26.5769 101.934 26.302C101.785 26.1666 101.593 25.9781 101.436 25.8515C101.129 25.604 100.719 25.2738 100.39 25.056C99.8587 24.7035 99.5722 24.543 99.082 24.2931C98.8642 24.182 98.3584 23.9506 97.9293 23.8019C97.7668 23.7455 97.5502 23.669 97.3841 23.6234C97.1037 23.5461 96.7272 23.4503 96.442 23.3921C96.3041 23.3639 96.1194 23.3308 95.9798 23.3134C95.4106 23.2427 95.3765 23.2384 95.1074 23.2262C94.9792 23.2203 94.8083 23.2136 94.6798 23.2124C94.5515 23.2111 94.3802 23.2158 94.2519 23.2175C94.1196 23.2192 93.9435 23.2314 93.8117 23.2428C93.5456 23.2655 93.1925 23.3139 92.9285 23.3545C92.7769 23.3776 92.5764 23.4186 92.4273 23.4545C92.2557 23.4959 92.0259 23.5483 91.8576 23.6011C91.5524 23.6967 91.1482 23.8329 90.85 23.9486C90.6235 24.0364 90.3296 24.1737 90.1106 24.2788C89.9456 24.358 89.7325 24.4777 89.5705 24.5629C89.2944 24.7247 88.9335 24.9527 88.6656 25.1275C88.5483 25.2041 88.3984 25.3159 88.2867 25.4005C88.1291 25.5203 87.92 25.6819 87.7705 25.8117C87.5429 26.0094 87.2435 26.2785 87.0306 26.4917C85.9066 27.618 85.2971 28.6738 85.0656 29.076C84.9593 29.2605 84.8259 29.5114 84.7333 29.703C84.6142 29.9491 84.4631 30.2811 84.3605 30.5346C84.0666 31.2615 83.9148 31.8365 83.8501 32.0821C83.7941 32.2945 83.7285 32.5804 83.6878 32.7963C83.6366 33.0663 83.5789 33.4286 83.544 33.7013C83.487 34.1461 83.4661 34.745 83.4518 35.1933C83.4515 35.2947 83.4552 35.3961 83.4632 35.4974C83.479 35.7001 83.5112 35.9023 83.5601 36.1037C83.5844 36.2044 83.6128 36.3047 83.6455 36.4048C83.6129 36.3048 83.5844 36.2044 83.5601 36.1037C83.5114 35.9023 83.479 35.7001 83.4632 35.4974C83.4552 35.396 83.4515 35.2947 83.4518 35.1933L83.383 64.8049C83.383 64.8067 83.3831 64.8084 83.3831 64.8102C83.3831 64.8084 83.383 64.8066 83.383 64.8049C83.3827 64.867 83.3847 64.9289 83.3876 64.9911V64.991C83.3895 65.0303 83.3913 65.0697 83.3944 65.109C83.4102 65.3117 83.4424 65.5139 83.4913 65.7153C83.5156 65.816 83.544 65.9163 83.5767 66.0164C83.5441 65.9164 83.5156 65.816 83.4913 65.7153C83.4426 65.514 83.4102 65.3117 83.3944 65.109C83.3914 65.0697 83.3893 65.0304 83.3876 64.9911C83.3937 65.1669 83.4053 65.3596 83.4194 65.5144C83.4335 65.6688 83.4707 65.8728 83.4943 66.0262C83.5311 66.2662 83.6201 66.5791 83.6912 66.8111C83.7682 67.0625 83.8952 67.391 84.0093 67.628C84.1489 67.9183 84.3641 68.2914 84.5346 68.5646C84.7071 68.8409 84.9843 69.1781 85.1976 69.4243C85.3763 69.6307 85.6385 69.8848 85.8386 70.0705C85.9756 70.1977 86.1642 70.3617 86.3148 70.4725C86.6256 70.7009 87.0463 70.998 87.375 71.1999C87.5856 71.3294 87.8772 71.4836 88.0973 71.596C88.2803 71.6894 88.5296 71.8029 88.7178 71.885C89.2852 72.1325 89.793 72.2919 90.0965 72.387C90.1978 72.4187 90.7415 72.5848 91.5025 72.7341C92.2657 72.8839 92.9235 72.9424 92.9299 72.943C93.1448 72.9618 93.4313 72.991 93.6468 72.9981C93.8627 73.0051 94.1503 73.0191 94.3662 73.0214C94.5825 73.0236 94.8707 73.0154 95.0869 73.0127C95.5126 73.0074 95.9606 72.9594 96.5278 72.8984C96.5341 72.8978 97.2105 72.8195 97.9619 72.6492C98.3951 72.5507 98.9079 72.4155 99.3835 72.2504C99.6184 72.1689 99.9291 72.0524 100.159 71.9583C100.351 71.88 100.601 71.7617 100.789 71.676C101.04 71.5621 101.365 71.3903 101.598 71.2436C101.928 71.036 102.37 70.7596 102.673 70.515C102.894 70.3372 103.179 70.0893 103.386 69.8965C103.516 69.7759 103.682 69.6063 103.796 69.4709C103.996 69.2355 104.249 68.9115 104.431 68.662C104.528 68.5282 104.637 68.3358 104.724 68.1949C104.816 68.0444 104.92 67.8324 104.996 67.6727C105.064 67.5296 105.143 67.3337 105.201 67.1867C105.26 67.04 105.328 66.8397 105.368 66.6872C105.431 66.4541 105.502 66.1399 105.546 65.9025C105.585 65.6921 105.604 65.4297 105.617 65.1848C105.594 65.4451 105.544 65.7046 105.467 65.9618C105.544 65.7046 105.594 65.445 105.617 65.1848V65.1849C105.626 65.079 105.631 64.9729 105.632 64.8669L105.701 35.256ZM97.8923 24.0728C99.6582 25.1284 99.617 26.8107 97.8002 27.8301C95.9835 28.8495 93.0791 28.8202 91.3132 27.7646C89.5473 26.7089 89.5885 25.0266 91.4052 24.0073C93.222 22.9879 96.1264 23.0172 97.8923 24.0728ZM90.8139 24.0966C90.7674 24.1066 90.721 24.117 90.6752 24.1284C90.7211 24.117 90.7674 24.1066 90.8139 24.0966ZM90.2157 24.2678C90.1409 24.2948 90.0673 24.3238 89.9946 24.3548C90.0673 24.3239 90.1412 24.2948 90.2157 24.2678Z" fill="#D9E0F4"/>
<path d="M99.1914 25.9315C99.1933 25.2627 98.7619 24.5919 97.8934 24.0729C96.1275 23.0172 93.2232 22.988 91.4064 24.0073L91.4202 19.1403C93.2369 18.1209 96.1413 18.1502 97.9072 19.2058C98.7756 19.7251 99.207 20.3956 99.2052 21.0645C99.2009 22.5247 99.1954 24.4715 99.1914 25.9315Z" fill="#D9E0F4"/>
<path d="M90.0291 21.0388C90.0311 20.3475 90.4958 19.6584 91.4191 19.1401L91.4053 24.0072C90.482 24.5253 90.0173 25.2146 90.0153 25.9059C90.0194 24.4457 90.0249 22.499 90.0291 21.0388Z" fill="#D9E0F4"/>
<path d="M90.0153 25.9061L90.0291 21.0391C90.0272 21.7079 90.4585 22.3787 91.327 22.8977C93.0929 23.9533 95.9972 23.9826 97.8141 22.9632C98.7374 22.4451 99.202 21.7558 99.2041 21.0645L99.1903 25.9316C99.1882 26.6229 98.7236 27.312 97.8003 27.8303C95.9835 28.8497 93.0791 28.8204 91.3132 27.7647C90.4448 27.2456 90.0134 26.575 90.0153 25.9061Z" fill="#A8B0CC"/>
<path d="M91.4175 19.1398C93.2342 18.1204 96.1386 18.1497 97.9045 19.2054C99.6704 20.261 99.6292 21.9433 97.8125 22.9627C95.9957 23.982 93.0914 23.9528 91.3254 22.8971C89.5595 21.8415 89.6006 20.1593 91.4175 19.1398Z" fill="#DAE1F3"/>
<path d="M99.5585 18.4487C99.5684 17.7222 99.1043 16.9924 98.161 16.4285C96.2585 15.2913 93.1295 15.2596 91.1723 16.3579C90.1542 16.9292 89.655 17.6935 89.6767 18.4556C89.6763 18.4382 89.6747 18.4208 89.6747 18.4034L89.6598 23.6469C89.6578 24.3675 90.1225 25.09 91.0581 25.6493C92.9606 26.7865 96.0896 26.8182 98.0469 25.7199C99.0417 25.1617 99.5423 24.4191 99.5444 23.6744L99.5593 18.431C99.5593 18.4369 99.5587 18.4429 99.5585 18.4487Z" fill="#ADC3FC"/>
<path d="M89.6599 23.6468L89.6748 18.4033C89.6728 19.1239 90.1375 19.8464 91.0732 20.4057C92.9757 21.543 96.1046 21.5746 98.0619 20.4763C99.0567 19.9181 99.5573 19.1755 99.5594 18.4308L99.5445 23.6743C99.5424 24.419 99.0418 25.1616 98.047 25.7198C96.0897 26.8181 92.9608 26.7865 91.0582 25.6492C90.1226 25.0898 89.658 24.3674 89.6599 23.6468Z" fill="#3468EC"/>
<path d="M87.7635 34.5118C91.6306 32.3419 97.8126 32.4042 101.571 34.6513C105.33 36.8984 105.242 40.4789 101.375 42.649C97.5083 44.819 91.3263 44.7566 87.5675 42.5095C83.8087 40.2624 83.8964 36.6819 87.7635 34.5118Z" fill="#ECF1FF"/>
<path d="M88.2509 68.7044C87.9626 68.5272 87.5932 68.2663 87.3205 68.0659C87.1882 67.9687 87.0227 67.8247 86.9025 67.7131C86.7268 67.5501 86.4967 67.3271 86.3398 67.1459C86.1526 66.9298 85.9092 66.6338 85.7578 66.3913C85.6081 66.1515 85.4192 65.8241 85.2967 65.5692C85.1967 65.3611 85.0851 65.0728 85.0175 64.8523C84.9551 64.6484 84.8769 64.3739 84.8446 64.1632C84.824 64.0285 84.7914 63.8496 84.779 63.714C84.7619 63.5278 84.7492 63.2783 84.747 63.0913C84.7429 64.515 85.6612 65.9426 87.5097 67.0476C91.2686 69.2947 97.4505 69.3571 101.318 67.1871C103.283 66.0844 104.272 64.617 104.276 63.1457C104.265 63.4192 104.251 63.7859 104.201 64.0549C104.163 64.2632 104.1 64.539 104.045 64.7437C104.009 64.8776 103.95 65.0534 103.899 65.1822C103.847 65.3112 103.778 65.4832 103.718 65.6087C103.652 65.7489 103.561 65.935 103.479 66.067C103.403 66.1905 103.308 66.3595 103.222 66.4769C103.063 66.6959 102.84 66.9803 102.666 67.1869C102.565 67.3057 102.419 67.4545 102.305 67.5605C102.123 67.7297 101.873 67.9472 101.679 68.1034C101.413 68.318 101.025 68.5605 100.736 68.7428C100.531 68.8716 100.245 69.0224 100.026 69.1224C99.8603 69.1976 99.6412 69.3016 99.4728 69.3702C99.2708 69.4529 98.998 69.555 98.7918 69.6265C98.3744 69.7712 97.9243 69.8902 97.5439 69.9765C96.8845 70.1261 96.2907 70.1948 96.2852 70.1954C95.7873 70.2489 95.394 70.2912 95.0204 70.2957C94.8306 70.298 94.5776 70.3052 94.3878 70.3033C94.1982 70.3014 93.9458 70.2892 93.7562 70.2829C93.5669 70.2768 93.3155 70.251 93.1268 70.2346C93.1211 70.2342 92.5437 70.1828 91.8738 70.0513C91.2057 69.9202 90.7285 69.7744 90.6396 69.7465C90.3732 69.6629 89.9274 69.523 89.4295 69.3058C89.2643 69.2338 89.0454 69.1341 88.8848 69.0522C88.6919 68.9534 88.4358 68.8179 88.2509 68.7044Z" fill="#DAE1F3"/>
<path d="M104.323 38.3218C104.455 39.8875 103.469 41.4751 101.377 42.6494C97.5095 44.8193 91.3274 44.757 87.5686 42.5099C85.5964 41.331 84.6839 39.7849 84.8198 38.2681C84.8116 38.1714 84.8071 38.0744 84.8073 37.9775L84.747 64.62C84.7429 66.0437 85.6612 67.4713 87.5097 68.5763C91.2686 70.8233 97.4505 70.8858 101.318 68.7158C103.283 67.6131 104.272 66.1457 104.276 64.6744L104.337 38.032C104.337 38.1286 104.332 38.2253 104.323 38.3218Z" fill="#A8B0CC"/>
<path d="M130.625 41.3101C130.671 41.1227 130.693 40.9339 130.693 40.745L130.693 40.7441H130.693C130.687 39.737 130.018 38.7299 128.687 37.9615C126.026 36.4249 121.724 36.425 119.08 37.9616C117.758 38.73 117.1 39.7371 117.106 40.7441H117.106L117.106 40.7448C117.107 40.9168 117.127 41.0888 117.167 41.2596L119.313 59.3443H119.313C119.317 60.0242 119.769 60.704 120.667 61.2227C122.464 62.26 125.367 62.26 127.152 61.2226C128.045 60.7039 128.489 60.0241 128.485 59.3443L130.625 41.3101Z" fill="#D9E0F4"/>
<path d="M120.084 58.3907L118.246 42.9106H129.554L127.717 58.3907H120.084Z" fill="#BCC3DE"/>
<path d="M127.885 40.5945C125.67 39.3155 122.09 39.3155 119.889 40.5945C117.688 41.8734 117.7 43.947 119.915 45.226C122.13 46.5049 125.71 46.5049 127.911 45.226C130.112 43.947 130.1 41.8734 127.885 40.5945Z" fill="#D3DAF5"/>
<path d="M128.012 38.3544C125.726 37.0348 122.032 37.0349 119.762 38.3545C117.491 39.6742 117.503 41.8137 119.789 43.1333C122.074 44.453 125.768 44.4529 128.039 43.1333C130.31 41.8136 130.298 39.674 128.012 38.3544Z" fill="#A8B0CC"/>
<path d="M126.589 56.8272C125.094 55.9639 122.677 55.9639 121.192 56.8272C119.706 57.6905 119.714 59.0903 121.209 59.9537C122.704 60.817 125.121 60.817 126.607 59.9537C128.092 59.0904 128.084 57.6905 126.589 56.8272Z" fill="#AEB5CE"/>
<path d="M118.473 41.9771C118.76 42.3984 119.198 42.7933 119.787 43.1335C122.073 44.4532 125.767 44.4531 128.038 43.1335C128.613 42.7988 129.042 42.4113 129.325 41.9979C129.065 41.4841 128.585 40.9996 127.884 40.5947C125.669 39.3157 122.089 39.3157 119.888 40.5948C119.201 40.9942 118.729 41.4711 118.473 41.9771Z" fill="#ECF1FF"/>
</g>
<defs>
<filter id="filter0_d" x="0.433594" y="0.369629" width="208.319" height="162.532" filterUnits="userSpaceOnUse" color-interpolation-filters="sRGB">
<feFlood flood-opacity="0" result="BackgroundImageFix"/>
<feColorMatrix in="SourceAlpha" type="matrix" values="0 0 0 0 0 0 0 0 0 0 0 0 0 0 0 0 0 0 127 0"/>
<feOffset dx="2" dy="20"/>
<feGaussianBlur stdDeviation="25"/>
<feColorMatrix type="matrix" values="0 0 0 0 0.50276 0 0 0 0 0.591745 0 0 0 0 0.820833 0 0 0 0.3 0"/>
<feBlend mode="normal" in2="BackgroundImageFix" result="effect1_dropShadow"/>
<feBlend mode="normal" in="SourceGraphic" in2="effect1_dropShadow" result="shape"/>
</filter>
<filter id="filter1_d" x="78.9923" y="57.9282" width="31.0959" height="22.3665" filterUnits="userSpaceOnUse" color-interpolation-filters="sRGB">
<feFlood flood-opacity="0" result="BackgroundImageFix"/>
<feColorMatrix in="SourceAlpha" type="matrix" values="0 0 0 0 0 0 0 0 0 0 0 0 0 0 0 0 0 0 127 0"/>
<feOffset dy="3"/>
<feGaussianBlur stdDeviation="2.5"/>
<feColorMatrix type="matrix" values="0 0 0 0 0.700972 0 0 0 0 0.763917 0 0 0 0 0.858333 0 0 0 0.6 0"/>
<feBlend mode="normal" in2="BackgroundImageFix" result="effect1_dropShadow"/>
<feBlend mode="normal" in="SourceGraphic" in2="effect1_dropShadow" result="shape"/>
</filter>
<filter id="filter2_d" x="114.466" y="52.1287" width="18.6596" height="16.2979" filterUnits="userSpaceOnUse" color-interpolation-filters="sRGB">
<feFlood flood-opacity="0" result="BackgroundImageFix"/>
<feColorMatrix in="SourceAlpha" type="matrix" values="0 0 0 0 0 0 0 0 0 0 0 0 0 0 0 0 0 0 127 0"/>
<feOffset dy="3"/>
<feGaussianBlur stdDeviation="2.5"/>
<feColorMatrix type="matrix" values="0 0 0 0 0.700972 0 0 0 0 0.763917 0 0 0 0 0.858333 0 0 0 0.6 0"/>
<feBlend mode="normal" in2="BackgroundImageFix" result="effect1_dropShadow"/>
<feBlend mode="normal" in="SourceGraphic" in2="effect1_dropShadow" result="shape"/>
</filter>
<clipPath id="clip0">
<rect width="74" height="74" fill="white" transform="translate(70 6.89453)"/>
</clipPath>
</defs>
</svg>
