<svg width="256" height="191" viewBox="0 0 256 191" fill="none" xmlns="http://www.w3.org/2000/svg">
<g filter="url(#filter0_d)">
<circle r="63.5767" transform="matrix(0.866044 -0.499967 0.866044 0.499967 126.121 75.6595)" fill="#C8D3EF"/>
</g>
<circle r="63.5767" transform="matrix(0.866044 -0.499967 0.866044 0.499967 126.121 69.6595)" fill="#F7FAFF"/>
<g clip-path="url(#clip0)">
<g filter="url(#filter1_d)">
<path d="M172.593 26.0303C170.972 25.0637 169.492 24.9557 168.414 25.5622L167.393 26.1367C167.396 26.1349 167.4 26.1333 167.403 26.1313C166.333 26.7277 165.655 28.0254 165.624 29.8853C165.562 33.6169 168.122 38.1998 171.345 40.121C173.013 41.1151 174.529 41.1986 175.614 40.5322C175.584 40.551 175.554 40.5711 175.523 40.5887L176.544 40.0142C177.608 39.4154 178.281 38.1194 178.312 36.2652C178.375 32.5338 175.814 27.9507 172.593 26.0303Z" fill="#BBC4DC"/>
<path d="M167.393 26.1369L168.414 25.5623C169.492 24.9559 170.971 25.0641 172.593 26.0305L171.572 26.605C169.95 25.6385 168.471 25.5302 167.393 26.1369Z" fill="#F2F4FA"/>
<path d="M176.544 40.014L175.523 40.5885C176.587 39.9898 177.26 38.6938 177.291 36.8396C177.354 33.108 174.793 28.525 171.572 26.6046L172.593 26.0301C175.814 27.9505 178.375 32.5335 178.312 36.2651C178.281 38.1194 177.609 39.4152 176.544 40.014Z" fill="#BBC4DC"/>
<path d="M171.572 26.6052C174.793 28.5255 177.354 33.1085 177.291 36.8401C177.229 40.5717 174.566 42.0415 171.345 40.1211C168.122 38.2 165.562 33.617 165.624 29.8854C165.687 26.1538 168.349 24.684 171.572 26.6052Z" fill="#A8B0CC"/>
<path d="M171.433 33.3788L171.51 28.8316L170.33 28.1284L166.366 30.3581L166.329 30.336L136.33 47.1932L136.307 48.5589L140.232 50.8979L140.155 55.445L141.335 56.1485L145.299 53.9186L145.337 53.9414L175.336 37.0842L175.359 35.7187L171.433 33.3788Z" fill="#BBC4DC"/>
<path d="M145.36 52.5758L175.359 35.7186L175.336 37.0842L145.337 53.9414L145.36 52.5758Z" fill="#BBC4DC"/>
<path d="M141.435 50.2359L171.434 33.3788L175.359 35.7187L145.36 52.5758L141.435 50.2359Z" fill="#F2F4FA"/>
<path d="M141.511 45.6888L171.51 28.8316L171.434 33.3787L141.435 50.2359L141.511 45.6888Z" fill="#BBC4DC"/>
<path d="M140.331 44.9854L170.33 28.1284L171.51 28.8317L141.511 45.6888L140.331 44.9854Z" fill="#F2F4FA"/>
<path d="M141.511 45.6889L141.435 50.236L145.36 52.5759L145.337 53.9415L141.411 51.6016L141.335 56.1485L140.155 55.4451L140.232 50.898L136.307 48.5588L136.33 47.1933L140.255 49.5324L140.331 44.9854L141.511 45.6889Z" fill="#BBC4DC"/>
<path d="M165.022 39.6277C161.987 36.2809 158.736 33.5746 155.473 31.6291C152.21 29.6838 148.933 28.4998 145.847 28.1976C145.486 28.1626 145.165 28.2274 144.896 28.3789L143.598 29.1093C143.604 29.1062 143.609 29.1047 143.615 29.1018C143.053 29.4086 142.712 30.0864 142.696 31.0204L142.555 39.454C142.532 40.8302 143.219 42.4975 144.302 43.6924C147.337 47.0392 150.588 49.7456 153.851 51.6911C157.114 53.6363 160.391 54.8204 163.477 55.1226C163.853 55.1591 164.184 55.0849 164.46 54.9192C164.449 54.926 164.439 54.9348 164.428 54.9412L165.726 54.2109C166.278 53.9002 166.612 53.225 166.628 52.2999L166.769 43.8663C166.793 42.4899 166.106 40.8229 165.022 39.6277Z" fill="#BBC4DC"/>
<path d="M165.726 54.2112L164.428 54.9417C164.98 54.6309 165.315 53.9555 165.33 53.0302L166.629 52.2996C166.613 53.2252 166.279 53.9004 165.726 54.2112Z" fill="#969FBE"/>
<path d="M143.598 29.1094L144.896 28.3791C145.166 28.2277 145.487 28.1627 145.848 28.1977C148.934 28.4997 152.21 29.6838 155.473 31.6293L154.175 32.3596C150.912 30.4143 147.636 29.2303 144.55 28.9281C144.188 28.893 143.868 28.9579 143.598 29.1094Z" fill="#F2F4FA"/>
<path d="M165.472 44.5965L166.769 43.8661L166.628 52.2997L165.33 53.0301L165.472 44.5965Z" fill="#BBC4DC"/>
<path d="M154.175 32.3594L155.473 31.6291C158.737 33.5744 161.987 36.2809 165.023 39.6277C166.106 40.8227 166.793 42.4899 166.77 43.8661L165.472 44.5964C165.495 43.2202 164.808 41.553 163.725 40.358C160.689 37.0112 157.439 34.3047 154.175 32.3594Z" fill="#F2F4FA"/>
<path d="M154.175 32.3594C157.439 34.3047 160.689 37.0111 163.725 40.3581C164.808 41.553 165.495 43.2203 165.472 44.5964L165.33 53.0301C165.307 54.4062 164.578 55.2292 163.477 55.1224C160.391 54.8204 157.114 53.6363 153.851 51.6909C150.588 49.7456 147.337 47.0392 144.302 43.6923C143.219 42.4973 142.532 40.8301 142.555 39.4539L142.696 31.0203C142.719 29.6441 143.448 28.8211 144.55 28.9279C147.636 29.2301 150.912 30.4142 154.175 32.3594Z" fill="#A8B0CC"/>
<path d="M154.467 35.9211C152.828 34.9441 151.333 34.8343 150.243 35.4474L104.77 61.0165C104.774 61.0147 104.778 61.0129 104.781 61.0111C103.699 61.6137 103.015 62.9251 102.983 64.8058C102.92 68.579 105.508 73.214 108.765 75.1557C110.454 76.1623 111.99 76.2456 113.088 75.5686C113.056 75.5885 113.025 75.6098 112.992 75.6284L158.464 50.0593C159.541 49.4536 160.222 48.1434 160.253 46.2691C160.317 42.4957 157.725 37.8629 154.467 35.9211Z" fill="#BBC4DC"/>
<path d="M104.771 61.0164L150.243 35.4474C151.333 34.8343 152.828 34.9438 154.468 35.9211L108.995 61.4899C107.356 60.5129 105.86 60.4033 104.771 61.0164Z" fill="#F2F4FA"/>
<path d="M158.465 50.0591L112.992 75.628C114.069 75.0222 114.75 73.7121 114.781 71.8378C114.845 68.0645 112.253 63.4317 108.995 61.49L154.468 35.9211C157.725 37.8627 160.317 42.4955 160.254 46.2689C160.222 48.1434 159.541 49.4534 158.465 50.0591Z" fill="#BBC4DC"/>
<path d="M108.995 61.49C112.253 63.4315 114.844 68.0645 114.781 71.8378C114.718 75.611 112.023 77.0972 108.766 75.1553C105.508 73.2134 102.92 68.5786 102.984 64.8054C103.047 61.0323 105.738 59.5484 108.995 61.49Z" fill="#A8B0CC"/>
<path d="M108.2 66.0368C107.54 65.6439 106.938 65.5996 106.5 65.8463L100.61 69.2181C100.612 69.2174 100.613 69.2169 100.615 69.216C100.18 69.4583 99.9042 69.9856 99.8915 70.7421C99.8659 72.2598 100.907 74.124 102.217 74.9049C102.919 75.3231 103.553 75.3426 103.997 75.041C103.971 75.0591 103.945 75.0792 103.917 75.0951L109.807 71.7233C110.24 71.4797 110.514 70.9527 110.527 70.1986C110.552 68.6812 109.51 66.8178 108.2 66.0368Z" fill="#BBC4DC"/>
<path d="M100.61 69.2183L106.5 65.8463C106.939 65.5998 107.54 65.6438 108.2 66.0368L102.31 69.4086C101.65 69.0156 101.049 68.9716 100.61 69.2183Z" fill="#F2F4FA"/>
<path d="M109.807 71.7234L103.917 75.0952C104.35 74.8514 104.624 74.3246 104.637 73.5705C104.662 72.0528 103.62 70.1893 102.31 69.4084L108.2 66.0366C109.51 66.8175 110.552 68.681 110.527 70.1986C110.514 70.9529 110.24 71.4798 109.807 71.7234Z" fill="#BBC4DC"/>
<path d="M102.31 69.4087C103.62 70.1897 104.662 72.0532 104.637 73.5709C104.611 75.0886 103.527 75.6864 102.217 74.9053C100.907 74.1243 99.8663 72.2599 99.8917 70.7424C99.917 69.2247 100.999 68.6277 102.31 69.4087Z" fill="#A8B0CC"/>
<path d="M102.378 71.4187L102.362 71.4283C102.202 71.3378 102.056 71.3275 101.949 71.3878L85.0386 81.6705C85.0392 81.6707 85.0397 81.6709 85.0403 81.6711C84.8908 81.7654 84.7184 81.9426 84.5585 82.2361C84.2965 82.7172 83.7603 83.9053 84.1308 84.1082C84.1712 84.1304 84.2289 84.1156 84.2965 84.0765C84.2941 84.0785 84.2912 84.0815 84.2893 84.0824L102.783 72.8528C102.893 72.7912 102.962 72.6585 102.965 72.4683C102.971 72.0858 102.708 71.6155 102.378 71.4187Z" fill="#ACABB1"/>
<path d="M85.0387 81.6705L101.949 71.3878C102.06 71.3257 102.211 71.3368 102.378 71.4358L85.3202 81.8083C85.1541 81.7091 85.1631 81.7185 85.0387 81.6705Z" fill="#F2F4FA"/>
<path d="M102.783 72.8529L84.2893 84.0827C84.3985 84.0212 85.6508 81.9881 85.3205 81.7913L102.378 71.4188C102.708 71.6158 102.971 72.0859 102.965 72.4686C102.962 72.6586 102.893 72.7915 102.783 72.8529Z" fill="#BBC4DC"/>
<path d="M85.3793 81.6008C85.7422 81.8172 85.3284 82.8471 84.9533 83.3809C84.7015 83.7393 84.2868 84.1943 84.1308 84.1091C83.7602 83.9062 84.2965 82.7177 84.5587 82.2365C84.8741 81.6578 85.2376 81.5302 85.3793 81.6008Z" fill="#ACABB1"/>
<path d="M144.831 42.2411C143.388 41.3813 142.072 41.2847 141.112 41.8242L137.219 44.0149C137.222 44.0133 137.225 44.0118 137.228 44.0101C136.276 44.5406 135.674 45.6947 135.646 47.3499C135.59 50.6693 137.868 54.7452 140.735 56.4542C142.219 57.3385 143.568 57.4131 144.533 56.8206C144.506 56.8372 144.48 56.8552 144.452 56.8707L148.346 54.68C149.292 54.1475 149.89 52.9951 149.918 51.3463C149.974 48.0248 147.696 43.9491 144.831 42.2411Z" fill="#BBC4DC"/>
<path d="M137.219 44.0148L141.113 41.8242C142.072 41.2846 143.388 41.3809 144.831 42.2411L140.937 44.4317C139.494 43.5717 138.178 43.4753 137.219 44.0148Z" fill="#264DAE"/>
<path d="M148.346 54.6796L144.452 56.8705C145.399 56.3379 145.997 55.1857 146.025 53.5367C146.081 50.216 143.803 46.1401 140.937 44.4319L144.831 42.2413C147.697 43.9495 149.974 48.0254 149.919 51.3461C149.891 52.9949 149.293 54.1471 148.346 54.6796Z" fill="#3468EC"/>
<path d="M140.937 44.4318C143.803 46.14 146.08 50.2159 146.025 53.5366C145.969 56.856 143.601 58.1624 140.735 56.4542C137.868 54.7453 135.59 50.6696 135.646 47.35C135.702 44.0291 138.07 42.7229 140.937 44.4318Z" fill="#ADC3FC"/>
<path d="M131.073 50.2828L130.175 50.7888C132.706 52.6952 134.676 56.238 134.941 59.3717L135.845 58.8627C135.435 55.7273 133.529 52.3041 131.073 50.2828Z" fill="#F2F7FF"/>
<path d="M126.941 52.6091L126.043 53.1149C128.574 55.0224 130.543 58.5657 130.808 61.699L131.712 61.19C131.302 58.0549 129.398 54.6313 126.941 52.6091Z" fill="#F2F7FF"/>
<path d="M122.81 54.9355L121.912 55.4413C124.442 57.3499 126.411 60.8936 126.674 64.0267L127.578 63.5177C127.17 60.3827 125.266 56.9586 122.81 54.9355Z" fill="#F2F7FF"/>
<path d="M114.547 59.5883L113.649 60.094C116.179 62.0049 118.146 65.5495 118.407 68.682L119.311 68.1728C118.905 65.0383 117.002 61.6134 114.547 59.5883Z" fill="#F2F7FF"/>
<path d="M118.679 57.262L117.781 57.7678C120.311 59.6775 122.279 63.2219 122.541 66.3546L123.445 65.8454C123.037 62.7105 121.134 59.2862 118.679 57.262Z" fill="#F2F7FF"/>
<path d="M151.73 38.6506L150.831 39.1567C153.364 41.0574 155.338 44.5981 155.609 47.7332L156.513 47.2247C156.097 44.0884 154.188 40.6671 151.73 38.6506Z" fill="#F2F7FF"/>
<path d="M147.598 40.9769L146.7 41.4831C149.232 43.3847 151.206 46.9259 151.476 50.061L152.379 49.5525C151.965 46.4162 150.056 42.9945 147.598 40.9769Z" fill="#F2F7FF"/>
<path d="M135.204 47.9563L134.306 48.4623C136.837 50.3674 138.808 53.91 139.075 57.0437L139.979 56.5351C139.567 53.3993 137.661 49.9766 135.204 47.9563Z" fill="#F2F7FF"/>
<path d="M143.467 43.3036L142.568 43.8098C145.1 45.7127 147.073 49.2543 147.342 52.3889L148.246 51.8803C147.832 48.7438 145.925 45.322 143.467 43.3036Z" fill="#F2F7FF"/>
<path d="M139.336 45.6299L138.437 46.1359C140.969 48.0401 142.941 51.582 143.209 54.7163L144.112 54.2076C143.7 51.0717 141.793 47.6494 139.336 45.6299Z" fill="#F2F7FF"/>
</g>
</g>
<defs>
<filter id="filter0_d" x="0.253563" y="0.706909" width="255.734" height="189.905" filterUnits="userSpaceOnUse" color-interpolation-filters="sRGB">
<feFlood flood-opacity="0" result="BackgroundImageFix"/>
<feColorMatrix in="SourceAlpha" type="matrix" values="0 0 0 0 0 0 0 0 0 0 0 0 0 0 0 0 0 0 127 0"/>
<feOffset dx="2" dy="20"/>
<feGaussianBlur stdDeviation="25"/>
<feColorMatrix type="matrix" values="0 0 0 0 0.50276 0 0 0 0 0.591745 0 0 0 0 0.820833 0 0 0 0.3 0"/>
<feBlend mode="normal" in2="BackgroundImageFix" result="effect1_dropShadow"/>
<feBlend mode="normal" in="SourceGraphic" in2="effect1_dropShadow" result="shape"/>
</filter>
<filter id="filter1_d" x="59.0043" y="25.1864" width="124.309" height="88.9331" filterUnits="userSpaceOnUse" color-interpolation-filters="sRGB">
<feFlood flood-opacity="0" result="BackgroundImageFix"/>
<feColorMatrix in="SourceAlpha" type="matrix" values="0 0 0 0 0 0 0 0 0 0 0 0 0 0 0 0 0 0 127 0"/>
<feOffset dx="-10" dy="15"/>
<feGaussianBlur stdDeviation="7.5"/>
<feColorMatrix type="matrix" values="0 0 0 0 0.700972 0 0 0 0 0.763917 0 0 0 0 0.858333 0 0 0 0.4 0"/>
<feBlend mode="normal" in2="BackgroundImageFix" result="effect1_dropShadow"/>
<feBlend mode="normal" in="SourceGraphic" in2="effect1_dropShadow" result="shape"/>
</filter>
<clipPath id="clip0">
<rect width="122" height="109" fill="white" transform="translate(70)"/>
</clipPath>
</defs>
</svg>
