<svg width="221" height="171" viewBox="0 0 221 171" fill="none" xmlns="http://www.w3.org/2000/svg">
<g filter="url(#filter0_d)">
<circle r="49.2886" transform="matrix(0.866044 -0.499967 0.866044 0.499967 108.372 65.7151)" fill="#C8D3EF"/>
</g>
<circle r="49.2886" transform="matrix(0.866044 -0.499967 0.866044 0.499967 108.372 61.0632)" fill="url(#paint0_linear)"/>
<g clip-path="url(#clip0)" filter="url(#filter1_d)">
<path d="M130.807 36.2338L96.4527 16.399C95.6456 15.9331 94.9146 15.8898 94.3868 16.1965L86.5721 20.7379C86.5738 20.7369 86.5754 20.7361 86.5771 20.7353C86.053 21.0371 85.7278 21.6821 85.7253 22.6003V47.5253C85.72 49.3675 86.9444 51.6116 88.5484 52.5377L122.903 72.3724C123.815 72.8989 124.653 72.8848 125.207 72.4363L132.784 68.0332C133.305 67.7303 133.699 67.0864 133.701 66.171V41.2461C133.706 39.4039 132.411 37.1595 130.807 36.2338Z" fill="#A50020"/>
<path d="M86.5721 20.7372L94.3867 16.1958C94.9145 15.889 95.6454 15.9323 96.4526 16.3982L88.638 20.9396C87.831 20.4738 87.1 20.4306 86.5721 20.7372Z" fill="#A50020"/>
<path d="M132.784 68.0326L124.969 72.574C125.49 72.2711 125.884 71.6272 125.887 70.7118L133.701 66.1704C133.699 67.0857 133.305 67.7296 132.784 68.0326Z" fill="#A50020"/>
<path d="M125.887 45.7869L133.701 41.2455V66.1705L125.887 70.7119V45.7869Z" fill="#A50020"/>
<path d="M88.6379 20.9396L96.4526 16.3983L130.807 36.233L122.993 40.7744L88.6379 20.9396Z" fill="#A50020"/>
<path d="M122.993 40.7744L130.807 36.233C132.41 37.1586 133.706 39.4031 133.701 41.2454L125.887 45.7868C125.892 43.9445 124.596 41.7 122.993 40.7744Z" fill="#A50020"/>
<path d="M122.993 40.7746C124.596 41.7002 125.892 43.9447 125.887 45.787V70.712C125.881 72.5542 124.506 73.2976 122.903 72.372L88.5484 52.5371C86.9443 51.6111 85.72 49.367 85.7253 47.5248V22.5998C85.7305 20.7576 87.0339 20.0137 88.6379 20.9398L122.993 40.7746Z" fill="#A50020"/>
<path d="M86.5721 20.7372L94.3867 16.1958C94.9145 15.889 95.6454 15.9323 96.4526 16.3982L88.638 20.9396C87.831 20.4738 87.1 20.4306 86.5721 20.7372Z" fill="#2758D7"/>
<path d="M132.784 68.0326L124.969 72.574C125.49 72.2711 125.884 71.6272 125.887 70.7118L133.701 66.1704C133.699 67.0857 133.305 67.7296 132.784 68.0326Z" fill="#2758D7"/>
<path d="M125.887 45.7869L133.701 41.2455V66.1705L125.887 70.7119V45.7869Z" fill="#3468EC"/>
<path d="M88.6381 20.9396L96.4528 16.3982L130.807 36.233L122.993 40.7744L88.6381 20.9396Z" fill="#5E89F7"/>
<path d="M122.993 40.7744L130.807 36.233C132.41 37.1586 133.706 39.4031 133.701 41.2454L125.887 45.7868C125.892 43.9445 124.596 41.7 122.993 40.7744Z" fill="#ADC3FC"/>
<path d="M122.993 40.7746C124.596 41.7002 125.892 43.9447 125.887 45.787V70.712C125.881 72.5542 124.506 73.2976 122.903 72.372L88.5484 52.5371C86.9443 51.6111 85.72 49.367 85.7253 47.5248V22.5998C85.7305 20.7576 87.0339 20.0137 88.6379 20.9398L122.993 40.7746Z" fill="#A50020"/>
<path d="M125.24 39.7257L90.0929 19.4337C89.2676 18.9573 88.5199 18.9131 87.9798 19.227L80.1653 23.7684C80.1671 23.7674 80.1689 23.7666 80.1705 23.7657C79.6344 24.0742 79.3015 24.734 79.2988 25.6731V51.1733C79.2934 53.0578 80.5469 55.354 82.1868 56.3006L117.334 76.5925C118.183 77.0829 118.949 77.1145 119.492 76.7705C119.477 76.78 119.462 76.7904 119.447 76.7995L127.261 72.2581C127.795 71.9482 128.197 71.2893 128.2 70.3531V44.853C128.205 42.9686 126.88 40.6729 125.24 39.7257Z" fill="#C6C5CB"/>
<path d="M80.1653 23.7682L87.9798 19.2268C88.5199 18.913 89.2678 18.9571 90.0929 19.4335L82.2784 23.9749C81.4532 23.4985 80.7053 23.4544 80.1653 23.7682Z" fill="#A0A9C1"/>
<path d="M127.261 72.2582L119.447 76.7996C119.98 76.4897 120.383 75.8308 120.386 74.8946L128.2 70.3532C128.197 71.2894 127.795 71.9483 127.261 72.2582Z" fill="#A0A9C1"/>
<path d="M120.385 49.3945L128.2 44.8531V70.3534L120.385 74.8946V49.3945Z" fill="#BBC4DC"/>
<path d="M82.2785 23.9751L90.093 19.4338L125.24 39.7258L117.425 44.2671L82.2785 23.9751Z" fill="#C9D3EE"/>
<path d="M117.425 44.267L125.24 39.7256C126.88 40.6728 128.205 42.9686 128.2 44.8529L120.385 49.3943C120.391 47.5099 119.066 45.2142 117.425 44.267Z" fill="#EAEFFC"/>
<path d="M117.425 44.2669C119.066 45.2142 120.391 47.5099 120.385 49.3942V74.8945C120.38 76.7788 118.974 77.5397 117.334 76.5923L82.1868 56.3004C80.5469 55.3538 79.2936 53.0573 79.2988 51.1731V25.6729C79.3042 23.7885 80.6385 23.0281 82.2784 23.9749L117.425 44.2669Z" fill="#F2F4FA"/>
<path d="M122.001 32.0512L117.655 34.5767L117.098 34.9004L112.991 37.287V38.3505L116.877 40.594L125.887 35.358V34.2947L122.001 32.0512Z" fill="#3E3D43"/>
<path d="M125.887 34.2946V35.3579L116.877 40.5939V39.5306L125.887 34.2946Z" fill="#2E2E30"/>
<path d="M116.877 39.5307V40.594L112.991 38.3505V37.2871L116.877 39.5307Z" fill="#3E3D43"/>
<path d="M125.887 34.2947L116.877 39.5307L112.991 37.287L122.001 32.0512L125.887 34.2947Z" fill="#4B4A4F"/>
<path d="M121.78 36.6816L120.984 37.1442L117.098 34.9007L117.896 34.4366L121.78 36.6816Z" fill="#3E3D43"/>
<path d="M96.8736 17.7512L92.5276 20.2768L91.9705 20.6006L87.8637 22.9873V24.0505L91.7497 26.2941L100.76 21.0581V19.9948L96.8736 17.7512Z" fill="#3E3D43"/>
<path d="M100.759 19.9948V21.0581L91.7496 26.2941V25.2307L100.759 19.9948Z" fill="#2E2E30"/>
<path d="M91.7497 25.2306V26.2939L87.8637 24.0504V22.9871L91.7497 25.2306Z" fill="#3E3D43"/>
<path d="M100.76 19.9945L91.7497 25.2305L87.8637 22.987L96.8736 17.751L100.76 19.9945Z" fill="#4B4A4F"/>
<path d="M96.6528 22.3811L95.8566 22.8438L91.9705 20.6003L92.7689 20.1363L96.6528 22.3811Z" fill="#3E3D43"/>
<path d="M103.669 47.5505V39.821L96.709 35.79L94.1712 37.2649V42.067L89.9604 39.6359L87.4226 41.1107V49.1333L94.1266 53.0169L94.1046 60.7465L101.108 64.7775L103.646 63.3026V58.5082L107.858 60.9316L110.396 59.4568V51.4341L103.669 47.5505Z" fill="#A50020"/>
<path d="M101.108 57.0481L103.646 55.5732V63.3027L101.108 64.7775V57.0481Z" fill="#820018"/>
<path d="M87.4226 41.1106L89.9604 39.6357L96.6871 43.5193L94.1712 44.9942L87.4226 41.1106Z" fill="#DC0028"/>
<path d="M107.858 52.9089L110.396 51.4341V59.4569L107.858 60.9316V52.9089Z" fill="#820018"/>
<path d="M101.131 49.0256L103.669 47.5508L110.396 51.4344L107.858 52.9092L101.131 49.0256Z" fill="#DC0028"/>
<path d="M101.131 41.2961L103.669 39.8213V47.5507L101.131 49.0256V41.2961Z" fill="#820018"/>
<path d="M94.1714 37.2649L96.7092 35.79L103.669 39.821L101.131 41.2959L94.1714 37.2649Z" fill="#DC0028"/>
<path d="M101.131 41.2961V49.0256L107.858 52.9092V60.9319L101.108 57.0483V64.7777L94.1047 60.7467L94.1266 53.0173L87.4226 49.1335V41.111L94.1712 44.9946V37.2651L101.131 41.2961Z" fill="#B90024"/>
<path d="M116.081 24.6067L103.057 17.0874L100.733 18.438L98.3064 23.9957L100.824 25.4496L103.148 24.099L103.697 22.8413L112.163 27.7291L113.627 32.8412L116.145 34.2948L118.469 32.9444L116.081 24.6067Z" fill="#2E2E30"/>
<path d="M102.312 22.0414L104.636 20.6909L103.148 24.0988L100.824 25.4494L102.312 22.0414Z" fill="#1D1D1F"/>
<path d="M113.757 25.9568L116.081 24.6063L118.469 32.944L116.145 34.2945L113.757 25.9568Z" fill="#1D1D1F"/>
<path d="M100.733 18.4379L103.057 17.0873L116.081 24.6066L113.757 25.9571L100.733 18.4379Z" fill="#3E3D43"/>
<path d="M113.757 25.957L116.145 34.2947L113.627 32.8411L112.163 27.729L102.312 22.0415L100.824 25.4495L98.3064 23.9956L100.733 18.4379L113.757 25.957Z" fill="#2E2E30"/>
</g>
<defs>
<filter id="filter0_d" x="0.00495911" y="0.865028" width="220.735" height="169.7" filterUnits="userSpaceOnUse" color-interpolation-filters="sRGB">
<feFlood flood-opacity="0" result="BackgroundImageFix"/>
<feColorMatrix in="SourceAlpha" type="matrix" values="0 0 0 0 0 0 0 0 0 0 0 0 0 0 0 0 0 0 127 0"/>
<feOffset dx="2" dy="20"/>
<feGaussianBlur stdDeviation="25"/>
<feColorMatrix type="matrix" values="0 0 0 0 0.50276 0 0 0 0 0.591745 0 0 0 0 0.820833 0 0 0 0.3 0"/>
<feBlend mode="normal" in2="BackgroundImageFix" result="effect1_dropShadow"/>
<feBlend mode="normal" in="SourceGraphic" in2="effect1_dropShadow" result="shape"/>
</filter>
<filter id="filter1_d" x="51" y="16" width="91" height="91" filterUnits="userSpaceOnUse" color-interpolation-filters="sRGB">
<feFlood flood-opacity="0" result="BackgroundImageFix"/>
<feColorMatrix in="SourceAlpha" type="matrix" values="0 0 0 0 0 0 0 0 0 0 0 0 0 0 0 0 0 0 127 0"/>
<feOffset dx="-10" dy="15"/>
<feGaussianBlur stdDeviation="7.5"/>
<feColorMatrix type="matrix" values="0 0 0 0 0.700972 0 0 0 0 0.763917 0 0 0 0 0.858333 0 0 0 0.4 0"/>
<feBlend mode="normal" in2="BackgroundImageFix" result="effect1_dropShadow"/>
<feBlend mode="normal" in="SourceGraphic" in2="effect1_dropShadow" result="shape"/>
</filter>
<linearGradient id="paint0_linear" x1="1.27718" y1="57.9087" x2="48.137" y2="99.5248" gradientUnits="userSpaceOnUse">
<stop stop-color="#ECF2FF"/>
<stop offset="1" stop-color="#F3F8FE"/>
</linearGradient>
<clipPath id="clip0">
<rect width="61" height="61" fill="white" transform="translate(76 16)"/>
</clipPath>
</defs>
</svg>
