<svg width="256" height="191" viewBox="0 0 256 191" fill="none" xmlns="http://www.w3.org/2000/svg">
<g filter="url(#filter0_d)">
<circle r="63.5767" transform="matrix(0.866044 -0.499967 0.866044 0.499967 126.121 75.6595)" fill="#C8D3EF"/>
</g>
<circle r="63.5767" transform="matrix(0.866044 -0.499967 0.866044 0.499967 126.121 69.6595)" fill="#F7FAFF"/>
<g clip-path="url(#clip0)">
<g filter="url(#filter1_f)">
<ellipse cx="138.304" cy="84.2562" rx="16.5" ry="4.28125" transform="rotate(14.5603 138.304 84.2562)" fill="#CDD7F0" fill-opacity="0.8"/>
</g>
<g filter="url(#filter2_f)">
<ellipse cx="108.369" cy="73.8469" rx="12" ry="3" transform="rotate(14.1731 108.369 73.8469)" fill="#CDD7F0" fill-opacity="0.8"/>
</g>
</g>
<g clip-path="url(#clip1)">
<path d="M103.503 35.3831C103.503 35.3831 103.104 38.5096 103.258 38.6634C103.412 38.8173 104.119 39.248 104.289 39.248C104.458 39.248 105.697 38.7735 105.841 38.4493C105.966 38.1701 105.875 37.465 105.522 37.0412C105.116 36.5543 105.168 35.6985 105.168 35.6985L103.503 35.3831Z" fill="#D8DFF3"/>
<path d="M105.998 67.2294C105.998 67.2294 102.007 71.2326 102.822 71.7456C103.957 72.4599 108.573 69.512 108.573 69.2753C108.573 69.0388 108.246 66.741 108.246 66.741L105.998 67.2294Z" fill="#9EA6C3"/>
<path d="M112.126 70.9007C112.126 70.9007 108.265 75.1916 109.315 75.8948C110.429 76.6414 114.701 73.1834 114.701 72.9468C114.701 72.7103 114.374 70.4125 114.374 70.4125L112.126 70.9007Z" fill="#9EA6C3"/>
<path d="M117.618 44.6991C117.634 40.719 115.33 37.8788 115.33 37.8788L104.807 36.9475L105.831 66.9959C105.831 66.9959 105.769 67.773 106.976 67.8949C108.122 68.0108 108.396 67.2439 108.396 67.2439C108.396 67.2439 110.076 59.4779 108.82 53.3147C108.82 53.3147 109.648 50.4086 110.379 47.3285L111.191 47.5177L111.978 70.6218C111.978 70.6218 111.916 71.6163 113.123 71.7384C114.269 71.8543 114.547 70.9857 114.547 70.9857C114.547 70.9857 116.223 63.1039 114.967 56.9407C114.967 56.9407 117.607 47.6774 117.618 44.6991Z" fill="#3468EC"/>
<path d="M106.024 15.523C106.024 15.523 103.393 15.2231 103.783 23.3187C104.175 31.4608 103.323 35.5122 103.323 35.5122C103.323 35.5122 103.5 36.1143 104.534 36.1143C105.568 36.1143 105.74 35.7272 105.74 35.7272C105.74 35.7272 106.117 26.2768 106.163 25.8186C106.342 24.0282 108.014 15.9698 106.024 15.523Z" fill="#9EA6C3"/>
<path d="M104.363 37.5335C104.363 37.5335 105.148 33.6089 105.224 29.0388C105.251 27.3823 103.648 25.4563 103.648 23.4527C103.648 21.3664 104.421 18.3253 106.024 15.5227C106.024 15.5227 112.266 13.813 117.089 21.3453C117.089 21.3453 114.565 24.6364 114.279 30.2647C114.135 33.1034 116.105 38.5658 116.105 38.5658C111.324 42.3507 105.139 41.082 104.363 37.5335Z" fill="#9EA6C3"/>
<path d="M104.534 36.1143C104.559 36.1143 104.583 36.1134 104.606 36.1126C104.664 35.7361 104.727 35.2947 104.791 34.8001L105.177 30.465C105.2 29.9994 105.216 29.5232 105.224 29.039C105.245 27.7396 104.264 26.2745 103.84 24.7361C103.851 25.0894 103.861 25.4349 103.868 25.7713C104.257 26.6831 104.634 27.5844 104.833 28.1109C105.353 29.4842 104.054 36.0485 104.051 36.0611C104.186 36.094 104.346 36.1143 104.534 36.1143Z" fill="#717A97"/>
<path d="M108.492 14.5873C108.492 14.5873 108.172 17.0066 108.019 18.336C107.906 19.3194 109.644 19.9531 110.972 19.5357C112.3 19.1179 112.837 18.1358 112.837 18.1358C112.21 16.0262 112.251 12.9679 112.251 12.9679L108.492 14.5873Z" fill="#D8DFF3"/>
<path d="M105.511 10.2374C105.511 10.2374 105.829 14.8424 106.997 15.6633C108.166 16.4842 112.229 15.1769 113.876 12.4019C115.523 9.62692 114.896 3.86404 111.241 3.29872C106.971 2.63858 105.26 6.11636 105.511 10.2374Z" fill="#E4EAFD"/>
<path d="M105.73 11.2421C105.771 12.2825 106.132 14.2085 106.249 15.1113C105.351 13.4771 104.751 10.8732 104.722 9.00837C104.694 7.14359 105.393 5.01903 106.578 4.13147C107.755 3.25048 108.9 2.94608 110.369 3.00753C111.445 3.05258 113.017 3.86514 113.737 4.72104C114.332 5.42865 114.07 6.00453 112.976 6.56443C111.92 7.10509 110.425 7.35075 109.544 7.3238C107.385 7.25836 105.645 9.08322 105.73 11.2421Z" fill="#535E82"/>
<path d="M111.867 9.89437C112.508 11.1693 112.341 15.5389 112.107 15.9058C112.746 15.1163 113.952 13.6268 114.434 12.7327C114.573 12.4735 114.706 12.2091 114.794 11.9281C114.906 11.5682 114.941 11.1896 114.974 10.814C115.052 9.93643 115.124 9.0533 115.044 8.17588C114.965 7.29845 114.726 6.41945 114.227 5.69273C114.131 5.55158 114.018 5.41157 113.863 5.34013C113.572 5.20668 113.235 5.34826 112.954 5.49954C112.332 5.83317 111.111 6.36841 110.913 7.13021C110.679 8.0323 111.487 9.13899 111.867 9.89437Z" fill="#535E82"/>
<path d="M115.336 42.4001C115.336 42.4001 114.928 44.1817 114.976 44.5113C115.025 44.8411 115.381 45.1689 115.381 45.1689C115.381 45.1689 115.349 45.9677 115.658 46.1977C115.968 46.4277 117.762 45.5561 118.038 45.2735C118.425 44.8765 117.95 42.0148 117.95 42.0148C117.95 42.0148 115.784 40.9555 115.336 42.4001Z" fill="#D8DFF3"/>
<path d="M116.285 20.5551C115.501 20.3484 114.375 20.852 114.285 23.1053C114.195 25.3585 115.381 26.9525 115.181 34.2871C115.003 40.8386 115.135 42.2148 115.135 42.2148C115.135 42.2148 116.153 44.0017 118.283 42.3673C118.283 42.3673 118.298 31.9497 118.275 30.6207C118.136 22.3438 117.14 20.7808 116.285 20.5551Z" fill="#9EA6C3"/>
</g>
<g clip-path="url(#clip2)">
<path d="M131.036 39.8749C131.036 39.8749 130.693 43.1723 130.898 43.3771C131.103 43.582 132.044 44.1552 132.27 44.1552C132.495 44.1552 134.144 43.5235 134.337 43.0917C134.502 42.7202 134.381 41.7814 133.911 41.2171C133.37 40.569 133.44 39.4296 133.44 39.4296L131.036 39.8749Z" fill="#D8DFF3"/>
<path d="M135.546 16.8241C135.151 16.7823 132.813 17.237 132.361 20.8244C132.199 22.1172 131.843 27.138 131.674 31.4549C131.481 36.4012 131.036 39.875 131.036 39.875C131.036 41.0039 133.023 41.849 133.851 41.0209C133.975 40.8969 134.005 36.2099 135.006 29.4536C135.952 23.0635 138.296 17.1151 135.546 16.8241Z" fill="#D8DFF3"/>
<path d="M131.172 37.5183C131.038 38.9741 130.93 39.8219 130.93 39.8219C130.93 40.9912 132.988 41.8663 133.845 41.0088C133.897 40.9572 133.933 40.1365 134.025 38.7183C132.836 38.915 131.568 38.6736 131.172 37.5183Z" fill="#9EA6C3"/>
<path d="M134.845 76.7266C134.845 76.7266 129.265 82.1782 130.476 82.9397C132.162 84.0004 139.014 79.6232 139.014 79.2719C139.014 78.9206 138.529 75.509 138.529 75.509L134.845 76.7266Z" fill="#707FB0"/>
<path d="M142.409 80.9209C142.409 80.9209 137.022 86.7997 138.581 87.8436C140.235 88.9521 146.577 83.8177 146.577 83.4665C146.577 83.1152 146.092 79.7036 146.092 79.7036L142.409 80.9209Z" fill="#707FB0"/>
<path d="M133.649 42.9259L134.659 76.911C134.659 76.911 134.985 77.6951 136.785 77.6951C138.298 77.6951 138.651 76.3784 138.651 76.3784L139.684 52.1273L139.815 52.1461L142.124 81.2395C142.124 81.2395 142.656 82.2494 143.971 82.171C146.802 82.0022 146.242 80.7733 146.242 80.7733L146.838 44.0905L133.649 42.9259Z" fill="#D8DFF3"/>
<path d="M134.607 75.1669L134.545 77.035C134.545 77.035 134.985 78.5627 136.785 78.5627C138.298 78.5627 138.651 76.3788 138.651 76.3788L138.732 74.4717C137.546 75.3553 136.09 75.6681 134.607 75.1669Z" fill="#9EA6C3"/>
<path d="M146.276 78.7002C145.001 79.4914 143.495 79.8525 141.97 79.3L142.011 81.3631C142.011 81.3631 142.656 83.1165 143.971 83.0382C146.802 82.8693 146.242 80.7732 146.242 80.7732L146.276 78.7002Z" fill="#9EA6C3"/>
<path d="M146.425 61.1773C146.583 61.1094 146.75 61.0417 146.921 60.9718L147.194 44.1531L133.293 42.9259L133.77 58.9907C135.531 59.7657 137.433 60.3861 139.348 59.7923L139.654 52.6247L139.792 52.6443L140.414 60.4827C142.181 61.602 144.45 61.8356 146.425 61.1773Z" fill="#707FB0"/>
<path d="M133.233 42.6723C133.233 42.6723 132.884 36.8866 132.972 31.5555C133.046 27.0819 132.6 22.6654 132.621 21.5521C132.671 18.7926 134.407 16.8391 135.422 16.8218C135.422 16.8218 142.524 17.4063 148.455 22.0198C148.455 22.0198 147.831 45.1364 147.042 45.404C140.537 47.6109 133.496 43.8769 133.233 42.6723Z" fill="#9EA6C4"/>
<path d="M142.584 31.2728C143.012 33.8676 141.603 36.058 139.436 36.1651C137.27 36.2722 135.166 34.2554 134.738 31.6604C134.31 29.0656 135.719 26.8754 137.886 26.7681C140.052 26.6612 142.156 28.678 142.584 31.2728Z" fill="#9EA6C3"/>
<path d="M143.96 58.0047C144.102 58.864 143.635 59.5894 142.918 59.6249C142.2 59.6602 141.503 58.9925 141.362 58.1332C141.22 57.2739 141.687 56.5486 142.404 56.5131C143.121 56.4777 143.818 57.1454 143.96 58.0047Z" fill="#9EA6C4"/>
<path d="M146.266 28.1966L145.948 45.7188C146.314 45.6312 146.679 45.5274 147.043 45.4042C147.224 45.3427 147.397 44.0682 147.556 42.1452L146.266 28.1966Z" fill="#707FB0"/>
<path d="M138.165 15.506C138.165 15.506 137.791 18.3282 137.613 19.879C137.481 21.0262 139.508 21.7654 141.057 21.2783C142.606 20.7912 143.232 19.6454 143.232 19.6454C142.502 17.1844 142.549 13.6169 142.549 13.6169L138.165 15.506Z" fill="#D8DFF3"/>
<path d="M134.474 10.8677C134.474 10.8677 134.828 16.1694 136.103 17.1162C137.378 18.0631 141.373 17.1552 143.595 13.3722C145.449 10.2162 144.675 4.02582 140.691 3.36956C136.036 2.60307 134.195 6.1231 134.474 10.8677Z" fill="#E4EAFD"/>
<path d="M140.692 3.08982C136.855 2.54545 134.723 4.49581 134.443 8.43403C137.546 10.4906 139.576 7.94976 140.678 9.20899C141.747 10.5834 141.639 13.7772 141.852 13.5566C142.226 11.5814 142.255 10.2723 143.232 10.109C144.324 9.92651 143.829 11.8483 143.72 12.8602C145.765 9.60029 144.173 3.58372 140.692 3.08982Z" fill="#3468EC"/>
<path d="M146.953 47.7417C146.953 47.7417 146.891 49.7586 146.948 50.1435C147.005 50.5281 147.42 50.9103 147.42 50.9103C147.42 50.9103 147.382 51.8423 147.744 52.1106C148.105 52.3789 150.198 51.3622 150.519 51.0325C150.971 50.5691 150.417 47.2311 150.417 47.2311C150.417 47.2311 147.475 46.0567 146.953 47.7417Z" fill="#D8DFF3"/>
<path d="M148.455 22.0197C148.455 22.0197 146.246 22.5439 146.141 25.1724C146.036 27.8009 146.801 30.148 146.924 38.7971C147.032 46.4416 146.953 47.7417 146.953 47.7417C146.953 47.7417 147.932 49.1377 150.417 47.231C150.417 47.231 150.47 35.4896 150.444 33.9393C150.282 24.2842 150.201 23.0726 148.455 22.0197Z" fill="#D8DFF3"/>
<path d="M146.823 45.1075C146.823 47.3506 146.792 47.8702 146.792 47.8702C146.792 47.8702 147.862 49.395 150.576 47.3126C150.576 47.3126 150.582 46.0616 150.589 44.2896C149.519 44.9576 148.302 45.326 146.823 45.1075Z" fill="#9EA6C3"/>
<path d="M142.05 13.0522C142.05 13.0522 142.467 10.1288 143.333 10.09C143.943 10.0628 144.209 11.3245 143.76 12.2947C143.311 13.2649 142.05 14.1695 142.05 14.1695V13.0522Z" fill="#E4EAFD"/>
</g>
<defs>
<filter id="filter0_d" x="0.253563" y="0.70694" width="255.734" height="189.905" filterUnits="userSpaceOnUse" color-interpolation-filters="sRGB">
<feFlood flood-opacity="0" result="BackgroundImageFix"/>
<feColorMatrix in="SourceAlpha" type="matrix" values="0 0 0 0 0 0 0 0 0 0 0 0 0 0 0 0 0 0 127 0"/>
<feOffset dx="2" dy="20"/>
<feGaussianBlur stdDeviation="25"/>
<feColorMatrix type="matrix" values="0 0 0 0 0.50276 0 0 0 0 0.591745 0 0 0 0 0.820833 0 0 0 0.3 0"/>
<feBlend mode="normal" in2="BackgroundImageFix" result="effect1_dropShadow"/>
<feBlend mode="normal" in="SourceGraphic" in2="effect1_dropShadow" result="shape"/>
</filter>
<filter id="filter1_f" x="112.297" y="68.3929" width="52.0139" height="31.7264" filterUnits="userSpaceOnUse" color-interpolation-filters="sRGB">
<feFlood flood-opacity="0" result="BackgroundImageFix"/>
<feBlend mode="normal" in="SourceGraphic" in2="BackgroundImageFix" result="shape"/>
<feGaussianBlur stdDeviation="5" result="effect1_foregroundBlur"/>
</filter>
<filter id="filter2_f" x="86.711" y="59.7125" width="43.3166" height="28.2689" filterUnits="userSpaceOnUse" color-interpolation-filters="sRGB">
<feFlood flood-opacity="0" result="BackgroundImageFix"/>
<feBlend mode="normal" in="SourceGraphic" in2="BackgroundImageFix" result="shape"/>
<feGaussianBlur stdDeviation="5" result="effect1_foregroundBlur"/>
</filter>
<clipPath id="clip0">
<rect width="81" height="40" fill="white" transform="translate(84 58)"/>
</clipPath>
<clipPath id="clip1">
<rect width="73" height="73" fill="white" transform="translate(74 3)"/>
</clipPath>
<clipPath id="clip2">
<rect width="85" height="85" fill="white" transform="translate(98 3)"/>
</clipPath>
</defs>
</svg>
