<svg width="378" height="287" viewBox="0 0 378 287" fill="none" xmlns="http://www.w3.org/2000/svg">
<g filter="url(#filter0_d)">
<circle r="104.12" transform="matrix(0.905819 -0.423665 0.905819 0.423665 188.628 153.776)" fill="#C8D3EF"/>
</g>
<circle r="104.12" transform="matrix(0.905819 -0.423665 0.905819 0.423665 188.628 145.448)" fill="url(#paint0_linear)"/>
<g filter="url(#filter1_f)">
<ellipse cx="245.328" cy="177.457" rx="45.5653" ry="12.3412" transform="rotate(-13.7172 245.328 177.457)" fill="#C8D3EF"/>
</g>
<g filter="url(#filter2_f)">
<path d="M186.767 130.357L165.725 118.271C165.375 118.093 164.989 118 164.596 118C164.204 118 163.817 118.093 163.468 118.271L93.7247 158.348C93.588 158.393 93.4691 158.48 93.3849 158.596C93.3007 158.713 93.2554 158.853 93.2554 158.996C93.2554 159.139 93.3007 159.279 93.3849 159.395C93.4691 159.512 93.588 159.599 93.7247 159.644L114.762 171.735C115.113 171.909 115.499 172 115.891 172C116.283 172 116.669 171.909 117.019 171.735L123.236 168.162L180.546 135.322L186.772 131.679C186.913 131.633 187.036 131.545 187.123 131.426C187.209 131.307 187.256 131.163 187.255 131.016C187.255 130.869 187.207 130.726 187.119 130.607C187.032 130.489 186.908 130.401 186.767 130.357Z" fill="#C8D3EF"/>
</g>
<path d="M256.624 168.766L253.911 167.325C253.911 167.325 254.176 154.081 256.923 143.824C259.737 133.322 267.926 121.721 275.664 126.068C283.403 130.416 269.649 139.35 265.512 147.973C261.375 156.596 256.624 168.766 256.624 168.766Z" fill="#3468EC"/>
<path opacity="0.15" d="M256.624 168.766L253.911 167.325C253.911 167.325 254.176 154.081 256.923 143.824C259.737 133.322 267.926 121.721 275.664 126.068C283.403 130.416 269.649 139.35 265.512 147.973C261.375 156.596 256.624 168.766 256.624 168.766Z" fill="black"/>
<path d="M256.266 165.624C256.23 165.623 256.194 165.614 256.162 165.6C256.129 165.585 256.099 165.564 256.075 165.538C256.05 165.511 256.031 165.48 256.018 165.447C256.005 165.413 255.999 165.377 256 165.341C256.582 144.789 265.567 132.24 273.086 127.741C273.149 127.703 273.224 127.692 273.294 127.71C273.365 127.728 273.426 127.773 273.463 127.835C273.501 127.898 273.512 127.973 273.494 128.044C273.476 128.114 273.431 128.175 273.368 128.212C265.967 132.64 257.125 145.025 256.548 165.354C256.547 165.39 256.54 165.426 256.525 165.46C256.511 165.493 256.49 165.523 256.463 165.548C256.437 165.573 256.406 165.593 256.372 165.606C256.338 165.619 256.302 165.625 256.266 165.624Z" fill="white"/>
<path d="M257.85 169.398L255.427 168.155C255.427 168.155 255.726 161.651 260.71 153.176C265.133 145.648 274.097 139.75 277.863 141.852C280.787 143.478 281.461 147.042 278.659 149.414C275.858 151.785 262.926 156.76 257.85 169.398Z" fill="#7C9FF9"/>
<path d="M256.876 167.321C257.298 167.406 257.445 166.365 257.529 166.1C257.689 165.603 257.858 165.114 258.043 164.625C258.406 163.675 258.818 162.744 259.277 161.837C260.162 160.091 261.198 158.426 262.374 156.862C263.472 155.397 264.67 154.009 265.959 152.708C267.121 151.538 268.344 150.43 269.623 149.389C270.693 148.512 271.805 147.683 272.947 146.903C273.79 146.33 274.632 145.783 275.512 145.269C275.972 144.999 276.431 144.734 276.907 144.49L277.042 144.422C277.117 144.385 277.175 144.32 277.202 144.241C277.229 144.161 277.224 144.074 277.187 143.999C277.15 143.923 277.085 143.866 277.005 143.838C276.926 143.811 276.839 143.817 276.764 143.853C276.469 143.997 276.186 144.157 275.921 144.317C275.18 144.738 274.455 145.159 273.743 145.631C272.687 146.314 271.657 147.035 270.651 147.796C269.404 148.74 268.207 149.741 267.058 150.8C265.749 151.999 264.516 153.279 263.368 154.633C262.123 156.093 260.996 157.65 259.998 159.288C258.936 161.022 258.047 162.856 257.344 164.764C257.212 165.132 257.086 165.499 256.965 165.864C256.788 166.228 256.68 166.622 256.649 167.026C256.654 167.091 256.677 167.152 256.715 167.204C256.753 167.256 256.804 167.297 256.864 167.321H256.876Z" fill="white"/>
<path d="M117.061 142.101C117.061 142.101 117.133 133.281 113.666 125.981C110.198 118.682 104.774 113.743 99.2732 112.614C93.7725 111.485 88.6992 116.028 94.1863 120.26C99.6735 124.493 109.753 129.391 112.973 143.1L117.061 142.101Z" fill="#3468EC"/>
<path opacity="0.15" d="M117.061 142.101C117.061 142.101 117.133 133.281 113.666 125.981C110.198 118.682 104.774 113.743 99.2732 112.614C93.7725 111.485 88.6992 116.028 94.1863 120.26C99.6735 124.493 109.753 129.391 112.973 143.1L117.061 142.101Z" fill="black"/>
<path d="M114.768 140.576C114.71 140.576 114.655 140.555 114.613 140.515C114.572 140.476 114.546 140.422 114.543 140.365C113.697 126.247 102.066 117.067 96.3183 115.502C96.2612 115.486 96.2127 115.448 96.1832 115.397C96.1538 115.346 96.1457 115.285 96.1609 115.227C96.1767 115.169 96.2149 115.119 96.2671 115.089C96.3193 115.059 96.3813 115.05 96.4398 115.065C102.287 116.662 114.134 125.995 114.993 140.338C114.994 140.397 114.973 140.454 114.934 140.499C114.895 140.543 114.84 140.571 114.781 140.576H114.768Z" fill="white"/>
<path d="M117.772 154.209C118.886 152.803 119.634 151.142 119.948 149.376C120.262 147.61 120.133 145.793 119.571 144.089C119.245 143.06 118.722 142.104 118.033 141.274C117.48 140.621 116.684 140.284 116.036 139.74C114.642 138.584 113.023 137.356 112.519 135.521C112.114 134.059 112.2 132.674 111.39 131.302C110.913 130.443 110.153 129.776 109.24 129.413C108.048 128.963 106.735 129.26 105.475 129.413C103.676 129.616 102.327 128.995 100.771 128.167C99.0573 127.268 97.0558 126.557 95.1983 127.11C94.5942 127.289 94.0344 127.593 93.5553 128.002C93.0761 128.412 92.6883 128.917 92.4169 129.486C92.1455 130.054 91.9966 130.673 91.9799 131.303C91.9632 131.933 92.079 132.559 92.3198 133.142C92.7336 134.149 93.4982 134.968 94.0604 135.903C94.6226 136.839 94.9194 137.909 94.5102 138.93C94.1953 139.686 93.6106 140.28 93.3767 141.049C92.7111 143.073 93.0844 144.872 95.0948 145.915C97.1953 146.99 100.492 146.18 101.545 148.821C101.94 149.824 101.954 150.934 102.17 151.991C102.613 154.119 103.85 155.997 105.628 157.245C108.044 158.922 111.322 158.513 113.828 157.344C115.367 156.617 116.717 155.544 117.772 154.209Z" fill="#7C9FF9"/>
<path d="M98.8368 141.435C98.886 141.444 98.9365 141.436 98.9808 141.413C100.752 140.728 102.653 140.444 104.548 140.581C106.442 140.718 108.282 141.272 109.937 142.204C109.994 142.235 110.06 142.241 110.122 142.223C110.183 142.204 110.235 142.162 110.265 142.106C110.281 142.078 110.291 142.047 110.295 142.016C110.299 141.984 110.296 141.952 110.288 141.921C110.279 141.891 110.264 141.862 110.244 141.838C110.224 141.813 110.199 141.792 110.171 141.777C108.452 140.812 106.54 140.239 104.573 140.101C102.607 139.962 100.634 140.261 98.7964 140.977C98.7532 141 98.7182 141.037 98.6961 141.081C98.674 141.125 98.6658 141.174 98.6726 141.223C98.6795 141.272 98.701 141.318 98.7343 141.354C98.7677 141.39 98.8113 141.415 98.8593 141.426L98.8368 141.435Z" fill="white"/>
<path d="M114.543 154.286C114.484 154.287 114.427 154.265 114.384 154.225C114.341 154.184 114.316 154.129 114.313 154.07C113.895 143.905 103.69 133.156 96.8489 130.232C96.8213 130.221 96.7961 130.204 96.775 130.183C96.7539 130.162 96.7372 130.137 96.7259 130.109C96.7146 130.082 96.7089 130.052 96.7092 130.022C96.7095 129.992 96.7157 129.963 96.7274 129.935C96.7521 129.88 96.7976 129.837 96.854 129.815C96.9105 129.793 96.9733 129.794 97.0288 129.818C103.978 132.796 114.34 143.725 114.768 154.061C114.769 154.091 114.764 154.121 114.754 154.149C114.743 154.178 114.727 154.204 114.707 154.226C114.686 154.248 114.662 154.266 114.634 154.278C114.607 154.291 114.577 154.298 114.547 154.299L114.543 154.286Z" fill="white"/>
<path d="M170.872 9.04348L119.967 38.4223C119.463 38.7513 119.044 39.1952 118.745 39.7174C118.445 40.2397 118.274 40.8254 118.245 41.4267V161.303C118.245 162.401 119.018 162.846 119.967 162.293L170.872 132.905C171.373 132.577 171.789 132.135 172.088 131.617C172.388 131.098 172.561 130.516 172.594 129.918V10.024C172.594 8.92654 171.821 8.47677 170.872 9.04348ZM170.116 121.036C170.116 121.976 169.455 122.574 168.641 123.041L122.027 149.965C121.217 150.414 120.552 150.055 120.552 149.11V49.4191C120.552 48.9036 120.688 48.3973 120.946 47.9512C121.204 47.505 121.576 47.1348 122.023 46.8779L168.636 19.9503C168.786 19.8635 168.956 19.8175 169.129 19.8171C169.302 19.8167 169.472 19.8618 169.622 19.948C169.772 20.0341 169.896 20.1583 169.983 20.3079C170.07 20.4576 170.116 20.6274 170.116 20.8004V121.036Z" fill="#BBC4DC"/>
<path d="M170.116 121.035C170.116 121.975 169.455 122.574 168.641 123.041L122.027 149.964C121.217 150.414 120.552 150.054 120.552 149.11V49.4189C120.552 48.9035 120.688 48.3971 120.946 47.951C121.204 47.5049 121.576 47.1347 122.023 46.8777L168.636 19.9502C168.786 19.8633 168.956 19.8173 169.129 19.8169C169.302 19.8165 169.472 19.8616 169.622 19.9478C169.772 20.034 169.896 20.1581 169.983 20.3077C170.07 20.4574 170.116 20.6272 170.116 20.8002V121.035Z" fill="#C8D7FF"/>
<path d="M121.731 150.155L168.345 123.241C168.672 123.064 168.974 122.845 169.244 122.589L120.255 95V149.3C120.255 150.245 120.921 150.623 121.731 150.155Z" fill="#37474F"/>
<path d="M166.343 119.286V21.2769L122.023 46.8776C121.576 47.1346 121.204 47.5047 120.946 47.9509C120.688 48.397 120.552 48.9033 120.552 49.4188V146.879L164.867 121.292C165.681 120.824 166.343 120.226 166.343 119.286Z" fill="#7D9AE3"/>
<path d="M119.751 162.414C119.237 162.63 118.682 162.733 118.125 162.714C117.567 162.696 117.02 162.556 116.522 162.306L114.552 161.168C114.049 160.842 113.631 160.402 113.33 159.884C113.03 159.366 112.857 158.784 112.825 158.186V38.2778C112.836 37.8334 112.937 37.3958 113.122 36.9914C113.185 36.852 113.252 36.7171 113.329 36.5776L118.726 39.726C118.612 39.9288 118.513 40.1392 118.429 40.3557C118.298 40.6963 118.226 41.0568 118.217 41.4216V161.303C118.244 162.315 118.901 162.773 119.751 162.414Z" fill="#D7E2FF"/>
<path d="M146.94 138.261C148.041 138.261 148.158 139.498 148.158 140.029C148.093 141.092 147.781 142.126 147.248 143.048C146.715 143.971 145.975 144.757 145.086 145.345C144.73 145.572 144.321 145.702 143.899 145.723C142.797 145.723 142.68 144.486 142.68 143.955C142.747 142.892 143.058 141.858 143.59 140.935C144.122 140.012 144.861 139.225 145.748 138.635C146.107 138.412 146.517 138.283 146.94 138.261Z" fill="#3468EC"/>
<path d="M145.383 25.644C145.833 25.3742 146.224 25.59 146.224 26.1298C146.208 26.4215 146.123 26.7054 145.977 26.9585C145.831 27.2116 145.628 27.4269 145.383 27.587C144.934 27.8524 144.538 27.6365 144.538 27.1013C144.553 26.8087 144.638 26.5241 144.785 26.2707C144.932 26.0173 145.137 25.8025 145.383 25.644Z" fill="#8E9FCB"/>
<path d="M139.95 32.7457C140.364 32.5073 140.697 32.7007 140.697 33.1954C140.683 33.4543 140.608 33.7062 140.479 33.9305C140.349 34.1549 140.168 34.3453 139.95 34.4863C139.537 34.7247 139.204 34.5313 139.204 34.0365C139.218 33.7779 139.293 33.5262 139.423 33.302C139.553 33.0777 139.733 32.8872 139.95 32.7457Z" fill="#8E9FCB"/>
<path d="M142.447 31.271L150.808 26.445C151.257 26.1796 151.635 26.3685 151.635 26.8632C151.613 27.1411 151.527 27.41 151.384 27.6488C151.24 27.8877 151.043 28.0899 150.808 28.2395L142.447 33.0655C141.997 33.3309 141.619 33.142 141.619 32.6473C141.641 32.3694 141.727 32.1005 141.871 31.8616C142.014 31.6228 142.211 31.4206 142.447 31.271Z" fill="#8E9FCB"/>
<path d="M172.576 9.74913C172.451 8.8496 171.735 8.53026 170.876 9.0295L119.963 38.4218C119.453 38.7381 119.035 39.1813 118.748 39.7081L113.351 36.5598C113.642 36.0371 114.062 35.5975 114.57 35.2824L165.452 5.89463C165.986 5.62396 166.576 5.48291 167.175 5.48291C167.773 5.48291 168.363 5.62396 168.897 5.89463L170.876 7.02804C171.338 7.33398 171.728 7.73511 172.021 8.20446C172.314 8.67381 172.504 9.2005 172.576 9.74913Z" fill="#EAEFFC"/>
<path d="M159.223 13.3867C158.959 13.5278 158.665 13.6042 158.365 13.6097C158.066 13.6152 157.769 13.5495 157.5 13.4182C157.41 13.3797 157.332 13.3176 157.274 13.2385C157.216 13.1593 157.181 13.066 157.172 12.9684C157.172 12.8425 157.172 12.3747 157.172 12.2443C157.186 12.132 157.229 12.0254 157.297 11.9348C157.365 11.8442 157.455 11.7726 157.559 11.727L163.014 8.57867C163.28 8.43856 163.574 8.36272 163.874 8.35725C164.174 8.35178 164.471 8.41684 164.741 8.54719C164.83 8.58743 164.906 8.6501 164.963 8.729C165.02 8.80789 165.055 8.90027 165.065 8.99696C165.065 9.12739 165.065 9.61314 165.065 9.73907C165.051 9.85197 165.008 9.95931 164.94 10.0507C164.872 10.1421 164.782 10.2145 164.678 10.2608L159.223 13.3867Z" fill="#8E9FCB"/>
<path opacity="0.25" d="M159.223 13.3867C158.959 13.5278 158.665 13.6042 158.365 13.6097C158.066 13.6152 157.769 13.5495 157.5 13.4182C157.41 13.3797 157.332 13.3176 157.274 13.2385C157.216 13.1593 157.181 13.066 157.172 12.9684C157.172 12.8425 157.172 12.3747 157.172 12.2443C157.186 12.132 157.229 12.0254 157.297 11.9348C157.365 11.8442 157.455 11.7726 157.559 11.727L163.014 8.57867C163.28 8.43856 163.574 8.36272 163.874 8.35725C164.174 8.35178 164.471 8.41684 164.741 8.54719C164.83 8.58743 164.906 8.6501 164.963 8.729C165.02 8.80789 165.055 8.90027 165.065 8.99696C165.065 9.12739 165.065 9.61314 165.065 9.73907C165.051 9.85197 165.008 9.95931 164.94 10.0507C164.872 10.1421 164.782 10.2145 164.678 10.2608L159.223 13.3867Z" fill="#2E3345"/>
<path d="M159.223 12.673L164.679 9.52467C165.173 9.23682 165.196 8.79155 164.737 8.52619C164.467 8.39584 164.17 8.33079 163.87 8.33626C163.57 8.34172 163.275 8.41757 163.01 8.55767L157.554 11.706C157.064 11.9894 157.037 12.4347 157.5 12.7C157.769 12.831 158.066 12.8968 158.365 12.8922C158.664 12.8875 158.958 12.8124 159.223 12.673Z" fill="#8E9FCB"/>
<path opacity="0.3" d="M159.223 12.673L164.679 9.52467C165.173 9.23682 165.196 8.79155 164.737 8.52619C164.467 8.39584 164.17 8.33079 163.87 8.33626C163.57 8.34172 163.275 8.41757 163.01 8.55767L157.554 11.706C157.064 11.9894 157.037 12.4347 157.5 12.7C157.769 12.831 158.066 12.8968 158.365 12.8922C158.664 12.8875 158.958 12.8124 159.223 12.673Z" fill="#2E3345"/>
<path d="M116.234 56.3455C116.223 56.0461 116.142 55.7536 115.997 55.4917C115.851 55.2298 115.646 55.0061 115.398 54.8388C115.316 54.7787 115.22 54.7422 115.119 54.7335C115.018 54.7248 114.917 54.7441 114.826 54.7893C114.723 54.8523 114.309 55.0816 114.201 55.1491C114.111 55.2175 114.04 55.3082 113.995 55.4122C113.95 55.5162 113.933 55.6301 113.945 55.7428V69.1099C113.956 69.4087 114.037 69.7007 114.181 69.9625C114.326 70.2242 114.53 70.4483 114.777 70.6166C114.858 70.6713 114.952 70.7042 115.05 70.7121C115.148 70.7199 115.246 70.7026 115.335 70.6616C115.452 70.6031 115.87 70.3602 115.982 70.2928C116.073 70.2244 116.144 70.1337 116.189 70.0297C116.234 69.9256 116.251 69.8118 116.239 69.6991L116.234 56.3455Z" fill="#8E9FCB"/>
<path opacity="0.3" d="M116.234 56.3455C116.223 56.0461 116.142 55.7536 115.997 55.4917C115.851 55.2298 115.646 55.0061 115.398 54.8388C115.316 54.7787 115.22 54.7422 115.119 54.7335C115.018 54.7248 114.917 54.7441 114.826 54.7893C114.723 54.8523 114.309 55.0816 114.201 55.1491C114.111 55.2175 114.04 55.3082 113.995 55.4122C113.95 55.5162 113.933 55.6301 113.945 55.7428V69.1099C113.956 69.4087 114.037 69.7007 114.181 69.9625C114.326 70.2242 114.53 70.4483 114.777 70.6166C114.858 70.6713 114.952 70.7042 115.05 70.7121C115.148 70.7199 115.246 70.7026 115.335 70.6616C115.452 70.6031 115.87 70.3602 115.982 70.2928C116.073 70.2244 116.144 70.1337 116.189 70.0297C116.234 69.9256 116.251 69.8118 116.239 69.6991L116.234 56.3455Z" fill="#2E3345"/>
<path d="M115.613 56.719V70.0861C115.613 70.6528 115.24 70.8956 114.777 70.6303C114.53 70.462 114.326 70.2379 114.181 69.9761C114.037 69.7144 113.956 69.4224 113.945 69.1236V55.743C113.945 55.1718 114.318 54.9289 114.777 55.1943C115.027 55.3639 115.234 55.5906 115.379 55.8557C115.525 56.1208 115.605 56.4167 115.613 56.719Z" fill="#8E9FCB"/>
<path opacity="0.5" d="M115.613 56.719V70.0861C115.613 70.6528 115.24 70.8956 114.777 70.6303C114.53 70.462 114.326 70.2379 114.181 69.9761C114.037 69.7144 113.956 69.4224 113.945 69.1236V55.743C113.945 55.1718 114.318 54.9289 114.777 55.1943C115.027 55.3639 115.234 55.5906 115.379 55.8557C115.525 56.1208 115.605 56.4167 115.613 56.719Z" fill="#2E3345"/>
<path d="M116.234 74.26C116.223 73.9607 116.142 73.6681 115.997 73.4063C115.851 73.1444 115.646 72.9206 115.398 72.7533C115.316 72.6932 115.22 72.6568 115.119 72.648C115.018 72.6393 114.917 72.6586 114.826 72.7038C114.723 72.7668 114.309 72.9962 114.201 73.0637C114.111 73.1321 114.04 73.2227 113.995 73.3268C113.95 73.4308 113.933 73.5447 113.945 73.6574V79.9541C113.956 80.2521 114.038 80.5433 114.182 80.8042C114.327 81.0651 114.53 81.2884 114.777 81.4563C114.855 81.5145 114.948 81.5506 115.045 81.5609C115.143 81.5711 115.241 81.5552 115.33 81.5148C115.447 81.4563 115.865 81.2134 115.978 81.146C116.068 81.0783 116.139 80.9884 116.183 80.8852C116.228 80.7819 116.246 80.6688 116.234 80.5568V74.26Z" fill="#8E9FCB"/>
<path opacity="0.3" d="M116.234 74.26C116.223 73.9607 116.142 73.6681 115.997 73.4063C115.851 73.1444 115.646 72.9206 115.398 72.7533C115.316 72.6932 115.22 72.6568 115.119 72.648C115.018 72.6393 114.917 72.6586 114.826 72.7038C114.723 72.7668 114.309 72.9962 114.201 73.0637C114.111 73.1321 114.04 73.2227 113.995 73.3268C113.95 73.4308 113.933 73.5447 113.945 73.6574V79.9541C113.956 80.2521 114.038 80.5433 114.182 80.8042C114.327 81.0651 114.53 81.2884 114.777 81.4563C114.855 81.5145 114.948 81.5506 115.045 81.5609C115.143 81.5711 115.241 81.5552 115.33 81.5148C115.447 81.4563 115.865 81.2134 115.978 81.146C116.068 81.0783 116.139 80.9884 116.183 80.8852C116.228 80.7819 116.246 80.6688 116.234 80.5568V74.26Z" fill="#2E3345"/>
<path d="M115.613 74.5973V80.8941C115.613 81.4608 115.24 81.7082 114.777 81.4383C114.53 81.27 114.326 81.0459 114.181 80.7842C114.037 80.5224 113.956 80.2304 113.945 79.9316V73.6348C113.945 73.0681 114.318 72.8208 114.777 73.0861C115.025 73.2549 115.23 73.4796 115.375 73.7421C115.52 74.0046 115.602 74.2975 115.613 74.5973Z" fill="#8E9FCB"/>
<path opacity="0.4" d="M115.613 74.5973V80.8941C115.613 81.4608 115.24 81.7082 114.777 81.4383C114.53 81.27 114.326 81.0459 114.181 80.7842C114.037 80.5224 113.956 80.2304 113.945 79.9316V73.6348C113.945 73.0681 114.318 72.8208 114.777 73.0861C115.025 73.2549 115.23 73.4796 115.375 73.7421C115.52 74.0046 115.602 74.2975 115.613 74.5973Z" fill="#2E3345"/>
<path d="M133.032 73.6351C133.068 73.8233 133.117 74.0086 133.178 74.1896C133.415 74.872 133.841 75.5157 133.805 76.2447C133.765 77.0667 133.156 77.7026 132.689 78.3579C132.083 79.2244 131.679 80.2317 131.51 81.2968C131.342 82.362 131.414 83.4546 131.72 84.4844C132.168 85.7388 132.79 86.9151 133.564 87.9742L135.325 90.6303C135.857 91.374 136.536 91.9843 137.315 92.4179C138.828 93.3275 140.515 93.858 142.25 93.9689C145.101 94.1736 147.937 93.3826 150.327 91.7161C152.86 89.9324 151.745 85.3569 154.336 83.6857C157.471 81.6693 158.965 74.6665 155.124 71.7428C155.124 71.7428 155.743 67.4543 154.606 66.3608C153.473 65.352 152.07 64.7471 150.597 64.6314C148.563 64.4065 146.525 64.8292 144.495 64.8214C142.405 64.8143 140.317 64.9528 138.244 65.2363C137.515 65.341 136.487 65.6241 136.094 66.3802C135.983 66.6768 135.952 67.0006 136.006 67.3147C136.001 67.8129 135.833 68.2938 135.532 68.6757C135.08 69.2573 134.439 69.649 133.958 70.1957C133.561 70.6516 133.27 71.2005 133.109 71.7979C132.948 72.3954 132.922 73.0247 133.032 73.6351Z" fill="#2E3345"/>
<path d="M153.261 79.8232C156.542 79.9202 156.968 80.6647 159.906 83.759C162.348 86.3298 170.439 94.2748 170.439 94.2748L180.135 97.0201L177.846 103.313C177.846 103.313 175.659 103.216 171.285 103.213C168.599 103.213 167.666 102.573 164.961 100.653C163.583 99.6724 155.809 94.2593 155.809 94.2593L153.261 79.8232Z" fill="url(#paint1_linear)"/>
<path d="M190.862 84.2944L173.093 90.956L168.194 113.446L168.591 113.896L185.486 107.191L191.255 84.7442L190.862 84.2944Z" fill="#D7E1FA"/>
<path opacity="0.35" d="M173.487 91.4054L168.591 113.895L168.194 113.445L173.093 90.9556L173.487 91.4054Z" fill="black"/>
<g opacity="0.2">
<path opacity="0.2" d="M182.843 102.615C183.007 103.057 184.37 104.031 186.342 103.856L186.674 102.561L182.843 102.615Z" fill="black"/>
</g>
<g opacity="0.1">
<path opacity="0.1" d="M185.905 89.3503L186.051 88.5942C186.131 88.1793 185.089 88.3965 183.722 89.0828L180.514 90.1142C179.147 90.8005 177.857 91.3124 177.773 91.7273L177.627 92.4795L185.905 89.3503Z" fill="black"/>
</g>
<path d="M186.962 85.9379C187.013 85.6781 186.597 85.7324 186.04 85.8914L185.015 86.2598C185.015 86.2598 185.435 85.1663 183.011 85.872C180.346 86.6475 180.288 88.0551 180.288 88.0551C179.871 88.2474 179.444 88.4131 179.009 88.5514C178.123 88.8577 178.028 89.04 177.955 89.3037L177.824 89.7806L186.882 86.3916C186.882 86.3916 186.925 86.1977 186.962 85.9379Z" fill="#7A8FC5"/>
<path d="M186.007 87.3847C185.169 87.7724 184.822 87.9857 184.695 88.6293C184.553 89.3622 184.523 89.6685 184.523 89.6685L179.807 91.6461C179.807 91.6461 180.062 90.5642 180.124 90.2036C180.186 89.843 179.563 89.843 178.746 90.2424L178.939 89.3428L186.277 86.4463L186.007 87.3847Z" fill="#7A8FC5"/>
<path d="M186.145 89.3623C186.145 89.3623 186.215 89.025 186.295 88.6062C186.375 88.1874 185.332 88.4084 183.966 89.0948L180.758 90.1262C179.391 90.8125 178.097 91.3243 178.017 91.7392L177.871 92.5148L186.145 89.3623Z" fill="#7A8FC5"/>
<path d="M189.28 92.4363C189.28 92.4363 188.649 94.9024 188.482 95.5384C188.314 96.1743 185.405 97.5896 183.951 97.7835C181.166 98.1518 180.849 98.7916 181.516 100.885C182.136 102.824 183.948 103.561 186.463 103.247C187.643 103.1 189.273 101.987 189.914 100.044C190.731 97.5624 190.279 94.9141 190.618 93.4522C190.957 91.9904 189.987 91.5716 189.28 92.4363Z" fill="#FFC6AE"/>
<path d="M161.746 126.349L159.862 127.513L159.071 127.997L148.705 134.36L147.291 135.213L144.903 136.679L145.632 128.765L147.025 113.441V113.282L147.09 112.596L148.913 92.5604L149.711 83.7933L149.992 80.6486L150.086 79.6327H150.138C150.982 79.3829 151.874 79.3829 152.718 79.6327C152.906 79.6934 153.089 79.7712 153.265 79.8653C154.358 80.4431 155.087 81.5675 155.692 82.7502C155.841 83.0382 155.975 83.3346 156.093 83.6382C156.543 84.7875 156.889 85.9793 157.128 87.1977C157.606 89.4467 158.222 91.7461 158.466 95.3716C158.505 96.3048 158.458 97.2397 158.328 98.1634C158.163 100.608 158.135 103.06 158.244 105.507C158.55 111.052 159.862 113.565 161.746 126.349Z" fill="url(#paint2_linear)"/>
<path d="M159.071 127.99L148.705 134.353L147.291 135.214L144.903 136.679L143.26 137.687L133.28 143.814C133.386 139.549 133.433 134.923 133.338 130.553C133.309 129.091 133.298 127.598 133.356 126.07C133.546 120.766 134.494 115.077 137.891 109.091L138.047 108.788C138.448 111.32 142.093 112.964 145.374 113.352L145.738 113.387C146.15 113.429 146.576 113.449 147.017 113.449H147.295C150.068 113.422 153.352 112.728 157.136 111.367C157.5 113.616 157.865 116.566 158.255 120.017C158.43 121.568 158.607 123.222 158.787 124.977C158.86 125.958 158.973 126.962 159.071 127.99Z" fill="#FFC6AE"/>
<path d="M159.862 127.506L159.071 127.99L148.705 134.353L147.291 135.214L144.904 136.68L143.26 137.688L133.28 143.815L132.187 144.485C132.241 139.894 132.278 135.396 132.274 132.574C132.274 129.949 132.329 127.614 132.464 125.544C132.73 121.457 133.284 118.382 134.21 116.055C135.296 113.509 136.581 111.064 138.051 108.746C138.051 108.746 138.962 112.019 145.778 112.534H145.822C146.223 112.565 146.646 112.585 147.091 112.593H147.608C156.093 112.593 157.03 110.317 157.03 110.317C157.859 113.663 158.515 117.056 158.995 120.48C159.175 121.689 159.348 122.982 159.516 124.357C159.64 125.365 159.757 126.412 159.862 127.506Z" fill="#3468EC"/>
<path opacity="0.4" d="M159.862 127.506L159.071 127.99L148.705 134.353L147.291 135.214L144.904 136.68L143.26 137.688L133.28 143.815L132.187 144.485C132.241 139.894 132.278 135.396 132.274 132.574C132.274 129.949 132.329 127.614 132.464 125.544C132.73 121.457 133.284 118.382 134.21 116.055C135.296 113.509 136.581 111.064 138.051 108.746C138.051 108.746 138.962 112.019 145.778 112.534H145.822C146.223 112.565 146.646 112.585 147.091 112.593H147.608C156.093 112.593 157.03 110.317 157.03 110.317C157.859 113.663 158.515 117.056 158.995 120.48C159.175 121.689 159.348 122.982 159.516 124.357C159.64 125.365 159.757 126.412 159.862 127.506Z" fill="black"/>
<path opacity="0.2" d="M154.996 122.36C154.996 122.36 154.048 125.563 150.061 127.358L149.871 128.339L148.705 134.353L147.291 135.214L148.136 128.579L148.501 125.695C150.965 125.423 153.263 124.243 154.996 122.36Z" fill="black"/>
<path d="M142.87 80.5605L138.86 81.0103C136.207 81.7005 135.008 82.9491 134.734 85.4424C134.607 86.6056 133.947 89.7077 134.873 93.5852C135.711 97.106 137.949 105.722 137.949 105.722C137.949 105.722 132.799 112.872 131.866 125.133C141.291 131.678 155.751 128.161 159.662 124.206C159.334 120.46 157.085 110.181 156.804 106.843C156.804 106.843 157.012 101.627 157.402 99.3666C160.383 95.904 160.004 92.5926 158.667 89.9209C156.195 84.9887 152.47 80.6536 151.264 80.6575L142.87 80.5605Z" fill="#3468EC"/>
<path opacity="0.7" d="M142.87 80.5605L138.86 81.0103C136.207 81.7005 135.008 82.9491 134.734 85.4424C134.607 86.6056 133.947 89.7077 134.873 93.5852C135.711 97.106 137.949 105.722 137.949 105.722C137.949 105.722 132.799 112.872 131.866 125.133C141.291 131.678 155.751 128.161 159.662 124.206C159.334 120.46 157.085 110.181 156.804 106.843C156.804 106.843 157.012 101.627 157.402 99.3666C160.383 95.904 160.004 92.5926 158.667 89.9209C156.195 84.9887 152.47 80.6536 151.264 80.6575L142.87 80.5605Z" fill="white"/>
<path d="M146.343 107.257C146.343 107.334 146.343 107.404 146.343 107.462V107.563C146.346 107.595 146.346 107.628 146.343 107.66C146.205 109.211 146.041 110.859 145.866 112.538C145.866 112.538 145.866 112.538 145.866 112.561C145.84 112.833 145.811 113.104 145.782 113.379C145.246 118.44 144.609 123.849 144.116 128.773C143.996 129.968 143.887 131.131 143.788 132.263C143.635 133.958 143.471 135.815 143.304 137.692L133.324 143.818L132.23 144.489L129.442 146.199C130.003 140.324 131.312 126.714 132.041 120.572C132.125 119.878 132.234 119.184 132.358 118.494L132.456 117.99L132.5 117.784C132.548 117.552 132.595 117.327 132.646 117.098C132.697 116.869 132.744 116.675 132.792 116.47C132.905 116.001 133.025 115.539 133.156 115.089C133.218 114.872 133.277 114.655 133.342 114.442C133.408 114.229 133.462 114.015 133.528 113.806C133.659 113.387 133.787 112.976 133.922 112.577C133.92 112.569 133.92 112.561 133.922 112.553C133.984 112.363 134.049 112.166 134.115 111.987C134.202 111.724 134.293 111.468 134.385 111.212L134.494 110.906C134.549 110.766 134.596 110.63 134.647 110.495C134.826 110.018 135.012 109.564 135.176 109.141C135.212 109.048 135.252 108.955 135.289 108.866C135.325 108.777 135.383 108.645 135.427 108.536C135.536 108.265 135.646 108.013 135.751 107.761C135.795 107.652 135.843 107.548 135.886 107.447C135.93 107.346 135.992 107.214 136.039 107.106L136.109 106.95L136.182 106.799C136.186 106.779 136.195 106.761 136.207 106.745C136.217 106.717 136.229 106.689 136.243 106.663C136.252 106.646 136.26 106.628 136.265 106.609C136.296 106.554 136.322 106.497 136.346 106.439L136.59 105.935C136.59 105.907 136.615 105.888 136.623 105.865L136.717 105.679L133.685 92.3011L132.176 85.655V85.5464C132.245 84.957 132.708 82.1768 135.376 81.3315C136.882 80.9179 138.425 80.6735 139.979 80.6025C140.577 80.5638 141.117 80.5483 141.558 80.5366H142.254H142.673C142.674 80.5456 142.674 80.5547 142.673 80.5638C142.695 80.6219 142.757 80.7964 142.852 81.0678C142.862 81.1133 142.877 81.1575 142.895 81.1997C142.896 81.2061 142.896 81.2126 142.895 81.2191C143.551 83.1346 145.392 88.7105 146.307 93.5535C146.467 94.3911 146.599 95.2092 146.693 95.9847C146.967 98.4082 146.766 102.464 146.343 107.257Z" fill="url(#paint3_linear)"/>
<path d="M136.815 99.2733C136.815 99.2733 137.18 97.3617 137.716 93.2321C138.339 88.4705 138.117 86.1168 137.442 84.6123L133.641 92.3247L136.673 105.702C136.673 105.702 133.557 111.774 132.299 118.498C135.281 109.537 138.543 106.866 138.543 106.866L136.815 99.2733Z" fill="url(#paint4_linear)"/>
<path d="M150.134 77.5742C151.315 77.5742 151.453 77.7836 152.47 79.2338C153.075 80.0985 156.906 86.826 156.906 86.826C156.906 86.826 153.859 82.5607 151.559 81.2656C151.116 80.9896 150.637 80.7857 150.137 80.6607L150.134 77.5742Z" fill="url(#paint5_linear)"/>
<path d="M141.401 91.8714C141.401 91.4836 141.364 90.6461 141.302 89.5914C141 84.4187 140.854 79.7657 142.494 79.3779L142.637 80.0914C141.441 80.3667 141.835 87.0244 141.984 89.5293C142.05 90.6073 142.101 91.4681 142.082 91.8869L141.401 91.8714Z" fill="#3468EC"/>
<path d="M135.933 58.0044L138.485 60.2262C138.623 60.0573 138.728 59.8601 138.793 59.6466C138.857 59.4331 138.88 59.2078 138.86 58.9846C138.84 58.7613 138.777 58.5448 138.676 58.3483C138.574 58.1517 138.436 57.9793 138.27 57.8415C137.934 57.5464 137.505 57.3989 137.071 57.4292C136.637 57.4595 136.23 57.6652 135.933 58.0044Z" fill="#263238"/>
<path d="M142.596 77.9039C142.596 76.2016 138.868 73.6386 136.943 70.0596C135.019 66.4806 135.981 60.5945 138.62 59.6911C138.642 59.6911 138.715 58.9349 138.725 58.8807C138.871 58.1977 139.117 57.5435 139.454 56.9419C140.53 54.9721 142.808 53.4521 144.922 53.1341C153.279 51.839 157.121 55.2939 158.656 59.0939C159.153 60.3722 159.375 61.7529 159.304 63.1343C159.261 64.1489 158.908 65.1207 158.297 65.9013C157.686 66.682 156.852 67.2286 155.922 67.4578L142.596 77.9039Z" fill="#2E3345"/>
<path d="M154.191 57.8223C155.827 58.5978 157.384 61.2461 157.358 68.6988C157.336 75.0192 155.514 76.6167 154.595 77.0859C153.677 77.5551 151.88 77.3147 150.134 77.0316V80.661C150.134 80.661 151.443 82.0298 150.983 82.8906C150.524 83.7514 148.829 84.4804 146.194 83.6002C143.209 82.6036 142.527 80.4981 142.527 80.4981L142.458 72.5337C142.458 72.5337 141.456 73.6543 139.688 72.0102C138.23 70.6492 137.705 68.3188 138.802 67.0392C139.899 65.7596 141.306 65.6588 142.575 67.0896L143.486 66.5778C145.111 66.3761 147.495 66.0853 149.252 65.1431C153.757 62.7041 154.224 60.0596 154.191 57.8223Z" fill="#FFC6AE"/>
<path d="M142.6 66.0581L142.622 69.5479C142.832 69.5538 143.042 69.5139 143.238 69.4305C143.433 69.3471 143.611 69.222 143.759 69.0629C143.908 68.9039 144.024 68.7142 144.101 68.5055C144.178 68.2968 144.214 68.0736 144.207 67.8495C144.203 67.3896 144.035 66.9485 143.736 66.6158C143.438 66.2831 143.032 66.0837 142.6 66.0581Z" fill="#263238"/>
<path d="M154.344 66.5545C154.345 66.7185 154.392 66.8784 154.478 67.0143C154.564 67.1503 154.686 67.2564 154.829 67.3194C154.971 67.3824 155.127 67.3996 155.279 67.3689C155.43 67.3381 155.57 67.2608 155.68 67.1464C155.791 67.032 155.867 66.8857 155.9 66.7255C155.933 66.5653 155.921 66.3984 155.866 66.2454C155.811 66.0923 155.714 65.96 155.589 65.8646C155.463 65.7693 155.314 65.7153 155.16 65.7092C155.054 65.7066 154.949 65.7266 154.85 65.7678C154.751 65.8091 154.661 65.8709 154.585 65.9496C154.509 66.0283 154.449 66.1223 154.407 66.2262C154.366 66.3301 154.344 66.4417 154.344 66.5545Z" fill="#2E3345"/>
<path d="M148.056 66.927C148.05 67.0472 148.066 67.1676 148.103 67.2813C148.141 67.3949 148.199 67.4996 148.274 67.5893C148.35 67.6789 148.441 67.7519 148.543 67.8039C148.646 67.856 148.756 67.8861 148.869 67.8925C148.984 67.8936 149.098 67.8705 149.204 67.8246C149.31 67.7787 149.407 67.711 149.489 67.6252C149.57 67.5395 149.635 67.4374 149.68 67.3249C149.724 67.2124 149.747 67.0917 149.748 66.9697C149.751 66.8515 149.733 66.7338 149.694 66.6232C149.655 66.5126 149.595 66.4113 149.519 66.325C149.443 66.2388 149.352 66.1693 149.251 66.1206C149.15 66.0719 149.04 66.0448 148.929 66.041C148.818 66.0372 148.708 66.0567 148.604 66.0983C148.5 66.14 148.405 66.2031 148.323 66.2839C148.242 66.3648 148.177 66.4618 148.131 66.5695C148.085 66.6771 148.06 66.7934 148.056 66.9115V66.927Z" fill="#2E3345"/>
<path d="M156.428 64.992L154.398 64.135C154.445 63.9897 154.52 63.8563 154.617 63.7431C154.715 63.6299 154.834 63.5393 154.966 63.4771C155.098 63.4148 155.241 63.3822 155.385 63.3814C155.529 63.3805 155.672 63.4113 155.805 63.472C156.073 63.5917 156.287 63.8163 156.403 64.0993C156.519 64.3823 156.528 64.7019 156.428 64.992Z" fill="#2E3345"/>
<path d="M152.419 65.8721L152.317 71.0447L154.93 70.4282L152.419 65.8721Z" fill="#F2A78F"/>
<path d="M150.134 77.051C148.293 76.8184 144.499 75.6939 143.883 74.0537C144.13 74.877 144.603 75.6025 145.242 76.1359C146.387 77.1829 150.134 78.2725 150.134 78.2725V77.051Z" fill="#F2A78F"/>
<path d="M142.509 77.5942C142.028 77.4895 141.601 77.7144 141.208 78.4201C140.814 79.1258 139.95 80.6303 139.95 80.6303C139.95 80.6303 139.502 85.5897 139.95 86.8344C140.337 87.9046 144.597 91.9178 144.597 91.9178C144.597 91.9178 143.486 96.3731 143.446 97.835C143.406 99.2968 145.997 104.846 146.31 107.684C146.31 107.684 147.233 98.7656 146.835 95.5511C146.15 89.9791 143.693 82.7823 142.534 80.4946L142.509 77.5942Z" fill="url(#paint6_linear)"/>
<path d="M145.115 96.0506C144.831 95.3307 144.496 94.6346 144.113 93.9684C143.508 92.9021 142.76 91.8784 142.086 91.6147C141.984 91.5715 141.875 91.5479 141.765 91.5449H141.729C141.618 91.5516 141.509 91.5805 141.408 91.6302C140.876 91.8823 140.315 92.6539 139.859 93.5419C139.392 94.4335 139.008 95.3711 138.711 96.3414C138.536 96.9425 138.612 98.2182 138.82 99.6761C139.228 102.507 140.136 106.043 140.643 106.741C141.014 107.229 141.453 107.654 141.944 108.001C141.643 108.213 141.319 108.383 140.978 108.509C140.785 108.584 140.582 108.622 140.377 108.622V109.13H140.435C140.652 109.126 140.867 109.088 141.073 109.017C141.551 108.852 142.002 108.61 142.41 108.3C142.842 108.573 143.31 108.774 143.799 108.897C144.029 108.956 144.267 108.971 144.503 108.943L144.444 108.439C144.24 108.458 144.035 108.441 143.836 108.389C143.485 108.292 143.147 108.148 142.83 107.962C143.292 107.571 143.698 107.108 144.032 106.59C144.317 106.128 144.667 104.539 144.929 102.712C145.089 101.623 145.221 100.452 145.294 99.3853C145.374 97.8963 145.337 96.6206 145.115 96.0506ZM143.61 106.311C143.268 106.835 142.848 107.298 142.367 107.679C141.856 107.344 141.4 106.92 141.018 106.427C140.544 105.772 139.669 102.321 139.276 99.5986C139.075 98.222 139.002 97.0316 139.163 96.4965C139.46 95.5145 139.853 94.5683 140.336 93.6737C140.839 92.7508 141.375 92.0723 141.747 92.0568C142.188 92.0568 142.902 92.9059 143.57 93.9955C143.704 94.2088 143.832 94.4414 143.956 94.6741C144.228 95.1751 144.471 95.6931 144.685 96.2251C144.885 96.7525 144.907 97.9429 144.816 99.3271C144.765 100.103 144.685 100.913 144.583 101.72C144.306 103.825 143.916 105.799 143.61 106.299V106.311Z" fill="#455A64"/>
<path d="M145.155 108.645C145.161 108.793 145.125 108.94 145.052 109.066C144.98 109.192 144.873 109.293 144.747 109.355C144.621 109.417 144.48 109.438 144.342 109.415C144.205 109.392 144.077 109.326 143.974 109.225C143.872 109.124 143.8 108.994 143.768 108.85C143.736 108.706 143.744 108.555 143.792 108.416C143.841 108.277 143.927 108.156 144.04 108.069C144.152 107.983 144.287 107.933 144.426 107.928C144.612 107.92 144.793 107.992 144.93 108.126C145.066 108.261 145.147 108.447 145.155 108.645Z" fill="#263238"/>
<path d="M141.069 108.846C141.076 108.995 141.04 109.141 140.968 109.268C140.896 109.395 140.79 109.496 140.664 109.559C140.538 109.622 140.397 109.643 140.259 109.62C140.121 109.598 139.993 109.532 139.89 109.432C139.788 109.331 139.715 109.201 139.683 109.056C139.65 108.912 139.658 108.761 139.706 108.622C139.755 108.483 139.841 108.362 139.953 108.275C140.066 108.188 140.201 108.139 140.34 108.133C140.432 108.129 140.524 108.144 140.61 108.178C140.697 108.211 140.776 108.263 140.844 108.329C140.911 108.395 140.966 108.475 141.005 108.564C141.044 108.653 141.065 108.749 141.069 108.846Z" fill="#263238"/>
<path d="M145.235 99.3773L144.831 99.3463C144.789 99.3423 144.751 99.3216 144.724 99.2883C144.697 99.2551 144.683 99.2119 144.685 99.1679C144.769 97.7449 144.725 96.6979 144.561 96.2791C143.854 94.4412 142.374 92.1379 141.751 92.1651C141.128 92.1922 139.837 94.6234 139.276 96.5157C139.148 96.95 139.188 97.9969 139.382 99.4083C139.388 99.4515 139.378 99.4955 139.354 99.531C139.33 99.5666 139.294 99.5907 139.254 99.5983L138.853 99.6642C138.811 99.6697 138.769 99.6573 138.735 99.6297C138.702 99.6021 138.68 99.5616 138.675 99.5169C138.452 97.9349 138.427 96.8491 138.594 96.2869C138.893 95.271 140.304 91.4671 141.722 91.4051C143.14 91.343 144.849 95.0034 145.228 95.9922C145.436 96.5351 145.498 97.6208 145.403 99.2144C145.4 99.2594 145.381 99.3014 145.35 99.3317C145.319 99.3621 145.278 99.3784 145.235 99.3773Z" fill="#3468EC"/>
<path d="M136.495 81.2814C133.827 81.2349 132.595 82.1926 130.904 84.6006C129.562 86.5122 124.343 96.842 122.611 99.8587L113.186 94.4999C111.279 93.1001 110.663 90.8899 109.457 89.5987C108.251 88.3075 107 88.0477 105.674 86.9814C104.347 85.9151 103.807 85.0853 103.425 86.0818C103.042 87.0783 104.518 88.6914 104.799 89.0908C105.079 89.4902 106.559 90.3781 104.638 90.4091C102.718 90.4401 98.916 88.323 97.9902 87.9469C97.0644 87.5708 97.119 88.7457 97.5746 89.4979C98.0303 90.2502 98.0084 92.375 98.7775 93.6042C99.5903 94.9071 100.035 95.4732 101.846 96.3185C103.53 97.094 107.066 97.4042 108.856 98.5946C110.645 99.785 115.081 103.981 117.778 106.497C121.208 109.696 123.574 110.282 125.484 108.362C127.339 106.295 129.22 103.872 130.138 102.643C132.613 99.3275 136.528 91.7857 136.528 91.7857C136.528 91.7857 138.222 87.9081 136.495 81.2814Z" fill="#FFC6AE"/>
<path d="M136.863 80.9976C132.934 80.9976 131.76 82.5098 129.748 86.0035C127.736 89.4971 122.575 99.4973 122.575 99.4973L115.143 95.3561C115.143 95.3561 113.805 98.4892 112.384 101.719C112.384 101.719 116.59 105.597 118.58 107.431C120.57 109.265 123.209 110.703 125.655 108.458C128.268 106.062 136.743 93.6112 136.743 93.6112C138.755 89.7259 138.306 83.8359 136.863 80.9976Z" fill="url(#paint7_linear)"/>
<path d="M122.575 99.4978C123.789 101.018 125.257 102.728 125.192 104.073C125.192 104.073 126.023 102.879 123.103 98.478L122.575 99.4978Z" fill="url(#paint8_linear)"/>
<path d="M100.888 49.8449L97.1367 51.9948L97.1501 47.6861L94.3436 46.0669L87.7995 49.8449V57.401L81.2554 61.1791V68.7352L84.0619 70.3543L87.7995 68.1954V72.5177L90.606 74.1369L97.1501 70.3543V62.7982L103.694 59.0202V51.4641L100.888 49.8449Z" fill="#3468EC"/>
<path d="M84.0619 62.7982V70.3543L90.606 66.5763V74.1368L97.1502 70.3543V62.7982L103.694 59.0202V51.4641L97.1277 55.2556L97.1502 47.686L90.606 51.4641V59.0202L84.0619 62.7982Z" fill="#3468EC"/>
<g opacity="0.2">
<path opacity="0.2" d="M84.062 70.354L81.2554 68.7348V61.1787L84.062 62.7979V70.354Z" fill="black"/>
<path opacity="0.2" d="M90.606 51.4639L87.7994 49.8447V57.4008L90.606 59.02V51.4639Z" fill="black"/>
<path opacity="0.2" d="M90.606 74.1363L87.7994 72.5171V68.1948L90.606 66.5757V74.1363Z" fill="black"/>
</g>
<g opacity="0.5">
<path d="M90.6061 59.0195L87.7995 57.4004L81.2554 61.1784L84.0619 62.7976L90.6061 59.0195Z" fill="#ADC3FC"/>
<path d="M97.1501 47.6856L94.3435 46.0664L87.7994 49.8444L90.606 51.4636L97.1501 47.6856Z" fill="#ADC3FC"/>
<path d="M103.694 51.4639L100.888 49.8447L97.1366 51.9946L97.1276 55.2554L103.694 51.4639Z" fill="#ADC3FC"/>
</g>
<path d="M208.526 34.6791C208.407 34.5762 208.279 34.4844 208.144 34.4048C207.667 34.1214 205.508 32.8801 205.396 32.8126C204.253 32.084 202.445 32.2459 200.835 33.06C198.528 34.2249 196.607 36.6851 195.141 40.7825C195.141 40.7825 193.657 39.7165 193.175 39.4332C191.983 38.781 190.589 39.0958 189.02 40.1168C187.252 41.2682 186.047 42.7615 184.945 45.0193V45.0598C183.99 46.9769 183.468 49.0804 183.415 51.2216C183.415 55.9576 185.354 58.2155 187.877 59.9111C188.597 60.3968 190.499 61.4178 190.688 61.5437C192.211 62.5491 193.895 63.2855 195.667 63.7206L198.154 64.3008L200.642 60.8511C202.452 58.3075 204.115 55.6614 205.62 52.9262C208.144 48.3161 210.118 43.8004 210.082 39.0824C210.046 37.0629 209.466 35.5787 208.526 34.6791Z" fill="#3468EC"/>
<path opacity="0.3" d="M208.526 34.6791C208.407 34.5762 208.279 34.4844 208.144 34.4048C207.667 34.1214 205.508 32.8801 205.396 32.8126C204.253 32.084 202.445 32.2459 200.835 33.06C198.528 34.2249 196.607 36.6851 195.141 40.7825C195.141 40.7825 193.657 39.7165 193.175 39.4332C191.983 38.781 190.589 39.0958 189.02 40.1168C187.252 41.2682 186.047 42.7615 184.945 45.0193V45.0598C183.99 46.9769 183.468 49.0804 183.415 51.2216C183.415 55.9576 185.354 58.2155 187.877 59.9111C188.597 60.3968 190.499 61.4178 190.688 61.5437C192.211 62.5491 193.895 63.2855 195.667 63.7206L198.154 64.3008L200.642 60.8511C202.452 58.3075 204.115 55.6614 205.62 52.9262C208.144 48.3161 210.118 43.8004 210.082 39.0824C210.046 37.0629 209.466 35.5787 208.526 34.6791Z" fill="black"/>
<path d="M208.526 34.6786C208.407 34.5757 208.279 34.4839 208.143 34.4043C207.667 34.1209 205.508 32.8796 205.395 32.8121C204.253 32.0835 202.445 32.2454 200.835 33.0595C198.527 34.2244 196.607 36.6846 195.141 40.782C195.141 40.782 193.656 39.716 193.175 39.4327C191.983 38.7805 190.589 39.0954 189.019 40.1163C187.252 41.2677 186.046 42.761 184.944 45.0188V45.0593C184.895 45.1582 184.855 45.2572 184.81 45.3561L203.7 56.2495C204.37 55.161 205.022 54.0591 205.643 52.9257C208.166 48.3156 210.14 43.7999 210.104 39.0819C210.046 37.0624 209.466 35.5782 208.526 34.6786Z" fill="#3468EC"/>
<path opacity="0.15" d="M208.526 34.6786C208.407 34.5757 208.279 34.4839 208.143 34.4043C207.667 34.1209 205.508 32.8796 205.395 32.8121C204.253 32.0835 202.445 32.2454 200.835 33.0595C198.527 34.2244 196.607 36.6846 195.141 40.782C195.141 40.782 193.656 39.716 193.175 39.4327C191.983 38.7805 190.589 39.0954 189.019 40.1163C187.252 41.2677 186.046 42.761 184.944 45.0188V45.0593C184.895 45.1582 184.855 45.2572 184.81 45.3561L203.7 56.2495C204.37 55.161 205.022 54.0591 205.643 52.9257C208.166 48.3156 210.14 43.7999 210.104 39.0819C210.046 37.0624 209.466 35.5782 208.526 34.6786Z" fill="black"/>
<path d="M195.127 40.7644L197.655 44.0612L201.73 39.2397L197.124 36.5815C196.304 37.8966 195.634 39.2997 195.127 40.7644Z" fill="#3468EC"/>
<path opacity="0.3" d="M195.127 40.7644L197.655 44.0612L201.73 39.2397L197.124 36.5815C196.304 37.8966 195.634 39.2997 195.127 40.7644Z" fill="black"/>
<path d="M208.526 34.6787C207.424 33.6937 205.418 33.7792 203.646 34.6787C201.231 35.9021 199.234 38.5422 197.74 43.0129C196.247 40.2693 194.25 40.1839 191.835 41.7536C190.063 42.905 188.858 44.3982 187.76 46.656L187.738 46.6965C186.786 48.6163 186.266 50.7208 186.213 52.8628C186.213 57.5989 188.156 59.8567 190.675 61.5523C192.197 62.5578 193.882 63.2941 195.654 63.7292L198.141 64.3094L200.628 60.8597C202.439 58.3161 204.101 55.67 205.607 52.9348C208.13 48.3247 210.105 43.809 210.069 39.091C210.046 37.0625 209.466 35.5783 208.526 34.6787Z" fill="#3468EC"/>
<g opacity="0.07">
<path opacity="0.07" d="M206.403 34.2291C207.096 34.1974 207.778 34.4161 208.323 34.8453C208.333 34.8647 208.347 34.8816 208.364 34.8948C209.29 35.7403 209.808 37.2425 209.812 39.1136C209.812 44.0385 207.563 48.8196 205.382 52.8405C203.887 55.5669 202.236 58.2039 200.435 60.7384L198.046 64.0622L195.721 63.5179C193.975 63.0891 192.316 62.3651 190.814 61.3771C188.565 59.8478 186.442 57.7789 186.46 52.8854C186.508 50.7811 187.013 48.7123 187.94 46.8226V46.7821C189.046 44.5108 190.238 43.076 191.929 41.9786C192.715 41.396 193.652 41.0524 194.628 40.9891C195.77 40.9891 196.71 41.6952 197.502 43.148C197.522 43.1869 197.552 43.2194 197.589 43.2417C197.627 43.264 197.67 43.2752 197.713 43.2739H197.736C197.782 43.2696 197.826 43.2521 197.863 43.2233C197.9 43.1946 197.928 43.156 197.943 43.112C199.369 38.8437 201.262 36.1631 203.727 34.9172C204.55 34.4862 205.461 34.2507 206.389 34.2291H206.403ZM206.389 33.9907C205.423 34.0106 204.475 34.2539 203.619 34.7014C201.204 35.9247 199.207 38.5649 197.713 43.0355C196.85 41.4434 195.815 40.7462 194.628 40.7462C193.609 40.8132 192.63 41.1706 191.808 41.7762C190.036 42.9276 188.831 44.4208 187.733 46.6787L187.711 46.7191C186.759 48.6389 186.239 50.7435 186.186 52.8854C186.186 57.6215 188.129 59.8793 190.648 61.575C192.17 62.5804 193.854 63.3167 195.627 63.7518L198.114 64.332L200.601 60.8823C202.412 58.3387 204.074 55.6927 205.58 52.9574C208.103 48.3473 210.078 43.8316 210.042 39.1136C210.042 37.0851 209.452 35.5784 208.512 34.7148C207.919 34.2313 207.168 33.9831 206.403 34.0177L206.389 33.9907Z" fill="black"/>
</g>
<path d="M208.251 47.4298L203.412 50.2274L201.613 43.6833C201.587 43.5843 201.529 43.497 201.447 43.4357C201.365 43.3743 201.265 43.3427 201.163 43.3459C201.058 43.3438 200.955 43.3786 200.873 43.4444C200.791 43.5101 200.734 43.6026 200.713 43.7057L197.911 56.5061L195.554 50.0565C195.55 49.9372 195.498 49.8247 195.41 49.7437C195.322 49.6627 195.206 49.6199 195.087 49.6247C194.967 49.6294 194.855 49.6814 194.774 49.7691C194.693 49.8569 194.65 49.9731 194.655 50.0924L193.063 55.746L187.738 58.8224C187.913 59.0771 188.102 59.3218 188.304 59.5555L193.701 56.4476C193.806 56.3871 193.883 56.289 193.917 56.1733L195.172 51.7116L197.587 58.3052C197.62 58.3974 197.681 58.4767 197.762 58.5311C197.843 58.5855 197.94 58.6119 198.037 58.6065C198.137 58.6015 198.232 58.5634 198.308 58.4983C198.384 58.4331 198.436 58.3446 198.455 58.2467L201.199 45.7342L202.647 51.0459C202.665 51.1143 202.698 51.1776 202.744 51.2308C202.79 51.2841 202.848 51.3257 202.913 51.3524C202.978 51.3791 203.049 51.3901 203.119 51.3845C203.189 51.379 203.257 51.357 203.317 51.3203L207.617 48.8421C207.865 48.3698 208.063 47.9021 208.251 47.4298Z" fill="white"/>
<path d="M223.842 181.206C223.669 181.777 223.655 182.384 223.8 182.963C223.968 183.317 225.021 184.479 227.17 184.9C229.318 185.322 232.271 184.9 233.543 184.825C234.816 184.749 238.809 185.246 240.077 185.406C242.074 185.676 243.607 185.237 244.353 184.517C244.473 184.372 244.562 184.204 244.614 184.022C244.665 183.841 244.678 183.651 244.652 183.464C244.647 182.983 244.576 182.506 244.441 182.044L223.842 181.206Z" fill="#263238"/>
<path d="M244.113 179.955C244.151 180.12 244.189 180.288 244.222 180.457C244.417 181.304 244.478 182.177 244.403 183.043C244.146 183.675 243.443 184.025 242.874 184.202C241.37 184.682 240.229 184.623 238.565 184.29C236.891 184.046 235.201 183.942 233.51 183.978C232.2 184.067 230.397 184.319 229.087 184.197C227.973 184.151 226.873 183.926 225.83 183.532C224.958 183.161 224.065 182.689 223.851 181.779C223.594 179.884 224.39 179.05 225.287 178.519C226.184 177.988 227.461 178.03 228.826 177.942C230.06 177.858 230.961 177.858 232.061 177.773C233.011 177.727 233.956 177.596 234.883 177.381C235.726 177.12 236.568 176.063 236.914 176.025C236.914 176.025 242.411 175.983 242.933 176.025C243.54 176.076 243.725 177.954 243.801 178.363C243.86 178.683 243.873 179.029 243.957 179.336C244.012 179.543 244.062 179.749 244.113 179.955Z" fill="#37474F"/>
<path d="M244.113 179.955C244.151 180.12 244.189 180.288 244.222 180.457C244.417 181.304 244.478 182.177 244.403 183.043C244.146 183.675 243.443 184.025 242.874 184.202C241.37 184.682 240.229 184.623 238.565 184.29C236.891 184.046 235.201 183.942 233.51 183.978C232.2 184.067 230.397 184.319 229.087 184.197C227.973 184.151 226.873 183.926 225.83 183.532C224.958 183.161 224.065 182.689 223.851 181.779C223.594 179.884 224.39 179.05 225.287 178.519C226.184 177.988 227.461 178.03 228.826 177.942C230.06 177.858 230.961 177.858 232.061 177.773C233.011 177.727 233.956 177.596 234.883 177.381C235.726 177.12 236.568 176.063 236.914 176.025C236.914 176.025 242.411 175.983 242.933 176.025C243.54 176.076 243.725 177.954 243.801 178.363C243.86 178.683 243.873 179.029 243.957 179.336C244.012 179.543 244.062 179.749 244.113 179.955Z" fill="url(#paint9_linear)"/>
<path d="M227.174 183.945C227.001 182.58 226.753 179.623 229.28 177.912H229.596C228.461 177.584 227.256 177.584 226.121 177.912C224.112 178.447 223.219 180.073 223.72 181.792C223.728 181.775 224.175 183.439 227.174 183.945Z" fill="#FAFAFA"/>
<path d="M234.508 177.478C233.695 178.198 233.413 179.837 233.413 179.837C233.307 180.452 232.195 180.544 232.301 179.95C232.47 179.134 232.798 178.358 233.265 177.667C233.647 177.466 234.084 177.399 234.508 177.478Z" fill="#FAFAFA"/>
<path d="M232.229 177.76C231.616 178.361 231.215 179.144 231.087 179.993C230.974 180.583 230.047 180.574 230.114 179.993C230.114 179.993 230.22 178.54 231.087 177.861C231.256 177.754 231.447 177.688 231.646 177.671C231.845 177.653 232.045 177.684 232.229 177.76Z" fill="#FAFAFA"/>
<path d="M243.102 172.027C243.102 172.027 242.954 175.561 242.76 176.72C242.642 177.41 241.737 178.135 239.483 178.059C237.899 178.004 236.652 178.135 236.716 176.896L236.855 173.286L243.102 172.027Z" fill="#FFC6AE"/>
<path d="M246.636 163.678C246.556 164.643 246.425 165.515 246.821 166.576C247.386 168.101 248.582 168.801 249.286 169.399C250.026 170.132 250.709 170.921 251.329 171.758C252.02 172.6 252.201 173.102 253.237 174.02C253.753 174.417 254.364 174.674 255.009 174.765C255.655 174.856 256.313 174.778 256.919 174.538C257.816 174.155 258.128 173.851 258.073 172.474C258.018 171.096 253.629 170.629 253.629 170.629L246.636 163.678Z" fill="#263238"/>
<path d="M257.504 168.371C257.879 168.505 257.972 169.184 258.031 170.532C258.073 171.551 258.524 173.059 257.045 173.687C255.853 174.205 253.949 173.86 253.144 172.899C252.142 171.699 251.459 170.641 250.027 169.179C248.763 167.916 247.499 167.494 246.939 164.946C246.581 163.311 246.863 162.637 248.018 162.17C249.606 161.525 252.095 163.627 253.342 163.96C254.412 164.242 257.129 168.236 257.504 168.371Z" fill="#37474F"/>
<path d="M257.504 168.371C257.879 168.505 257.972 169.184 258.031 170.532C258.073 171.551 258.524 173.059 257.045 173.687C255.853 174.205 253.949 173.86 253.144 172.899C252.142 171.699 251.459 170.641 250.027 169.179C248.763 167.916 247.499 167.494 246.939 164.946C246.581 163.311 246.863 162.637 248.018 162.17C249.606 161.525 252.095 163.627 253.342 163.96C254.412 164.242 257.129 168.236 257.504 168.371Z" fill="url(#paint10_linear)"/>
<path d="M253.342 163.96L253.131 163.888C252.421 163.915 251.73 164.126 251.127 164.503C250.524 164.879 250.03 165.406 249.694 166.032C249.483 166.475 250.115 166.82 250.537 166.475C251.421 164.79 253.241 164.427 253.97 164.347C253.79 164.175 253.576 164.043 253.342 163.96Z" fill="#FAFAFA"/>
<path d="M254.366 164.727C253.699 164.789 253.058 165.016 252.501 165.387C251.944 165.759 251.487 166.263 251.173 166.854C250.962 167.275 251.615 167.642 252.015 167.275C252.316 166.748 252.728 166.293 253.223 165.941C253.717 165.59 254.283 165.351 254.88 165.24C254.699 165.072 254.53 164.891 254.366 164.727Z" fill="#FAFAFA"/>
<path d="M257.719 165.936L257.504 168.779C257.504 168.779 255.697 170.097 253.106 168.888C253.03 168.733 252.811 166.188 252.811 166.188L257.719 165.936Z" fill="#FFC6AE"/>
<path d="M247.668 166.82C247.668 166.82 247.79 163.8 252.083 163.383L252.331 163.514C251.843 162.756 251.093 162.205 250.225 161.963C248.801 161.597 247.672 161.963 246.923 162.865C246.173 163.766 246.927 166.235 247.668 166.82Z" fill="#FAFAFA"/>
<path d="M258.97 146.996C258.355 142.021 258.128 139.249 258.128 139.249C258.128 139.249 258.005 132.244 258.431 125.769C258.616 122.93 258.713 119.788 258.772 116.923C258.851 113.769 258.599 110.615 258.022 107.512C258.022 107.512 235.995 103.131 235.721 111.211C235.389 120.9 235.431 137.459 235.056 143.782C234.849 147.333 235.207 150.278 235.431 157.178C235.612 162.898 235.557 176.977 235.557 176.977C237.983 180.309 243.712 177.768 243.712 177.768C243.712 177.768 245.482 157.999 245.743 153.913C246.021 149.519 245.557 147.295 245.557 147.295L247.828 126.827C247.828 126.827 248.001 133.394 248.195 136.937C248.388 140.479 248.906 142.657 249.829 149.267C250.629 155.004 252.331 169.647 252.331 169.647C255.28 171.391 258.128 169.647 258.128 169.647C258.128 169.647 259.585 151.971 258.97 146.996Z" fill="#455A64"/>
<path d="M258.97 146.996C258.355 142.021 258.128 139.249 258.128 139.249C258.128 139.249 258.005 132.244 258.431 125.769C258.616 122.93 258.713 119.788 258.772 116.923C258.851 113.769 258.599 110.615 258.022 107.512C258.022 107.512 235.995 103.131 235.721 111.211C235.389 120.9 235.431 137.459 235.056 143.782C234.849 147.333 235.207 150.278 235.431 157.178C235.612 162.898 235.557 176.977 235.557 176.977C237.983 180.309 243.712 177.768 243.712 177.768C243.712 177.768 245.482 157.999 245.743 153.913C246.021 149.519 245.557 147.295 245.557 147.295L247.828 126.827C247.828 126.827 248.001 133.394 248.195 136.937C248.388 140.479 248.906 142.657 249.829 149.267C250.629 155.004 252.331 169.647 252.331 169.647C255.28 171.391 258.128 169.647 258.128 169.647C258.128 169.647 259.585 151.971 258.97 146.996Z" fill="url(#paint11_linear)"/>
<path d="M255.963 118.727C255.963 118.727 253.203 122.248 249.644 123.76C249.644 123.76 248.102 136.141 248.115 135.897L247.715 123.436C247.715 123.436 253.014 121.094 255.963 118.727Z" fill="#37474F"/>
<path d="M255.887 78.9307C258.258 78.3999 260.942 80.0933 262.728 83.8719C264.455 87.4863 269.173 96.6147 269.287 99.1717C269.409 101.821 257.622 109.859 257.913 109.703C258.006 109.657 255.878 103.624 255.878 103.624L261.603 98.8853L258.49 92.4739L255.887 78.9307Z" fill="#FFC6AE"/>
<path d="M254.64 78.3621C256.636 78.1178 260.255 78.8718 261.637 81.2729C263.642 84.7482 265.47 88.7669 267.8 93.9609C267.8 93.9609 266.073 97.7016 261.102 98.0555L258.124 92.832L254.64 78.3621Z" fill="#37474F"/>
<path d="M254.64 78.3621C256.636 78.1178 260.255 78.8718 261.637 81.2729C263.642 84.7482 265.47 88.7669 267.8 93.9609C267.8 93.9609 266.073 97.7016 261.102 98.0555L258.124 92.832L254.64 78.3621Z" fill="url(#paint12_linear)"/>
<path d="M244.589 75.2323L244.934 82.6042L252.238 82.2124L252.015 73.6484L244.589 75.2323Z" fill="#FFC6AE"/>
<path d="M259.412 82.0735C258.797 80.0642 256.674 78.4087 253.991 78.3286C253.393 78.3286 252.137 78.3286 252.137 78.3286C251.834 79.5713 248.03 80.0136 244.778 79.268C243.797 79.5292 239.723 80.5317 238.881 80.7845C236.543 81.5596 235.822 83.9439 235.46 91.5685C235.46 91.5685 235.532 106.599 235.46 113.773C239.572 115.942 245.924 115.672 250.444 115.213C257.546 114.497 258.604 111.923 258.604 111.923C258.305 107.74 258.486 106.165 258.604 102.037C258.692 98.9319 259.585 95.6504 259.867 92.1329C260.284 86.9052 259.829 83.4552 259.412 82.0735Z" fill="#3468EC"/>
<path d="M243.447 76.6307C241.762 76.5127 239.656 77.8565 239.112 80.7337L240.486 80.3672L243.447 76.6307Z" fill="#3468EC"/>
<path opacity="0.3" d="M243.447 76.6307C241.762 76.5127 239.656 77.8565 239.112 80.7337L240.486 80.3672L243.447 76.6307Z" fill="black"/>
<path d="M244.681 77.2459C245.945 77.6672 249.631 77.6082 250.865 77.2459C252.099 76.8837 252.087 76.336 252.087 76.336V75.7168C252.799 75.7148 253.494 75.9309 254.079 76.336C254.867 76.9763 256.223 79.2848 256.185 80.3927C256.148 81.5006 253.78 84.424 249.214 84.3524C244.647 84.2808 242.082 82.5916 241.294 81.4795L240.502 80.3632C240.502 80.3632 241.585 78.139 242.651 77.2038C243.197 76.6741 243.898 76.3319 244.652 76.2265L244.681 77.2459Z" fill="#3468EC"/>
<path opacity="0.2" d="M244.681 77.2459C245.945 77.6672 249.631 77.6082 250.865 77.2459C252.099 76.8837 252.087 76.336 252.087 76.336V75.7168C252.799 75.7148 253.494 75.9309 254.079 76.336C254.867 76.9763 256.223 79.2848 256.185 80.3927C256.148 81.5006 253.78 84.424 249.214 84.3524C244.647 84.2808 242.082 82.5916 241.294 81.4795L240.502 80.3632C240.502 80.3632 241.585 78.139 242.651 77.2038C243.197 76.6741 243.898 76.3319 244.652 76.2265L244.681 77.2459Z" fill="black"/>
<path d="M239.673 66.1924C239.673 66.1924 237.933 68.8336 238.131 69.0906C238.329 69.3475 239.61 69.5877 239.61 69.5877L239.673 66.1924Z" fill="#F2A78F"/>
<path d="M244.509 58.8799C240.987 59.6255 239.58 60.6576 239.361 66.6773C239.15 72.5326 239.888 74.462 240.654 75.2497C241.172 75.7805 244.058 75.8774 245.511 75.473C247.331 74.9717 251.447 73.5141 253.372 70.5738C255.638 67.1111 256.232 62.4184 253.793 60.4933C250.394 57.7847 245.945 58.5766 244.509 58.8799Z" fill="#FFC6AE"/>
<path d="M240.654 75.2451C241.075 75.6663 243.093 75.8264 244.61 75.641L244.589 74.769C243.332 75.2326 241.985 75.3956 240.654 75.2451Z" fill="#F2A78F"/>
<path d="M238.893 61.1414C239.771 61.7704 240.859 62.0319 241.926 61.8702C241.905 62.3421 242.032 62.8089 242.289 63.2055C242.646 63.7463 243.188 64.1386 243.813 64.3092C243.428 65.0649 243.223 65.8999 243.215 66.7482C243.192 67.0145 243.249 67.2817 243.38 67.5149C243.42 67.5996 243.484 67.6712 243.563 67.7213C243.642 67.7714 243.734 67.7979 243.828 67.7979C243.922 67.7979 244.014 67.7714 244.093 67.7213C244.173 67.6712 244.236 67.5996 244.277 67.5149C244.475 67.0668 244.724 66.6428 245.018 66.2512C245.4 65.7942 245.937 65.4942 246.526 65.4087C248.738 65.1686 249.016 68.0625 248.131 69.2631C246.682 71.2261 245.452 69.895 245.452 69.895C245.396 70.8152 245.535 71.7369 245.862 72.5989C246.189 73.461 246.695 74.2437 247.348 74.8952C248.92 75.3584 250.586 75.4005 252.179 75.0174C254.142 72.3172 255.377 71.0029 256.426 68.6733C258.641 63.7405 257.571 60.6443 255.857 59.3385C255.52 57.0679 253.73 56.0485 251.687 55.5809C248.637 54.8774 245.789 56.6888 242.765 56.0022C242.268 55.8983 241.777 55.7689 241.294 55.6146C241.108 55.5274 240.896 55.5138 240.7 55.5767C240.592 55.6487 240.507 55.751 240.456 55.8708C240.405 55.9906 240.391 56.1227 240.414 56.2507C240.452 56.832 241.042 57.4765 241.341 57.7883C240.68 57.8487 240.014 57.8104 239.365 57.6745C239.14 57.6323 238.908 57.6323 238.683 57.6745C238.435 57.7753 238.226 57.9519 238.085 58.179C237.945 58.406 237.879 58.6719 237.899 58.9383C237.902 59.3546 237.991 59.7658 238.163 60.1452C238.334 60.5247 238.583 60.8641 238.893 61.1414Z" fill="url(#paint13_linear)"/>
<path d="M255.912 60.0714L258.018 58.8077C257.851 58.5284 257.579 58.3271 257.263 58.2481C256.947 58.1691 256.612 58.2189 256.333 58.3864C256.054 58.554 255.853 58.8257 255.774 59.1417C255.695 59.4577 255.744 59.7921 255.912 60.0714Z" fill="#263238"/>
<path d="M228.463 93.2533C227.986 91.3773 227.525 89.4985 227.082 87.6169C226.66 85.8856 226.012 83.8805 226.606 82.1112C226.943 81.3385 227.367 80.6065 227.869 79.9291C228.304 79.2152 228.671 78.4621 228.965 77.6797C229.112 77.3005 229.247 76.913 229.386 76.5297C229.525 76.1463 229.723 75.9273 229.63 75.5608C229.323 74.3602 227.772 75.9357 227.456 76.4286C227.316 76.6873 227.153 76.9326 226.968 77.1615C226.766 77.3764 226.273 77.646 226.037 77.33C225.958 77.2033 225.915 77.0579 225.91 76.9088C225.75 75.0595 226.416 73.404 226.968 71.6769C227.055 71.4501 227.107 71.2116 227.124 70.9692C227.134 70.8481 227.117 70.7264 227.076 70.6122C227.034 70.4981 226.969 70.3942 226.884 70.3078C226.746 70.2025 226.584 70.1353 226.412 70.1131C226.24 70.0909 226.066 70.1145 225.906 70.1814C225.595 70.2867 225.325 70.4847 225.013 70.5816C224.701 70.6785 224.47 70.6785 224.196 70.7501C223.546 70.8949 222.921 71.1318 222.338 71.4536C221.327 72.0476 220.881 72.9153 220.615 74.019C220.296 75.3747 220.189 76.7714 220.295 78.1599C220.367 79.0824 220.531 79.9923 220.645 80.9022L221.024 83.9479C221.281 85.9783 221.357 96.122 221.706 98.1398C222.056 100.158 222.73 101.51 224.327 102.18C226.643 103.123 230.388 98.8601 232.516 96.6527L228.463 93.2533Z" fill="#FFC6AE"/>
<path d="M227.617 92.1034C226.125 93.2197 224.268 95.0774 223.893 96.9393C223.893 96.9393 223.522 93.5904 227.617 90.6206V92.1034Z" fill="#F2A78F"/>
<path d="M238.763 80.8306C237.33 80.9654 234.971 81.0159 232.57 83.5982C229.786 86.6143 225.493 92.5624 225.493 92.5624C225.493 92.5624 226.054 97.2972 230.611 98.9949C230.611 98.9949 237.238 92.6761 238.662 89.9548C240.085 87.2336 240.406 82.722 238.763 80.8306Z" fill="#37474F"/>
<path d="M238.763 80.8306C237.33 80.9654 234.971 81.0159 232.57 83.5982C229.786 86.6143 225.493 92.5624 225.493 92.5624C225.493 92.5624 226.054 97.2972 230.611 98.9949C230.611 98.9949 237.238 92.6761 238.662 89.9548C240.085 87.2336 240.406 82.722 238.763 80.8306Z" fill="url(#paint14_linear)"/>
<path d="M221.626 103.662C221.694 103.606 221.781 103.579 221.869 103.587C221.956 103.595 222.037 103.637 222.094 103.704C222.525 104.188 223.084 104.539 223.707 104.717C224.33 104.894 224.99 104.891 225.611 104.707C225.654 104.692 225.699 104.686 225.743 104.689C225.788 104.692 225.832 104.703 225.872 104.724C225.912 104.744 225.948 104.772 225.977 104.807C226.006 104.841 226.027 104.881 226.04 104.924C226.053 104.967 226.058 105.012 226.053 105.057C226.048 105.101 226.034 105.144 226.012 105.184C225.99 105.223 225.961 105.257 225.925 105.285C225.889 105.312 225.849 105.332 225.805 105.343C225.06 105.563 224.268 105.566 223.522 105.351C222.775 105.136 222.106 104.713 221.593 104.13C221.564 104.097 221.542 104.059 221.528 104.018C221.514 103.976 221.508 103.932 221.511 103.889C221.514 103.845 221.526 103.803 221.546 103.764C221.566 103.725 221.593 103.691 221.626 103.662Z" fill="#E0E0E0"/>
<path d="M221.963 105.89C222.022 105.841 222.097 105.814 222.174 105.814C222.251 105.814 222.325 105.841 222.385 105.89C222.727 106.138 223.12 106.308 223.536 106.388C223.951 106.468 224.379 106.457 224.79 106.354C224.877 106.338 224.967 106.356 225.04 106.406C225.114 106.456 225.164 106.532 225.182 106.619C225.19 106.662 225.19 106.706 225.182 106.748C225.173 106.791 225.156 106.831 225.132 106.867C225.108 106.903 225.077 106.934 225.04 106.958C225.004 106.982 224.963 106.999 224.92 107.007C224.413 107.124 223.886 107.129 223.376 107.021C222.867 106.912 222.387 106.693 221.972 106.379C221.939 106.351 221.911 106.316 221.891 106.277C221.872 106.238 221.86 106.196 221.857 106.152C221.854 106.109 221.859 106.065 221.873 106.024C221.887 105.982 221.909 105.944 221.938 105.911C221.946 105.903 221.954 105.896 221.963 105.89Z" fill="#E0E0E0"/>
<path d="M263.326 80.3592C263.287 80.3794 263.244 80.3916 263.201 80.3951C263.157 80.3986 263.113 80.3933 263.071 80.3796C263.03 80.3658 262.991 80.3439 262.958 80.3151C262.925 80.2863 262.898 80.2511 262.879 80.2118C262.572 79.6417 262.109 79.1706 261.545 78.8529C260.98 78.5353 260.337 78.3842 259.69 78.4173C259.647 78.4197 259.603 78.4136 259.562 78.3992C259.52 78.3848 259.482 78.3623 259.449 78.3332C259.383 78.2743 259.344 78.1917 259.339 78.1034C259.334 78.0152 259.364 77.9285 259.423 77.8626C259.482 77.7966 259.564 77.7567 259.652 77.7517C260.429 77.711 261.201 77.8928 261.878 78.2756C262.554 78.6584 263.108 79.2263 263.473 79.9127C263.512 79.9917 263.518 80.0825 263.49 80.1659C263.463 80.2493 263.404 80.3187 263.326 80.3592Z" fill="#E0E0E0"/>
<path d="M263.511 78.1262C263.441 78.1633 263.359 78.1735 263.281 78.1549C263.204 78.1363 263.136 78.0902 263.09 78.0251C262.818 77.7074 262.481 77.4519 262.101 77.276C261.722 77.1001 261.309 77.0079 260.891 77.0057C260.847 77.004 260.804 76.9937 260.765 76.9755C260.725 76.9572 260.689 76.9313 260.659 76.8992C260.63 76.8672 260.606 76.8296 260.591 76.7885C260.576 76.7475 260.569 76.7039 260.571 76.6602C260.572 76.6165 260.583 76.5736 260.601 76.5338C260.619 76.4941 260.645 76.4583 260.677 76.4286C260.709 76.3989 260.747 76.3758 260.788 76.3606C260.829 76.3454 260.873 76.3384 260.916 76.3401C261.436 76.3453 261.948 76.4641 262.416 76.6883C262.885 76.9124 263.299 77.2364 263.629 77.6375C263.677 77.7088 263.694 77.7958 263.679 77.88C263.663 77.9642 263.615 78.0389 263.545 78.0883L263.511 78.1262Z" fill="#E0E0E0"/>
<path d="M269.4 102.407C269.358 102.33 269.348 102.239 269.372 102.155C269.397 102.07 269.454 101.999 269.531 101.956C270.086 101.623 270.534 101.138 270.824 100.559C271.114 99.9807 271.234 99.3314 271.169 98.6872C271.164 98.6437 271.168 98.5996 271.18 98.5575C271.192 98.5153 271.212 98.476 271.24 98.4419C271.267 98.4077 271.301 98.3794 271.34 98.3586C271.378 98.3378 271.421 98.3249 271.464 98.3208C271.552 98.3113 271.64 98.3371 271.709 98.3924C271.777 98.4476 271.821 98.528 271.831 98.6156C271.906 99.386 271.761 100.162 271.413 100.853C271.065 101.544 270.527 102.123 269.864 102.521C269.826 102.544 269.784 102.56 269.74 102.567C269.696 102.574 269.651 102.572 269.608 102.562C269.565 102.551 269.524 102.532 269.488 102.505C269.453 102.479 269.423 102.445 269.4 102.407Z" fill="#E0E0E0"/>
<path d="M271.637 102.487C271.6 102.419 271.587 102.339 271.602 102.262C271.616 102.185 271.657 102.116 271.717 102.066C272.023 101.78 272.263 101.431 272.421 101.044C272.579 100.656 272.65 100.239 272.631 99.8206C272.631 99.7323 272.666 99.6477 272.729 99.5853C272.791 99.5229 272.876 99.4878 272.964 99.4878C273.052 99.4878 273.137 99.5229 273.199 99.5853C273.262 99.6477 273.297 99.7323 273.297 99.8206C273.315 100.339 273.22 100.856 273.02 101.334C272.819 101.813 272.517 102.242 272.134 102.592C272.1 102.62 272.061 102.64 272.019 102.652C271.977 102.663 271.933 102.667 271.889 102.662C271.846 102.657 271.804 102.643 271.766 102.622C271.727 102.601 271.694 102.572 271.667 102.538L271.637 102.487Z" fill="#E0E0E0"/>
<path d="M232.887 142.54C232.965 142.579 233.025 142.648 233.054 142.732C233.082 142.815 233.076 142.907 233.038 142.986C232.771 143.576 232.678 144.229 232.769 144.87C232.86 145.511 233.132 146.112 233.552 146.605C233.609 146.672 233.637 146.76 233.63 146.848C233.623 146.937 233.581 147.018 233.514 147.076C233.448 147.134 233.361 147.162 233.273 147.156C233.186 147.15 233.104 147.109 233.047 147.043C232.542 146.45 232.216 145.726 232.109 144.955C232.001 144.185 232.116 143.399 232.44 142.691C232.48 142.613 232.549 142.553 232.632 142.524C232.716 142.496 232.807 142.501 232.887 142.54Z" fill="#E0E0E0"/>
<path d="M230.999 143.74C231.071 143.774 231.128 143.832 231.161 143.905C231.193 143.977 231.199 144.059 231.176 144.136C231.088 144.545 231.089 144.968 231.18 145.377C231.271 145.786 231.449 146.17 231.703 146.503C231.752 146.575 231.772 146.664 231.757 146.751C231.742 146.837 231.694 146.915 231.623 146.966C231.55 147.017 231.461 147.037 231.374 147.022C231.287 147.007 231.21 146.958 231.159 146.886C230.847 146.47 230.629 145.99 230.522 145.481C230.414 144.971 230.419 144.445 230.536 143.938C230.549 143.895 230.57 143.856 230.598 143.822C230.626 143.788 230.661 143.76 230.7 143.74C230.74 143.719 230.782 143.707 230.827 143.703C230.871 143.7 230.915 143.705 230.957 143.718L230.999 143.74Z" fill="#E0E0E0"/>
<path d="M211.787 2.9484C211.765 2.529 211.644 2.12081 211.433 1.75728C211.223 1.39375 210.93 1.08522 210.577 0.856979L209.596 0.285774C209.222 0.0981655 208.808 0.000488281 208.389 0.000488281C207.97 0.000488281 207.556 0.0981655 207.181 0.285774L184.401 13.4505C184.048 13.6792 183.755 13.9879 183.545 14.3513C183.335 14.7147 183.213 15.1227 183.191 15.5419V27.3213C183.214 27.7404 183.335 28.1482 183.546 28.5116C183.756 28.875 184.049 29.1837 184.401 29.4127L185.386 29.9794C185.759 30.1701 186.173 30.2696 186.593 30.2696C187.013 30.2696 187.427 30.1701 187.801 29.9794L210.577 16.8192C210.93 16.591 211.223 16.2825 211.433 15.9189C211.644 15.5554 211.765 15.1472 211.787 14.7278V2.9484Z" fill="#3468EC"/>
<path opacity="0.5" d="M211.787 2.9484C211.765 2.529 211.644 2.12081 211.433 1.75728C211.223 1.39375 210.93 1.08522 210.577 0.856979L209.596 0.285774C209.222 0.0981655 208.808 0.000488281 208.389 0.000488281C207.97 0.000488281 207.556 0.0981655 207.181 0.285774L184.401 13.4505C184.048 13.6792 183.755 13.9879 183.545 14.3513C183.335 14.7147 183.213 15.1227 183.191 15.5419V27.3213C183.214 27.7404 183.335 28.1482 183.546 28.5116C183.756 28.875 184.049 29.1837 184.401 29.4127L185.386 29.9794C185.759 30.1701 186.173 30.2696 186.593 30.2696C187.013 30.2696 187.427 30.1701 187.801 29.9794L210.577 16.8192C210.93 16.591 211.223 16.2825 211.433 15.9189C211.644 15.5554 211.765 15.1472 211.787 14.7278V2.9484Z" fill="white"/>
<path opacity="0.2" d="M183.191 27.3214C183.214 27.7405 183.335 28.1483 183.546 28.5117C183.756 28.875 184.049 29.1838 184.401 29.4128L185.386 29.9795C185.726 30.151 186.098 30.2484 186.479 30.2655C186.86 30.2825 187.24 30.2188 187.594 30.0785C187.023 30.2943 186.591 29.975 186.591 29.2824V17.503C186.606 17.0818 186.728 16.6715 186.946 16.3111L183.546 14.3501C183.327 14.7102 183.205 15.1207 183.191 15.542V27.3214Z" fill="black"/>
<path opacity="0.3" d="M211.746 2.60646C211.607 2.09372 211.139 1.92731 210.581 2.25114L187.801 15.4113C187.442 15.6313 187.147 15.9415 186.946 16.3109L183.55 14.3499C183.751 13.9817 184.044 13.6718 184.4 13.4504L207.177 0.290158C207.551 0.0994341 207.964 0 208.384 0C208.804 0 209.218 0.0994341 209.592 0.290158L210.581 0.856864C210.884 1.05458 211.143 1.31157 211.343 1.61229C211.543 1.91301 211.681 2.25122 211.746 2.60646Z" fill="white"/>
<path d="M186.595 21.3121L183.2 19.3511L179.107 23.291C179.045 23.353 178.999 23.4282 178.97 23.5108C178.942 23.5935 178.933 23.6815 178.944 23.7682C178.955 23.8549 178.985 23.9379 179.033 24.0111C179.081 24.0843 179.144 24.1457 179.219 24.1906L182.561 26.1336C182.699 26.206 182.855 26.2387 183.011 26.228L186.609 25.5399V21.3121H186.595Z" fill="#3468EC"/>
<path opacity="0.5" d="M186.595 21.3121L183.2 19.3511L179.107 23.291C179.045 23.353 178.999 23.4282 178.97 23.5108C178.942 23.5935 178.933 23.6815 178.944 23.7682C178.955 23.8549 178.985 23.9379 179.033 24.0111C179.081 24.0843 179.144 24.1457 179.219 24.1906L182.561 26.1336C182.699 26.206 182.855 26.2387 183.011 26.228L186.609 25.5399V21.3121H186.595Z" fill="white"/>
<path opacity="0.3" d="M182.561 26.1342L180.762 25.1042L180.551 24.9648L179.588 24.4071L179.471 24.3351L179.215 24.1867C179.14 24.1418 179.076 24.0804 179.028 24.0072C178.981 23.934 178.95 23.851 178.939 23.7643C178.929 23.6776 178.938 23.5896 178.966 23.5069C178.994 23.4243 179.041 23.3491 179.102 23.2871L183.195 19.3472L186.595 21.3126L182.502 25.2346C182.438 25.2924 182.387 25.3642 182.354 25.4446C182.32 25.525 182.306 25.6119 182.312 25.6987C182.318 25.7854 182.343 25.8698 182.386 25.9452C182.429 26.0207 182.489 26.0853 182.561 26.1342Z" fill="white"/>
<path d="M193.247 17.6919C192.777 17.9976 192.386 18.4098 192.106 18.8951C191.825 19.3805 191.663 19.9252 191.633 20.4849C191.633 21.5104 192.357 21.9287 193.247 21.416C193.717 21.1101 194.107 20.6976 194.387 20.2123C194.667 19.7269 194.828 19.1824 194.858 18.6229C194.858 17.5884 194.138 17.1792 193.247 17.6919Z" fill="white"/>
<path d="M199.189 14.2556C198.72 14.5615 198.329 14.9739 198.049 15.4592C197.77 15.9446 197.608 16.4892 197.579 17.0486C197.579 18.0741 198.298 18.4924 199.189 17.9751C199.658 17.6697 200.048 17.258 200.328 16.7734C200.607 16.2889 200.769 15.7453 200.799 15.1866C200.79 14.1566 200.08 13.7383 199.189 14.2556Z" fill="white"/>
<path d="M205.13 10.8149C204.662 11.1216 204.272 11.5342 203.992 12.0194C203.713 12.5046 203.551 13.0487 203.52 13.608C203.52 14.6379 204.24 15.0517 205.13 14.539C205.601 14.2329 205.992 13.8199 206.273 13.3337C206.554 12.8476 206.715 12.302 206.745 11.7414C206.745 10.7204 206.021 10.3022 205.13 10.8149Z" fill="white"/>
<defs>
<filter id="filter0_d" x="7.24776" y="61.3921" width="366.76" height="224.768" filterUnits="userSpaceOnUse" color-interpolation-filters="sRGB">
<feFlood flood-opacity="0" result="BackgroundImageFix"/>
<feColorMatrix in="SourceAlpha" type="matrix" values="0 0 0 0 0 0 0 0 0 0 0 0 0 0 0 0 0 0 127 0"/>
<feOffset dx="2" dy="20"/>
<feGaussianBlur stdDeviation="25"/>
<feColorMatrix type="matrix" values="0 0 0 0 0.50276 0 0 0 0 0.591745 0 0 0 0 0.820833 0 0 0 0.3 0"/>
<feBlend mode="normal" in2="BackgroundImageFix" result="effect1_dropShadow"/>
<feBlend mode="normal" in="SourceGraphic" in2="effect1_dropShadow" result="shape"/>
</filter>
<filter id="filter1_f" x="168.136" y="124.663" width="154.384" height="105.588" filterUnits="userSpaceOnUse" color-interpolation-filters="sRGB">
<feFlood flood-opacity="0" result="BackgroundImageFix"/>
<feBlend mode="normal" in="SourceGraphic" in2="BackgroundImageFix" result="shape"/>
<feGaussianBlur stdDeviation="15" result="effect1_foregroundBlur"/>
</filter>
<filter id="filter2_f" x="73.2554" y="98" width="134" height="94" filterUnits="userSpaceOnUse" color-interpolation-filters="sRGB">
<feFlood flood-opacity="0" result="BackgroundImageFix"/>
<feBlend mode="normal" in="SourceGraphic" in2="BackgroundImageFix" result="shape"/>
<feGaussianBlur stdDeviation="10" result="effect1_foregroundBlur"/>
</filter>
<linearGradient id="paint0_linear" x1="2.69798" y1="122.329" x2="101.687" y2="210.242" gradientUnits="userSpaceOnUse">
<stop stop-color="#ECF2FF"/>
<stop offset="1" stop-color="#F3F8FE"/>
</linearGradient>
<linearGradient id="paint1_linear" x1="166.698" y1="79.8232" x2="167.72" y2="105.299" gradientUnits="userSpaceOnUse">
<stop stop-color="#F1F5FF"/>
<stop offset="1" stop-color="#C6D6FF"/>
</linearGradient>
<linearGradient id="paint2_linear" x1="153.325" y1="79.4453" x2="162.79" y2="140.14" gradientUnits="userSpaceOnUse">
<stop stop-color="#E6EDFF"/>
<stop offset="1" stop-color="#CFDCFD"/>
</linearGradient>
<linearGradient id="paint3_linear" x1="138.13" y1="80.5366" x2="150.139" y2="149.78" gradientUnits="userSpaceOnUse">
<stop stop-color="#F1F5FF"/>
<stop offset="1" stop-color="#C6D6FF"/>
</linearGradient>
<linearGradient id="paint4_linear" x1="135.421" y1="84.6123" x2="144.054" y2="119.271" gradientUnits="userSpaceOnUse">
<stop stop-color="#E6EDFF"/>
<stop offset="1" stop-color="#9BB7FF"/>
</linearGradient>
<linearGradient id="paint5_linear" x1="153.52" y1="77.5742" x2="154.148" y2="87.5847" gradientUnits="userSpaceOnUse">
<stop stop-color="#E6EDFF"/>
<stop offset="1" stop-color="#9BB7FF"/>
</linearGradient>
<linearGradient id="paint6_linear" x1="143.343" y1="77.5698" x2="149.411" y2="109.114" gradientUnits="userSpaceOnUse">
<stop stop-color="#E6EDFF"/>
<stop offset="1" stop-color="#CFDCFD"/>
</linearGradient>
<linearGradient id="paint7_linear" x1="125.243" y1="80.9976" x2="126.825" y2="111.991" gradientUnits="userSpaceOnUse">
<stop stop-color="#F1F5FF"/>
<stop offset="1" stop-color="#C6D6FF"/>
</linearGradient>
<linearGradient id="paint8_linear" x1="123.938" y1="98.478" x2="124.505" y2="104.503" gradientUnits="userSpaceOnUse">
<stop stop-color="#E6EDFF"/>
<stop offset="1" stop-color="#9BB7FF"/>
</linearGradient>
<linearGradient id="paint9_linear" x1="231.588" y1="178.188" x2="232.01" y2="184.61" gradientUnits="userSpaceOnUse">
<stop stop-color="#51586F"/>
<stop offset="1" stop-color="#2E3345"/>
</linearGradient>
<linearGradient id="paint10_linear" x1="251.071" y1="165.08" x2="252.522" y2="173.807" gradientUnits="userSpaceOnUse">
<stop stop-color="#51586F"/>
<stop offset="1" stop-color="#2E3345"/>
</linearGradient>
<linearGradient id="paint11_linear" x1="244.099" y1="124.801" x2="265.3" y2="169.344" gradientUnits="userSpaceOnUse">
<stop stop-color="#51586F"/>
<stop offset="1" stop-color="#2E3345"/>
</linearGradient>
<linearGradient id="paint12_linear" x1="259.606" y1="83.3569" x2="262.962" y2="97.4585" gradientUnits="userSpaceOnUse">
<stop stop-color="#51586F"/>
<stop offset="1" stop-color="#2E3345"/>
</linearGradient>
<linearGradient id="paint13_linear" x1="245.36" y1="60.4857" x2="247.69" y2="75.1085" gradientUnits="userSpaceOnUse">
<stop stop-color="#51586F"/>
<stop offset="1" stop-color="#2E3345"/>
</linearGradient>
<linearGradient id="paint14_linear" x1="230.918" y1="85.4676" x2="233.561" y2="98.6505" gradientUnits="userSpaceOnUse">
<stop stop-color="#51586F"/>
<stop offset="1" stop-color="#2E3345"/>
</linearGradient>
</defs>
</svg>
