<svg width="95" height="76" viewBox="0 0 95 76" fill="none" xmlns="http://www.w3.org/2000/svg">
<g clip-path="url(#clip0)" filter="url(#filter0_d)">
<path d="M74.9999 31.9666C74.9957 31.6995 74.9921 31.4689 74.9506 31.1494C74.9006 30.7645 74.8491 30.5596 74.7836 30.3C74.6823 29.8976 74.4418 29.3177 74.2531 29.0028C74.1516 28.8332 74.016 28.6062 73.8965 28.4493C73.8273 28.3585 73.7363 28.2361 73.6622 28.1494C73.5585 28.0282 73.4181 27.8678 73.3041 27.7565C73.1038 27.5611 72.8248 27.3122 72.6031 27.1424C72.3662 26.9612 72.0304 26.7475 71.7783 26.5891C71.7401 26.5667 71.4996 26.4292 71.4984 26.4286C71.375 26.3603 71.2598 26.2989 71.0993 26.2215C70.9008 26.1259 70.3267 25.8762 69.8988 25.7325C69.3202 25.5381 68.9971 25.448 68.3951 25.3133C68.0807 25.2428 67.4228 25.1139 66.5487 25.0417C65.7364 24.9745 65.1441 24.9949 64.7478 25.0094C60.9766 22.7925 57.2055 20.5758 53.4343 18.3589C53.4251 18.2964 53.415 18.2316 53.4031 18.1589C53.3787 18.01 53.3014 17.6617 53.1972 17.3618C53.087 17.0445 52.968 16.7678 52.8437 16.5393C52.7734 16.41 52.5596 16.0169 52.2716 15.66C52.0137 15.3404 51.8677 15.1835 51.561 14.8967C51.4201 14.7649 51.2523 14.6293 51.0579 14.4722C50.9817 14.4107 50.8779 14.3339 50.7871 14.2714C50.4869 14.0656 50.1051 13.8413 49.7119 13.6398C49.2624 13.4096 48.8353 13.2471 48.653 13.178C47.688 12.8115 46.6428 12.6052 46.3216 12.5568C46.1374 12.529 45.8926 12.4846 45.7073 12.4647C45.5206 12.4448 45.2719 12.4143 45.0849 12.3982C44.8968 12.3821 44.6451 12.3696 44.4567 12.3574C44.0779 12.3328 43.5709 12.3448 43.1915 12.3536C43.0669 12.3565 41.9385 12.39 40.6794 12.6665C40.4866 12.7088 40.0349 12.8081 39.4646 12.9915C39.1214 13.1019 38.6744 13.2818 38.3405 13.419C38.3725 13.4048 38.406 13.4006 38.4404 13.4069C38.406 13.4005 38.3724 13.4048 38.3405 13.419C38.3405 13.419 37.8246 13.6478 37.6036 13.7458C37.1614 13.9419 36.5718 14.2035 36.1296 14.3995C35.9085 14.4976 35.6136 14.6283 35.3927 14.7263C34.9504 14.9224 34.3609 15.1841 33.9186 15.3802C33.6976 15.4782 33.4027 15.609 33.1817 15.707C32.7395 15.9031 32.1499 16.1647 31.7077 16.3608C31.2654 16.5569 30.6759 16.8186 30.2336 17.0147C30.0126 17.1128 29.7177 17.2435 29.4967 17.3415C29.0545 17.5376 28.4649 17.7992 28.0227 17.9953C27.8016 18.0933 27.5067 18.2241 27.2858 18.3221C26.8435 18.5182 26.254 18.7799 25.8117 18.976C25.5907 19.0741 25.2958 19.2048 25.0748 19.3028C24.6326 19.4989 24.043 19.7605 23.6008 19.9566C23.638 19.94 23.6775 19.9389 23.7182 19.9505C23.6775 19.9388 23.638 19.9401 23.6008 19.9566C23.3481 20.0766 23.0115 20.2388 22.7707 20.3819C22.5312 20.5242 22.224 20.7356 22.0028 20.906C21.6217 21.1995 21.2208 21.6162 20.9565 21.9936C20.6201 22.4737 20.4111 22.9028 20.2351 23.4745C20.1532 23.7409 20.0914 24.0614 20.0609 24.2727C20.0396 24.4201 20.0223 24.6182 20.0116 24.7668C20.0045 24.8647 20.0041 24.9956 20.0018 25.0937L20 25.5177C20 25.603 20.0025 25.7808 20.0179 25.9907C20.0184 25.9992 20.0188 26.0088 20.0194 26.0169C20.0246 26.0998 20.0376 26.2099 20.0483 26.2924C20.0493 26.3 20.0506 26.3089 20.0516 26.317C20.0518 26.3187 20.052 26.3204 20.0522 26.3222C20.0523 26.3233 20.0525 26.3243 20.0526 26.3254C20.0628 26.4025 20.0759 26.4941 20.0901 26.5652C20.0908 26.5686 20.0917 26.5728 20.0925 26.5763C20.1328 26.8014 20.1769 26.9755 20.2129 27.0984C20.2454 27.2187 20.2932 27.3633 20.3518 27.5168C20.362 27.5441 20.3719 27.5694 20.3817 27.5943C20.3837 27.5994 20.3856 27.6044 20.3877 27.6096C20.409 27.6629 20.4294 27.7114 20.449 27.7557C20.4521 27.7629 20.4555 27.77 20.4587 27.7773C20.4689 27.8001 20.479 27.8223 20.4889 27.8433C20.5338 27.9412 20.5814 28.0364 20.631 28.1263C20.7453 28.3366 20.8579 28.5018 20.9449 28.6275C21.1082 28.8639 21.3263 29.1003 21.3999 29.1779C21.4009 29.179 21.4022 29.1804 21.4031 29.1814C21.406 29.1845 21.4096 29.1882 21.4126 29.1913C21.414 29.1927 21.4143 29.1931 21.4155 29.1942C21.497 29.2809 21.6045 29.3882 21.692 29.4635C21.6938 29.4651 21.6951 29.4661 21.6969 29.4678C21.704 29.4742 21.7118 29.4814 21.7185 29.4876C21.8017 29.5614 21.8874 29.632 21.973 29.7027C22.008 29.7321 22.0391 29.7577 22.0667 29.7801C22.0669 29.7803 22.0671 29.7806 22.0674 29.7807C22.0897 29.7993 22.1121 29.8178 22.135 29.8356C22.1424 29.8413 22.1481 29.8455 22.1552 29.851C22.2259 29.9061 22.2728 29.9391 22.3278 29.9771C22.3662 30.0037 22.4123 30.034 22.4619 30.0657C22.4696 30.0707 22.4757 30.0748 22.4838 30.0801C22.4939 30.0868 22.5157 30.1004 22.5434 30.1174C22.5499 30.1215 22.555 30.1249 22.5616 30.129C22.6002 30.1531 22.6392 30.1765 22.6782 30.1999C22.7006 30.2134 22.7231 30.2265 22.7455 30.2398C22.7597 30.2483 22.7732 30.2563 22.7863 30.264C22.789 30.2656 22.7917 30.2673 22.7945 30.2688C22.7951 30.2693 22.7961 30.2697 22.7967 30.2701C22.8037 30.2743 22.8111 30.2786 22.8175 30.2824C22.8276 30.2882 22.8398 30.2946 22.8502 30.3006C23.0017 30.3865 23.219 30.5066 23.5118 30.6412C23.5248 30.6476 23.5395 30.6547 23.5522 30.6607C23.7494 30.7544 24.1944 30.9283 24.37 30.9847C24.3803 30.988 24.3927 30.9918 24.4034 30.9951C24.5233 31.0359 24.6497 31.0767 24.7831 31.1167C24.9382 31.1634 25.0923 31.2047 25.2438 31.2424C25.3729 31.2766 25.538 31.3118 25.6643 31.3384C25.7989 31.3667 25.9789 31.403 26.1148 31.4234C26.1299 31.4257 26.1463 31.428 26.162 31.4303C26.5204 31.489 26.8255 31.5235 27.0341 31.5426C27.1738 31.558 27.3612 31.5692 27.5016 31.5768C27.5313 31.5785 27.5639 31.5797 27.5971 31.581C27.7126 31.5863 27.8311 31.5907 27.9546 31.5931C27.9602 31.5933 27.9666 31.5936 27.9721 31.5938C28.2555 31.6085 28.6343 31.5915 28.9176 31.5753C28.9653 31.5726 29.0118 31.5696 29.0574 31.5664C29.0945 31.5639 29.1319 31.5611 29.1695 31.5582C29.2331 31.5533 29.2947 31.5482 29.353 31.5429C29.3875 31.5398 29.422 31.5365 29.4567 31.533C29.5352 31.5251 29.6073 31.5172 29.6731 31.5095C29.704 31.5058 29.7349 31.502 29.766 31.498C29.8008 31.4935 29.834 31.4893 29.8638 31.4852C29.8889 31.4818 29.9243 31.4769 29.964 31.4711C30.0078 31.4648 30.0518 31.4584 30.096 31.4515C30.1539 31.4425 30.2204 31.4317 30.2917 31.4194C30.3355 31.4119 30.3793 31.4041 30.4232 31.3961C30.4955 31.3829 30.5715 31.3685 30.6521 31.352C30.6808 31.3462 30.7095 31.3399 30.7382 31.3339C30.7585 31.3295 30.778 31.3257 30.7989 31.3211C30.8221 31.3161 30.8488 31.3092 30.8732 31.3036C31.1464 31.2419 31.4232 31.1702 31.7031 31.0835C31.7238 31.0771 31.7439 31.0639 31.7629 31.044C31.7437 31.0638 31.7237 31.0771 31.7031 31.0835C32.7731 30.7523 33.8428 30.4208 34.9127 30.0894C35.168 30.3606 35.4896 30.616 35.8809 30.846C37.7902 31.9684 40.6988 32.1308 42.8954 31.3405C43.8847 31.922 44.874 32.5036 45.8633 33.085L45.857 35.3013C45.8546 36.17 46.4178 37.04 47.5454 37.7028C47.7741 37.8373 48.0202 37.9544 48.2746 38.0613C48.2629 38.0769 48.2501 38.0935 48.2392 38.1083C48.185 38.1816 48.1193 38.2847 48.0726 38.3634C47.8819 38.6844 47.7662 38.9266 47.6457 39.2566C47.4975 39.6626 47.4264 40.0567 47.4257 40.0606C47.4013 40.203 47.3687 40.3931 47.3548 40.5368C47.3299 40.7978 47.3291 40.8309 47.3218 41.1479C47.3216 41.2248 47.3247 41.3016 47.3309 41.3782C47.325 41.3016 47.3216 41.2248 47.3218 41.1479L47.3208 41.5716C47.3208 41.6624 47.3233 41.7495 47.327 41.8347C47.3314 41.9608 47.3394 42.0822 47.3561 42.2299C47.3569 42.2377 47.3578 42.2454 47.3586 42.253C47.3604 42.2683 47.3624 42.2847 47.3644 42.3007C47.3747 42.3868 47.3863 42.4692 47.3991 42.5471C47.4007 42.5572 47.4018 42.5656 47.4034 42.576C47.4179 42.6683 47.4341 42.7485 47.4556 42.8407C47.4747 42.9272 47.4943 43.0065 47.5134 43.078C47.5145 43.0827 47.5155 43.0867 47.5167 43.0915C47.529 43.1406 47.5462 43.1976 47.5639 43.2538C47.5746 43.2889 47.5849 43.3212 47.5944 43.3505C47.5976 43.3609 47.6012 43.372 47.6043 43.3817C47.6305 43.4651 47.6691 43.5713 47.7047 43.6564C47.7704 43.821 47.8447 43.9796 47.9235 44.1286C47.929 44.1394 47.9349 44.1515 47.9403 44.1618C47.9944 44.2664 48.0752 44.3974 48.14 44.5001C48.1406 44.5012 48.1414 44.5024 48.1421 44.5034C48.1449 44.5078 48.148 44.5129 48.1508 44.5173C48.1627 44.5362 48.1783 44.558 48.1925 44.5789C48.2362 44.6445 48.2793 44.7062 48.3216 44.7636C48.3256 44.7692 48.3334 44.78 48.3449 44.7957C48.3561 44.8105 48.3672 44.8253 48.378 44.8394C48.444 44.9253 48.5631 45.0724 48.7283 45.2462C48.7353 45.2536 48.7422 45.2608 48.7494 45.2684C48.7663 45.286 48.7841 45.304 48.8019 45.3223C48.8237 45.3445 48.8464 45.367 48.87 45.3901C48.8893 45.4091 48.9088 45.4281 48.9291 45.4474C48.9409 45.4586 48.9534 45.4702 48.9656 45.4817C48.9917 45.506 49.0184 45.5305 49.046 45.5551C49.0548 45.563 49.0634 45.5707 49.0723 45.5787C49.1084 45.6107 49.1454 45.6428 49.1837 45.6748C49.1871 45.6776 49.1901 45.6804 49.1936 45.6833C49.1942 45.6839 49.1952 45.6845 49.1959 45.6852C49.1984 45.6873 49.2006 45.6892 49.203 45.6912C49.4087 45.8618 49.5968 45.9986 49.7726 46.1153C49.7758 46.1176 49.7795 46.1202 49.7827 46.1225C49.8373 46.1609 49.905 46.2024 49.9714 46.2426C50.0107 46.2669 50.0495 46.2903 50.0876 46.313C50.0935 46.3166 50.1004 46.3208 50.1062 46.3244C50.1064 46.3245 50.1387 46.3434 50.1785 46.3666C50.1929 46.3749 50.2076 46.3837 50.2219 46.392C50.2253 46.3939 50.2289 46.3959 50.2323 46.3978C50.2575 46.4123 50.2817 46.4262 50.2998 46.4364C50.3384 46.4581 50.3741 46.4779 50.4096 46.4971C50.4128 46.4989 50.416 46.5006 50.4192 46.5024C50.4198 46.5029 50.4818 46.5376 50.5814 46.5873C50.695 46.6451 50.8064 46.6983 51.1523 46.8386C51.2612 46.8838 51.3741 46.9303 51.4695 46.9658C51.4727 46.967 51.4767 46.9684 51.48 46.9697C51.4806 46.9699 51.4811 46.9701 51.4817 46.9703C51.5789 47.0087 51.6973 47.0499 51.8123 47.0874C51.8804 47.1101 51.9472 47.1316 52.0071 47.1485C52.0116 47.1497 52.0166 47.1515 52.021 47.1528C52.3434 47.2482 52.7763 47.3592 53.1084 47.4255C53.1096 47.4258 53.111 47.426 53.1123 47.4263C53.2435 47.4558 53.4099 47.4828 53.5586 47.5056C53.6023 47.5125 53.644 47.5189 53.6848 47.5249C53.6859 47.5251 53.6875 47.5253 53.6889 47.5254C53.6907 47.5256 53.6923 47.5259 53.694 47.5261C53.7528 47.5346 53.8085 47.5425 53.8602 47.5493C54.2315 47.5995 54.59 47.6285 54.9214 47.643C55.1067 47.6537 55.2655 47.6586 55.4237 47.6561C55.4276 47.6561 55.4319 47.656 55.4357 47.6559C55.9483 47.6585 56.3551 47.6312 56.5776 47.6115C56.7496 47.601 56.978 47.5739 57.1487 47.5503C57.3186 47.5266 57.5452 47.497 57.7139 47.4626C57.8794 47.4366 58.0939 47.385 58.2567 47.3517C58.3231 47.3382 58.5349 47.286 58.7764 47.2183C58.7837 47.2164 58.7916 47.2146 58.7987 47.2126C58.9076 47.1845 59.0222 47.1485 59.1376 47.1103C59.1986 47.0908 59.2581 47.071 59.314 47.0512C59.4696 46.9961 59.6782 46.9245 59.8294 46.8577C59.8338 46.8559 60.2771 46.6809 60.7445 46.4177C60.7453 46.4174 60.7461 46.4169 60.7468 46.4166C60.7926 46.3923 60.9743 46.2927 61.232 46.1184C61.2458 46.1094 61.261 46.0997 61.274 46.0909C61.3164 46.0625 61.3631 46.0285 61.4107 45.9936C61.4875 45.9385 61.5675 45.8798 61.6524 45.8136C65.3316 42.9087 69.0105 40.0038 72.6897 37.0989C73.7028 36.2927 74.1488 35.5444 74.4243 34.9823C74.6919 34.4363 74.8235 33.8607 74.8376 33.7969C74.9034 33.4991 74.9302 33.324 74.9408 33.2295C74.9511 33.1387 74.9679 33.0181 74.974 32.9268C74.9849 32.7661 74.9939 32.5511 74.9976 32.39L74.9999 31.9666Z" fill="#9EA6C4"/>
<path d="M53.4922 19.5996C53.4863 19.8772 53.4838 19.992 53.4454 20.302C53.4625 20.1723 53.4718 20.039 53.4722 19.9038C53.4851 19.8048 53.4918 19.7033 53.4922 19.5996Z" fill="#EBEFFC"/>
<path d="M53.4942 19.1758L53.493 19.5995C53.4927 19.7032 53.4861 19.8048 53.473 19.9037L53.474 19.48C53.4874 19.3811 53.494 19.2796 53.4942 19.1758Z" fill="#EBEFFC"/>
<path d="M38.3406 13.4191C38.4046 13.3908 38.4742 13.4021 38.5471 13.4591C42.0616 11.9006 46.932 12.1477 49.9681 13.9325C50.2598 14.1039 50.5347 14.2898 50.7897 14.4893C52.138 15.5443 52.6869 16.7897 52.5288 17.9907C53.053 17.877 53.4759 18.5437 53.4733 19.4799C53.4863 19.3808 53.4931 19.2793 53.4934 19.1757C53.4885 18.723 53.4636 18.5278 53.4033 18.1588C53.3789 18.0099 53.3016 17.6616 53.1974 17.3617C53.0872 17.0444 52.9682 16.7677 52.844 16.5392C52.7736 16.4099 52.5598 16.0168 52.2718 15.6598C52.0139 15.3402 51.8679 15.1834 51.5612 14.8966C51.4203 14.7648 51.2525 14.6292 51.0581 14.4722C50.9819 14.4107 50.8781 14.3339 50.7873 14.2714C50.4871 14.0656 50.1054 13.8413 49.7121 13.6398C49.2626 13.4096 48.8355 13.2473 48.6532 13.178C47.6883 12.8115 46.643 12.6052 46.3219 12.5568C46.1376 12.529 45.8928 12.4846 45.7075 12.4647C45.5208 12.4448 45.2721 12.4143 45.0851 12.3982C44.897 12.3821 44.6453 12.3696 44.4569 12.3574C44.0781 12.3328 43.5711 12.3448 43.1917 12.3536C43.0671 12.3564 41.9387 12.39 40.6796 12.6665C40.4868 12.7088 40.0351 12.8081 39.4648 12.9914C39.1215 13.1021 38.6744 13.2818 38.3406 13.4191Z" fill="#9EA6C4"/>
<path d="M23.6002 19.9572C24.0425 19.7611 24.632 19.4995 25.0743 19.3034C25.2953 19.2054 25.5902 19.0746 25.8113 18.9766C26.2535 18.7804 26.8431 18.5188 27.2853 18.3227C27.5064 18.2247 27.8013 18.0939 28.0223 17.9959C28.4646 17.7998 29.0541 17.5382 29.4964 17.3421C29.7175 17.2441 30.0123 17.1132 30.2334 17.0152C30.6757 16.8191 31.2652 16.5575 31.7074 16.3614C32.1497 16.1653 32.7392 15.9037 33.1815 15.7076C33.4026 15.6096 33.6974 15.4787 33.9184 15.3807C34.3606 15.1846 34.9502 14.923 35.3924 14.7269C35.6135 14.6289 35.9084 14.4981 36.1293 14.4001C36.5716 14.204 37.1611 13.9424 37.6034 13.7463C37.8245 13.6483 38.3403 13.4194 38.3403 13.4194C38.4042 13.3911 38.4739 13.4025 38.5468 13.4595L23.8067 19.9972C23.7339 19.9401 23.6642 19.9289 23.6002 19.9572Z" fill="#9EA6C4"/>
<path d="M52.9174 18.055C56.8666 20.3764 60.8157 22.698 64.7651 25.0196C64.7221 24.9943 64.6741 25.019 64.6235 25.1008L52.5288 17.9909C52.6674 17.9609 52.7989 17.9853 52.9174 18.055Z" fill="#BBC4DC"/>
<path d="M22.795 30.2694C22.7559 30.2471 22.7174 30.2237 22.6788 30.2006C22.6398 30.1772 22.6007 30.1537 22.5621 30.1297C22.4698 30.0725 22.3912 30.0215 22.3284 29.9778C22.2032 29.8911 22.1276 29.8389 21.6924 29.4642C21.6006 29.3853 21.4862 29.2706 21.4036 29.1819C21.2866 29.0566 21.1354 28.8842 21.0326 28.7465C20.9164 28.5907 20.774 28.3734 20.6754 28.2056C20.4632 27.845 20.2761 27.3528 20.2007 27.053C20.1642 26.9076 20.1199 26.7124 20.0905 26.5653C20.0743 26.4843 20.0592 26.3747 20.0486 26.2927C20.0378 26.2103 20.0248 26.1002 20.0197 26.0171C20.0103 25.8675 20.0029 25.6679 20.0002 25.518C20.0043 24.0613 21.1241 22.6248 23.247 21.6826C23.2444 22.6189 23.4904 23.5721 23.7963 23.8115C20.6007 25.2294 19.9662 27.911 22.3807 29.8003C22.591 29.965 22.8186 30.1188 23.0602 30.2608C25.2803 31.5659 28.7197 31.9003 31.5573 31.0215C31.6087 31.0789 31.658 31.0984 31.7036 31.0841C29.877 31.6494 28.1565 31.6457 27.0348 31.5431C26.5872 31.5022 25.6998 31.3924 24.7835 31.1172C23.7237 30.7988 23.0964 30.4412 22.795 30.2694Z" fill="#9EA6C4"/>
<path d="M64.7292 25.0102C65.1255 24.9957 65.7243 24.9736 66.5488 25.0418C67.4229 25.1141 68.0808 25.2431 68.3952 25.3134C68.9971 25.4483 69.3203 25.5384 69.8989 25.7326C70.3268 25.8764 70.9009 26.1261 71.0994 26.2217C71.2599 26.2991 71.3751 26.3603 71.4985 26.4287C71.4996 26.4294 71.7402 26.5668 71.7785 26.5893C71.6977 26.5418 71.608 26.5419 71.5133 26.5978C71.2214 26.4261 70.9058 26.2647 70.5662 26.1149C68.7729 25.3231 66.6596 25.0034 64.6234 25.1007C64.6605 25.0411 64.6959 25.0118 64.7292 25.0102Z" fill="#BBC4DC"/>
<path d="M38.7536 28.9007C36.4034 29.6285 34.0537 30.3563 31.7035 31.0841C31.8694 31.0328 31.9891 30.5399 31.9912 29.8063L38.6469 27.7449C38.645 28.4787 38.6895 28.9205 38.7536 28.9007Z" fill="#9EA6C4"/>
<path d="M38.6482 27.3213L38.6471 27.745L31.9914 29.8064L31.9925 29.3827L38.6482 27.3213Z" fill="#9EA6C4"/>
<path d="M38.8212 24.9607C38.7283 25.3281 38.6509 26.385 38.6483 27.3212L31.9926 29.3826C31.9951 28.4464 31.805 27.4724 31.5678 27.2073L38.8212 24.9607Z" fill="#BBC4DC"/>
<path d="M31.7036 31.084C31.4339 31.1611 31.0734 31.2618 30.7994 31.3215C30.3563 31.4183 29.9989 31.467 29.8643 31.4854C29.6585 31.5135 29.3274 31.552 28.9184 31.5755C28.6351 31.5917 28.2562 31.6088 27.9728 31.594C27.8318 31.5867 27.6434 31.5847 27.5023 31.5771C27.3619 31.5694 27.1747 31.5585 27.0348 31.5428C26.7584 31.5123 26.3905 31.4646 26.1154 31.4236C25.9794 31.4034 25.7996 31.3671 25.665 31.3386C25.5313 31.3104 25.3528 31.2727 25.221 31.2365C24.9645 31.1664 24.6241 31.0661 24.3709 30.9848C24.1953 30.9285 23.7503 30.7547 23.5531 30.6608C23.3292 30.5544 23.0328 30.4073 22.8182 30.2825C22.712 30.2206 22.5221 30.105 22.4845 30.0804C22.3388 29.9851 22.2656 29.9372 22.1354 29.8357C22.1126 29.8179 22.0901 29.7995 22.0679 29.7808C21.9513 29.6834 21.8325 29.5886 21.7189 29.4876C21.6281 29.407 21.5128 29.2929 21.4275 29.2064C21.4247 29.2036 21.1429 28.9136 20.9451 28.6272C20.8361 28.4693 20.6865 28.253 20.5439 27.9576C20.4556 27.775 20.3557 27.5679 20.2241 27.1353C20.1746 26.9724 20.1046 26.6991 20.0524 26.3218C20.005 25.9804 20 25.6458 20 25.5178C19.9972 26.5321 20.5351 27.556 21.6518 28.4301C21.8858 28.6515 22.1447 28.7886 22.4169 28.9487C24.9182 30.4193 28.7951 30.7964 31.9912 29.8062C31.9892 30.5399 31.8695 31.0326 31.7036 31.084Z" fill="#9EA6C4"/>
<path d="M20 25.518L20.0011 25.0942C19.9983 26.1085 20.5362 27.1324 21.6529 28.0066C21.8869 28.2279 22.1458 28.365 22.418 28.5251C24.9193 29.9958 28.7961 30.3728 31.9922 29.3826L31.991 29.8063C28.7946 30.7965 24.918 30.4196 22.4167 28.9488C22.1444 28.7888 21.8856 28.6518 21.6516 28.4303C20.5352 27.5563 19.9972 26.5322 20 25.518Z" fill="#9EA6C4"/>
<path d="M20.0013 25.0942C20.0037 24.9961 20.0041 24.8652 20.0111 24.7673C20.0217 24.6187 20.0391 24.4205 20.0604 24.2731C20.0908 24.062 20.1525 23.7414 20.2346 23.4749C20.4107 22.9032 20.6196 22.4742 20.956 21.9941C21.2203 21.6166 21.6213 21.1999 22.0022 20.9064C22.2234 20.736 22.5306 20.5246 22.7702 20.3823C23.011 20.2393 23.3477 20.077 23.6002 19.9571C23.6642 19.9287 23.7339 19.94 23.8068 19.9971C20.6111 21.415 19.9767 24.0966 22.3912 25.9859C22.6015 26.1506 22.8291 26.3044 23.0707 26.4464C25.2908 27.7516 28.7302 28.0859 31.5678 27.2071C31.8049 27.4722 31.9951 28.4464 31.9926 29.3824C28.7962 30.3726 24.9196 29.9957 22.4183 28.5249C22.146 28.3649 21.8872 28.2279 21.6532 28.0064C20.5364 27.1326 19.9983 26.1085 20.0013 25.0942Z" fill="#BBC4DC"/>
<path d="M52.3794 36.916C49.1919 35.0422 46.0043 33.1683 42.8167 31.2947C41.4585 30.4962 40.1002 29.6978 38.742 28.8993C38.6841 28.8653 38.6451 28.4337 38.6469 27.7451L51.7181 35.429C51.7164 36.1175 51.9879 36.6857 52.3794 36.916Z" fill="#9EA6C4"/>
<path d="M51.7196 35.0052L51.7183 35.429L38.6472 27.745L38.6482 27.3213L51.7196 35.0052Z" fill="#9EA6C4"/>
<path d="M74.9988 32.3906C74.9949 32.5517 74.9861 32.7667 74.9752 32.9274C74.969 33.0185 74.9523 33.1394 74.9419 33.2301C74.9311 33.3247 74.9045 33.4999 74.8386 33.7975C74.8244 33.8613 74.693 34.437 74.4254 34.9829C74.15 35.5449 73.7038 36.2933 72.6907 37.0995C72.9231 36.9161 73.0823 36.4233 73.0841 35.7763C74.3721 34.76 74.9954 33.5711 74.9988 32.3906Z" fill="#9EA6C4"/>
<path d="M74.9999 31.967L74.9986 32.3908C74.9954 33.5712 74.3719 34.7601 73.084 35.7766L73.0852 35.3528C74.3732 34.3364 74.9967 33.1475 74.9999 31.967Z" fill="#9EA6C4"/>
<path d="M52.8527 33.2084C52.2302 33.2643 51.7232 34.0689 51.7206 35.0051L38.6494 27.3212C38.652 26.385 38.7296 25.3281 38.8224 24.9607L52.8527 33.2084Z" fill="#9EA6C4"/>
<path d="M71.7784 26.5893C72.0306 26.7476 72.3664 26.9612 72.6032 27.1426C72.825 27.3123 73.1039 27.5613 73.3043 27.7566C73.4182 27.8679 73.5586 28.0282 73.6623 28.1495C73.7364 28.2362 73.8274 28.3585 73.8966 28.4494C74.0161 28.6064 74.1516 28.8334 74.2532 29.003C74.4419 29.3178 74.6822 29.8977 74.7837 30.3001C74.8491 30.5598 74.9008 30.7647 74.9507 31.1495C74.9922 31.4691 74.9958 31.6998 75 31.9668C74.9968 33.1473 74.3733 34.3362 73.0854 35.3526C73.088 34.4164 72.7602 33.5115 72.3531 33.332C74.9849 31.2549 74.55 28.383 71.5134 26.598C71.608 26.5418 71.6977 26.5418 71.7784 26.5893Z" fill="#BBC4DC"/>
<path d="M72.6908 37.0995C69.0116 40.0044 65.3326 42.9092 61.6535 45.8142C61.8859 45.6307 62.0451 45.138 62.0469 44.491L73.0841 35.7764C73.0823 36.4232 72.9231 36.9161 72.6908 37.0995Z" fill="#9EA6C4"/>
<path d="M73.0853 35.3525L73.0841 35.7764L62.0469 44.491L62.0481 44.0673L73.0853 35.3525Z" fill="#9EA6C4"/>
<path d="M72.3531 33.332C72.76 33.5117 73.088 34.4166 73.0854 35.3526L62.0481 44.0673C62.0507 43.131 61.7228 42.2263 61.3157 42.0467L72.3531 33.332Z" fill="#BBC4DC"/>
<path d="M50.9574 46.7583C50.6593 46.637 50.4215 46.5039 50.4204 46.5032C50.3547 46.4663 50.2884 46.4302 50.2232 46.3926C49.9254 46.2208 49.5958 46.017 49.2041 45.692C48.6575 45.2384 48.3326 44.7788 48.3189 44.7594C48.2683 44.6873 48.1987 44.5925 48.1516 44.5182C48.0853 44.4135 47.9983 44.2728 47.941 44.1627C47.8679 44.0217 47.7789 43.8291 47.7161 43.6831C47.6782 43.5949 47.6339 43.4744 47.6051 43.3825C47.578 43.2957 47.5394 43.1806 47.5174 43.0924C47.4609 42.8661 47.4297 42.7414 47.4039 42.5769C47.3306 42.1093 47.3272 41.9187 47.3211 41.5726C47.3233 40.8218 47.6227 40.0638 48.244 39.3606C48.2414 40.2968 48.6044 41.1687 49.0547 41.3076C47.5738 42.9838 48.1522 45.0114 50.3722 46.3164C50.6139 46.4586 50.875 46.592 51.1552 46.7156C54.3674 48.134 58.9123 47.7511 61.3049 45.8612C61.4307 45.9166 61.5493 45.8964 61.6534 45.8142C61.1788 46.1831 60.8157 46.3812 60.7477 46.4173C60.4777 46.5603 60.1096 46.7349 59.8304 46.8584C59.6793 46.9254 59.4706 46.9968 59.315 47.0519C58.9283 47.189 58.3731 47.3288 58.2576 47.3525C58.0926 47.3862 57.8739 47.439 57.7074 47.4647C57.3699 47.517 56.9187 47.5823 56.5784 47.6124C56.1371 47.6513 54.9721 47.7208 53.6897 47.5261C53.5161 47.4996 53.2844 47.4654 53.1131 47.427C52.7809 47.3526 52.3403 47.2426 52.0124 47.1506C51.8471 47.1041 51.6313 47.0263 51.4703 46.9666C51.3149 46.9085 51.1113 46.8208 50.9574 46.7583Z" fill="#EBEFFC"/>
<path d="M61.6535 45.8139C61.54 45.897 61.392 46.0129 61.2751 46.0913C61.1316 46.1875 60.9359 46.3096 60.7861 46.3953C60.3041 46.6714 59.8351 46.8564 59.8306 46.8581C59.5205 46.9778 59.1345 47.1265 58.7999 47.213C58.4773 47.2964 58.0442 47.3958 57.7179 47.4626C57.5488 47.4972 57.3207 47.527 57.1498 47.5508C56.9791 47.5744 56.7507 47.6015 56.5787 47.612C56.2328 47.6332 55.7712 47.6512 55.4248 47.6566C55.1095 47.6616 54.7923 47.637 54.2667 47.5963C54.2618 47.5959 53.7434 47.5511 53.123 47.4285C52.789 47.3625 52.3486 47.2497 52.022 47.153C51.8584 47.1045 51.6415 47.0335 51.4827 46.9706C50.8119 46.7052 50.7054 46.6506 50.5444 46.5682C50.4666 46.5283 50.3893 46.4864 50.3009 46.4367C50.2394 46.402 50.1076 46.3249 50.1071 46.3246C50.0098 46.2644 49.8773 46.1885 49.7837 46.1227C49.6034 45.996 49.3635 45.8252 49.1944 45.6835C48.8229 45.3724 48.6023 45.1105 48.4706 44.9542C48.2024 44.6357 47.8404 44.0738 47.6289 43.4515C47.5449 43.2043 47.3217 42.5476 47.3211 41.572C47.3177 42.8373 48.159 44.0811 49.7292 45.004C50.0016 45.1641 50.2344 45.3162 50.6108 45.4534C54.2312 47.0516 59.3498 46.6203 62.0468 44.4907C62.0451 45.1376 61.8861 45.6304 61.6535 45.8139Z" fill="#9EA6C4"/>
<path d="M47.3221 41.5722L47.3232 41.1484C47.3197 42.4137 48.1611 43.6575 49.7312 44.5804C50.0037 44.7405 50.2364 44.8927 50.6129 45.0298C54.2333 46.628 59.3518 46.1968 62.0489 44.0671L62.0477 44.4908C59.3506 46.6205 54.2321 47.0517 50.6117 45.4535C50.2353 45.3162 50.0024 45.1643 49.7301 45.0041C48.1601 44.0813 47.3185 42.8374 47.3221 41.5722Z" fill="#9EA6C4"/>
<path d="M45.6418 24.6639L45.6312 28.4782C45.6288 29.3358 45.0752 30.1921 43.9693 30.8465C41.7431 32.1638 38.1223 32.1638 35.8816 30.8465C34.754 30.1836 34.1909 29.3136 34.1932 28.4449L34.2039 24.6306C34.2014 25.4994 34.7646 26.3693 35.8922 27.0322C38.1329 28.3495 41.7538 28.3494 43.9799 27.0322C45.0858 26.3778 45.6394 25.5214 45.6418 24.6639Z" fill="#EBEFFC"/>
<path d="M43.9535 22.2622C46.1942 23.5795 46.206 25.7148 43.9799 27.0321C41.7537 28.3494 38.1329 28.3494 35.8922 27.0321C33.6515 25.7148 33.6397 23.5795 35.8658 22.2622C38.0919 20.9448 41.7128 20.9448 43.9535 22.2622Z" fill="#BBC4DC"/>
<path d="M57.3062 31.5208L57.2956 35.3351C57.2932 36.1927 56.7396 37.049 55.6337 37.7034C53.4075 39.0207 49.7867 39.0207 47.546 37.7034C46.4184 37.0405 45.8553 36.1705 45.8577 35.3019L45.8683 31.4875C45.8658 32.3563 46.429 33.2263 47.5567 33.8891C49.7974 35.2064 53.4182 35.2063 55.6443 33.8891C56.7502 33.2347 57.3039 32.3784 57.3062 31.5208Z" fill="#EBEFFC"/>
<path d="M55.6179 29.119C57.8586 30.4364 57.8705 32.5717 55.6444 33.889C53.4182 35.2063 49.7974 35.2063 47.5567 33.889C45.316 32.5717 45.3042 30.4364 47.5303 29.119C49.7564 27.8017 53.3771 27.8018 55.6179 29.119Z" fill="#BBC4DC"/>
<path d="M57.3062 31.5208L57.2956 35.3351C57.2932 36.1927 56.7396 37.049 55.6337 37.7034C53.4075 39.0207 49.7867 39.0207 47.546 37.7034C46.4184 37.0405 45.8553 36.1705 45.8577 35.3019L45.8683 31.4875C45.8658 32.3563 46.429 33.2263 47.5567 33.8891C49.7974 35.2064 53.4182 35.2063 55.6443 33.8891C56.7502 33.2347 57.3039 32.3784 57.3062 31.5208Z" fill="#9EA6C4"/>
<path d="M48.5999 37.6517C48.7134 37.5233 48.8648 37.3519 48.9783 37.2234C49.0349 37.1592 49.1105 37.0738 49.1673 37.0097C49.2802 36.8819 49.4308 36.7115 49.5437 36.5837C49.8527 36.2339 50.1617 35.8842 50.4708 35.5344C50.5795 35.4114 50.7245 35.2473 50.8333 35.1243C50.887 35.0636 50.9585 34.9825 51.0122 34.9218C51.1179 34.8022 51.2589 34.6427 51.3647 34.523C51.468 34.4061 51.6057 34.2502 51.7091 34.1332C51.7598 34.0759 51.8272 33.9995 51.8779 33.9422C51.9771 33.8299 52.1092 33.6804 52.2084 33.5683C52.3912 33.3614 52.6129 33.2298 52.8517 33.2083L49.0655 37.4929C48.8928 37.4396 48.7323 37.5019 48.5999 37.6517Z" fill="#BBC4DC"/>
<path d="M47.3224 41.1484C47.3297 40.8316 47.3305 40.7983 47.3554 40.5373C47.3691 40.3935 47.4019 40.2034 47.4263 40.0611C47.4269 40.0574 47.4979 39.6631 47.6463 39.2571C47.7668 38.927 47.8826 38.6851 48.0732 38.364C48.1199 38.2853 48.1855 38.1822 48.2398 38.1088C48.3435 37.9684 48.4877 37.7854 48.5998 37.6517C48.7322 37.5019 48.8927 37.4395 49.0653 37.493C47.5844 39.1693 48.1629 41.1969 50.3828 42.5018C50.6245 42.644 50.8857 42.7774 51.1658 42.901C54.3781 44.3194 58.923 43.9365 61.3156 42.0466C61.7225 42.2263 62.0506 43.1311 62.048 44.0672C59.351 46.1968 54.2324 46.6281 50.612 45.0299C50.2356 44.8925 50.0027 44.7406 49.7304 44.5805C48.1604 43.6575 47.319 42.4137 47.3224 41.1484Z" fill="#BBC4DC"/>
<path d="M71.5133 26.5978C74.5499 28.3828 74.9849 31.2546 72.3531 33.3318C68.674 36.2367 64.9948 39.1417 61.3157 42.0465C58.9231 43.9364 54.3782 44.3194 51.166 42.901C50.8858 42.7774 50.6247 42.6438 50.383 42.5018C48.163 41.1967 47.5845 39.1692 49.0654 37.4929C50.3275 36.0647 51.5896 34.6365 52.8516 33.2083C48.1748 30.4591 43.498 27.7098 38.8212 24.9606C36.4034 25.7093 33.9855 26.4582 31.5677 27.2069C28.7301 28.0858 25.2909 27.7513 23.0706 26.4462C22.829 26.3041 22.6015 26.1505 22.3911 25.9857C19.9766 24.0964 20.611 21.4149 23.8067 19.9969C28.7201 17.8176 33.6336 15.6383 38.547 13.459C42.0615 11.9006 46.9319 12.1476 49.968 13.9324C50.2597 14.1038 50.5346 14.2897 50.7897 14.4892C52.1379 15.5443 52.6868 16.7896 52.5287 17.9907C56.5602 20.3607 60.5919 22.7306 64.6234 25.1006C66.6594 25.0033 68.7728 25.323 70.5662 26.1148C70.9059 26.2647 71.2215 26.4262 71.5133 26.5978Z" fill="#D8DFF3"/>
<path d="M47.0532 15.4231C45.1966 14.3316 42.1972 14.3316 40.3526 15.4231C38.5086 16.5142 38.5177 18.2836 40.3745 19.3749C42.2305 20.4659 45.231 20.4659 47.0751 19.3749C48.9197 18.2833 48.9093 16.5141 47.0532 15.4231Z" fill="#BBC4DC"/>
<path d="M46.3296 15.7222C44.8752 14.8673 42.5258 14.8673 41.081 15.7222C39.6366 16.5769 39.6438 17.9628 41.0981 18.8176C42.552 19.6723 44.9023 19.6723 46.3467 18.8176C47.7916 17.9628 47.7834 16.5769 46.3296 15.7222Z" fill="#EBEFFC"/>
<path d="M45.6418 24.6639L45.6312 28.4782C45.6288 29.3358 45.0752 30.1921 43.9693 30.8465C41.7431 32.1638 38.1223 32.1638 35.8816 30.8465C34.754 30.1836 34.1909 29.3136 34.1932 28.4449L34.2039 24.6306C34.2014 25.4994 34.7646 26.3693 35.8922 27.0322C38.1329 28.3495 41.7538 28.3494 43.9799 27.0322C45.0858 26.3778 45.6394 25.5214 45.6418 24.6639Z" fill="#9EA6C4"/>
<path d="M43.9535 22.2622C46.1942 23.5795 46.206 25.7148 43.9799 27.0321C41.7537 28.3494 38.1329 28.3494 35.8922 27.0321C33.6515 25.7148 33.6397 23.5795 35.8658 22.2622C38.0919 20.9448 41.7128 20.9448 43.9535 22.2622Z" fill="#BBC4DC"/>
<path d="M55.6179 29.119C57.8586 30.4364 57.8705 32.5717 55.6444 33.889C53.4182 35.2063 49.7974 35.2063 47.5567 33.889C45.316 32.5717 45.3042 30.4364 47.5303 29.119C49.7564 27.8017 53.3771 27.8018 55.6179 29.119Z" fill="#BBC4DC"/>
<path d="M54.2364 29.7612C55.7091 30.627 55.717 32.0305 54.2537 32.8962C52.7904 33.7619 50.4107 33.762 48.9379 32.8962C47.4652 32.0305 47.4573 30.6269 48.9206 29.7612C50.3839 28.8954 52.7638 28.8954 54.2364 29.7612Z" fill="#EBEFFC"/>
<path d="M70.1764 31.5588L70.1784 30.8743C70.1783 30.8953 70.1749 30.9164 70.1731 30.9374C70.2032 30.5866 69.9926 30.2296 69.5367 29.9618C69.3946 29.8783 69.237 29.81 69.0707 29.7543C69.3561 29.6922 69.6241 29.5947 69.8527 29.4594C70.2729 29.2108 70.4832 28.8853 70.4842 28.5595L70.4861 27.875C70.4861 27.896 70.4827 27.917 70.4809 27.938C70.5109 27.5872 70.3004 27.2304 69.8445 26.9624C68.9931 26.4619 67.6174 26.4621 66.7715 26.9627C66.35 27.2122 66.1397 27.5388 66.1403 27.8655C66.1403 27.8645 66.1401 27.8634 66.1401 27.8624L66.1381 28.5469C66.1373 28.8769 66.3513 29.2074 66.7796 29.4592C66.922 29.5428 67.0798 29.6113 67.2465 29.6669C66.961 29.7291 66.6926 29.8266 66.4638 29.962C66.0422 30.2116 65.8319 30.5382 65.8323 30.8651C65.8323 30.8641 65.8321 30.8631 65.8321 30.8621L65.8302 31.5466C65.8293 31.8766 66.0432 32.207 66.4715 32.4588C67.3229 32.9593 68.699 32.9593 69.5449 32.4588C69.9651 32.2101 70.1756 31.8846 70.1764 31.5588ZM61.3869 32.6501C62.2383 33.1506 63.6145 33.1506 64.4603 32.6501C64.8804 32.4015 65.0907 32.0763 65.0915 31.7506L65.0935 31.0661C65.0933 31.0866 65.0901 31.1069 65.0884 31.1273C65.1176 30.777 64.9068 30.4208 64.4517 30.1533C64.3095 30.0697 64.1519 30.0014 63.9855 29.9457C64.271 29.8836 64.5393 29.786 64.7682 29.6506C65.1885 29.4019 65.3989 29.0765 65.3998 28.7506L65.4018 28.0661C65.4018 28.0868 65.3984 28.1073 65.3966 28.1281C65.4261 27.7778 65.2156 27.4214 64.7608 27.1539C63.9093 26.6534 62.5332 26.6534 61.6872 27.1539C61.2657 27.4034 61.0555 27.7301 61.056 28.057C61.056 28.056 61.0558 28.0549 61.0558 28.0538L61.0539 28.7383C61.053 29.0685 61.267 29.3991 61.6954 29.6509C61.8374 29.7344 61.995 29.8027 62.1613 29.8583C61.8761 29.9204 61.608 30.0179 61.3793 30.1532C60.9577 30.4028 60.7475 30.7294 60.7478 31.0563C60.7478 31.0553 60.7476 31.0543 60.7476 31.0533L60.7457 31.7378C60.7446 32.0678 60.9585 32.3982 61.3869 32.6501ZM43.5689 24.845L43.5674 25.3911L41.8703 26.3953L39.9293 25.2544L38.001 26.3954L36.2924 25.391L36.294 24.8449L37.7586 23.9783L36.2803 23.1093L36.2819 22.5632L37.979 21.5591L39.9195 22.6997L41.8478 21.5588L43.5564 22.5632L43.5548 23.1093L42.0902 23.9759L43.5689 24.845Z" fill="#D7E0F9"/>
<path d="M70.4861 27.8747L70.4842 28.5592C70.4833 28.8852 70.2729 29.2105 69.8527 29.4592C69.0067 29.9596 67.6311 29.9594 66.7796 29.4588C66.3512 29.207 66.1372 28.8765 66.1381 28.5465L66.1401 27.8621C66.1392 28.192 66.3532 28.5226 66.7816 28.7744C67.633 29.2749 69.0086 29.2752 69.8546 28.7747C70.2748 28.5262 70.4853 28.2007 70.4861 27.8747Z" fill="#BBC4DC"/>
<path d="M69.8446 26.9621C70.6961 27.4626 70.7006 28.2743 69.8546 28.7747C69.0087 29.2751 67.633 29.275 66.7816 28.7744C65.9302 28.2739 65.9257 27.4629 66.7716 26.9624C67.6174 26.462 68.9931 26.4616 69.8446 26.9621Z" fill="#EFF3FF"/>
<path d="M65.4015 28.0657L65.3996 28.7502C65.3987 29.0761 65.1883 29.4016 64.768 29.6502C63.922 30.1507 62.5459 30.1507 61.6949 29.6506C61.2664 29.3988 61.0524 29.0681 61.0534 28.7379L61.0553 28.0535C61.0545 28.3837 61.2685 28.7143 61.6969 28.9661C62.5478 29.4664 63.9239 29.4664 64.7699 28.9658C65.1902 28.7172 65.4007 28.3917 65.4015 28.0657Z" fill="#BBC4DC"/>
<path d="M64.7604 27.1538C65.6114 27.6541 65.6158 28.4656 64.7699 28.9662C63.9239 29.4667 62.5479 29.4667 61.6969 28.9665C60.8455 28.466 60.8409 27.6543 61.6869 27.154C62.5328 26.6535 63.909 26.6535 64.7604 27.1538Z" fill="#EFF3FF"/>
<path d="M70.1784 30.8743L70.1764 31.5588C70.1756 31.8847 69.9651 32.2101 69.5449 32.4587C68.6989 32.9592 67.3229 32.9592 66.4714 32.4587C66.0432 32.2069 65.8293 31.8765 65.8301 31.5465L65.8321 30.8621C65.8312 31.192 66.0451 31.5225 66.4734 31.7742C67.3248 32.2747 68.7009 32.2747 69.5468 31.7742C69.9671 31.5256 70.1775 31.2001 70.1784 30.8743Z" fill="#BBC4DC"/>
<path d="M69.5369 29.9615C70.3883 30.462 70.3928 31.2737 69.5469 31.7741C68.7009 32.2746 67.3248 32.2746 66.4734 31.7741C65.622 31.2736 65.618 30.4624 66.4639 29.9617C67.3097 29.4611 68.6853 29.4609 69.5369 29.9615Z" fill="#EFF3FF"/>
<path d="M65.0935 31.0659L65.0916 31.7504C65.0907 32.0761 64.8804 32.4014 64.4604 32.6499C63.6144 33.1504 62.2383 33.1504 61.3869 32.6499C60.9586 32.3981 60.7447 32.0677 60.7456 31.7377L60.7475 31.0532C60.7467 31.3832 60.9606 31.7136 61.3888 31.9654C62.2403 32.4659 63.6164 32.4659 64.4623 31.9654C64.8823 31.7169 65.0925 31.3917 65.0935 31.0659Z" fill="#BBC4DC"/>
<path d="M64.4516 30.1532C65.303 30.6537 65.3081 31.465 64.4621 31.9656C63.6162 32.4661 62.2401 32.4661 61.3887 31.9656C60.5373 31.4651 60.5333 30.6538 61.3791 30.1532C62.2251 29.6527 63.6002 29.6527 64.4516 30.1532Z" fill="#EFF3FF"/>
<path d="M43.5564 22.5652L43.5548 23.1113L41.6265 24.2523L41.628 23.7062L43.5564 22.5652Z" fill="#5874BF"/>
<path d="M38.2222 23.706L38.2207 24.2521L36.2802 23.1113L36.2818 22.5652L38.2222 23.706Z" fill="#9EA6C4"/>
<path d="M41.8719 25.8511L41.8704 26.3973L39.9294 25.2563L39.931 24.7102L41.8719 25.8511Z" fill="#9EA6C4"/>
<path d="M43.5691 24.8472L43.5675 25.3934L41.8704 26.3974L41.8719 25.8512L43.5691 24.8472Z" fill="#5874BF"/>
<path d="M38.0026 25.8514L38.001 26.3974L36.2924 25.3931L36.2939 24.8469L38.0026 25.8514Z" fill="#9EA6C4"/>
<path d="M39.931 24.7102L39.9294 25.2563L38.001 26.3973L38.0026 25.8513L39.931 24.7102Z" fill="#5874BF"/>
<path d="M43.5564 22.565L41.6281 23.706L43.5691 24.847L41.8719 25.8511L39.931 24.7102L38.0026 25.8513L37.1485 25.3492L36.2939 24.8468L38.2223 23.7058L36.2818 22.565L37.9788 21.5609L39.9194 22.7017L41.8477 21.5605L43.5564 22.565Z" fill="#ADC3FC"/>
<path d="M46.1647 15.6467C47.5381 16.454 47.5453 17.7628 46.1809 18.5703C44.8165 19.3776 42.5973 19.3776 41.2239 18.5703C39.8505 17.763 39.8433 16.4542 41.2076 15.6467C42.5721 14.8394 44.7912 14.8394 46.1647 15.6467Z" fill="#3468EC"/>
<path d="M46.8781 15.1195C46.8982 14.6216 46.5856 14.1195 45.9394 13.7394C44.6909 13.0055 42.6735 13.0055 41.4331 13.7394C40.815 14.1051 40.5067 14.5841 40.5074 15.0635C40.5074 15.0619 40.5073 15.0605 40.5073 15.0589L40.5013 15.446C40.5 15.9299 40.8137 16.4148 41.442 16.7841C42.6905 17.518 44.7079 17.518 45.9483 16.7841C46.5644 16.4194 46.873 15.9423 46.8743 15.4644L46.8802 15.0774C46.8798 15.0914 46.8788 15.1055 46.8781 15.1195Z" fill="#3468EC"/>
<path d="M46.88 15.0776L46.8741 15.4646C46.8727 15.9425 46.5643 16.4196 45.9481 16.7842C44.7077 17.5182 42.6903 17.5182 41.4419 16.7842C40.8137 16.415 40.4998 15.9301 40.5012 15.4462L40.5071 15.0591C40.5057 15.5431 40.8195 16.0279 41.4478 16.3972C42.6962 17.1311 44.7136 17.1311 45.954 16.3972C46.5702 16.0325 46.8787 15.5554 46.88 15.0776Z" fill="#4660A6"/>
<path d="M45.9393 13.7394C47.1877 14.4733 47.1943 15.6631 45.954 16.3971C44.7136 17.131 42.6962 17.131 41.4477 16.3971C40.1993 15.6632 40.1927 14.4734 41.433 13.7394C42.6734 13.0055 44.6908 13.0055 45.9393 13.7394Z" fill="#789DFC"/>
<path d="M54.0524 29.6292C55.4258 30.4364 55.433 31.7452 54.0687 32.5527C52.7042 33.36 50.485 33.36 49.1116 32.5527C47.7382 31.7454 47.731 30.4366 49.0953 29.6292C50.4598 28.8219 52.6789 28.8219 54.0524 29.6292Z" fill="#3468EC"/>
<path d="M54.7657 29.1019C54.7858 28.604 54.4732 28.1019 53.8269 27.7218C52.5785 26.9879 50.5611 26.9879 49.3207 27.7218C48.7026 28.0876 48.3943 28.5665 48.3949 29.0459C48.3949 29.0444 48.3948 29.043 48.3948 29.0413L48.3889 29.4284C48.3875 29.9124 48.7013 30.3972 49.3296 30.7665C50.5781 31.5004 52.5955 31.5004 53.8359 30.7665C54.452 30.4019 54.7605 29.9247 54.7618 29.4469L54.7677 29.0598C54.7675 29.0739 54.7663 29.0878 54.7657 29.1019Z" fill="#3468EC"/>
<path d="M54.7676 29.06L54.7616 29.4471C54.7602 29.9249 54.4518 30.402 53.8357 30.7667C52.5953 31.5006 50.5779 31.5006 49.3294 30.7667C48.7012 30.3974 48.3873 29.9126 48.3887 29.4286L48.3946 29.0415C48.3933 29.5255 48.707 30.0103 49.3353 30.3796C50.5838 31.1135 52.6012 31.1135 53.8416 30.3796C54.4577 30.0148 54.7663 29.5378 54.7676 29.06Z" fill="#4660A6"/>
<path d="M53.8268 27.7218C55.0753 28.4557 55.0818 29.6455 53.8415 30.3795C52.6011 31.1134 50.5838 31.1134 49.3353 30.3795C48.0869 29.6456 48.0803 28.4558 49.3206 27.7218C50.561 26.9879 52.5785 26.9879 53.8268 27.7218Z" fill="#789DFC"/>
<path d="M53.5192 21.8865L51.8453 20.9025C51.5988 20.7574 51.2004 20.7574 50.9553 20.9025C50.8334 20.9746 50.7728 21.0691 50.7731 21.1637C50.7731 21.1633 50.7729 21.163 50.7729 21.1627L50.7711 21.8155C50.7709 21.9111 50.8347 22.0069 50.9588 22.08L52.6326 23.064C52.8792 23.2091 53.2758 23.209 53.5204 23.0644C53.6421 22.9923 53.703 22.8981 53.7032 22.8037L53.705 22.1509C53.705 22.1641 53.7009 22.1773 53.6985 22.1905C53.7184 22.0822 53.6604 21.9696 53.5192 21.8865Z" fill="#D7E0F9"/>
<path d="M50.7711 21.8157L50.7729 21.1628C50.7727 21.2584 50.8345 21.3542 50.9588 21.4273V22.0802C50.8345 22.007 50.7708 21.9113 50.7711 21.8157Z" fill="#D8D8DA"/>
<path d="M52.6326 22.4113V23.064L50.9588 22.0801V21.4272L52.6326 22.4113Z" fill="#BBC4DC"/>
<path d="M53.705 22.1509L53.7031 22.8037C53.7029 22.8981 53.6419 22.9923 53.5203 23.0644C53.2758 23.2091 52.8791 23.2091 52.6326 23.064V22.4112C52.8791 22.5561 53.2776 22.5561 53.522 22.4115C53.6439 22.3395 53.7047 22.2453 53.705 22.1509Z" fill="#ACABB1"/>
<path d="M53.5192 21.8868C53.7658 22.0317 53.7672 22.2667 53.5221 22.4117C53.2776 22.5564 52.8792 22.5564 52.6327 22.4113L50.9589 21.4273C50.7123 21.2823 50.7109 21.0473 50.9555 20.9027C51.2006 20.7577 51.5989 20.7577 51.8456 20.9027L53.5192 21.8868Z" fill="#EFF3FF"/>
<path d="M57.3412 24.1568L55.6674 23.1727C55.4208 23.0277 55.0224 23.0277 54.7774 23.1727C54.6556 23.2448 54.5949 23.3393 54.5951 23.4339C54.5951 23.4336 54.595 23.4333 54.595 23.4329L54.5931 24.0858C54.5929 24.1814 54.6567 24.2772 54.7808 24.3503L56.4546 25.3343C56.7012 25.4793 57.0978 25.4792 57.3424 25.3346C57.4641 25.2626 57.525 25.1684 57.5252 25.074L57.527 24.4211C57.527 24.4344 57.523 24.4476 57.5205 24.4607C57.5406 24.3525 57.4826 24.2399 57.3412 24.1568Z" fill="#D7E0F9"/>
<path d="M54.593 24.086L54.5948 23.4331C54.5946 23.5287 54.6565 23.6245 54.7808 23.6976V24.3504C54.6566 24.2773 54.5928 24.1816 54.593 24.086Z" fill="#D8D8DA"/>
<path d="M56.4546 24.6816V25.3343L54.7806 24.3503V23.6975L56.4546 24.6816Z" fill="#BBC4DC"/>
<path d="M57.527 24.4211L57.5252 25.074C57.5249 25.1684 57.4639 25.2626 57.3423 25.3346C57.0978 25.4793 56.7011 25.4793 56.4546 25.3343V24.6815C56.7011 24.8264 57.0997 24.8264 57.344 24.6818C57.4658 24.6098 57.5267 24.5155 57.527 24.4211Z" fill="#ACABB1"/>
<path d="M57.3413 24.1568C57.5878 24.3018 57.5892 24.5368 57.3442 24.6817C57.0998 24.8264 56.7013 24.8264 56.4547 24.6813L54.7809 23.6973C54.5343 23.5523 54.5329 23.3173 54.7775 23.1727C55.0226 23.0277 55.4209 23.0277 55.6676 23.1727L57.3413 24.1568Z" fill="#EFF3FF"/>
</g>
<defs>
<filter id="filter0_d" x="0" y="-10" width="95" height="96" filterUnits="userSpaceOnUse" color-interpolation-filters="sRGB">
<feFlood flood-opacity="0" result="BackgroundImageFix"/>
<feColorMatrix in="SourceAlpha" type="matrix" values="0 0 0 0 0 0 0 0 0 0 0 0 0 0 0 0 0 0 127 0"/>
<feOffset dy="8"/>
<feGaussianBlur stdDeviation="10"/>
<feColorMatrix type="matrix" values="0 0 0 0 0.700972 0 0 0 0 0.763917 0 0 0 0 0.858333 0 0 0 0.7 0"/>
<feBlend mode="normal" in2="BackgroundImageFix" result="effect1_dropShadow"/>
<feBlend mode="normal" in="SourceGraphic" in2="effect1_dropShadow" result="shape"/>
</filter>
<clipPath id="clip0">
<rect width="55" height="56" fill="white" transform="translate(20 2)"/>
</clipPath>
</defs>
</svg>
